<svg width="190" height="119" viewBox="0 0 190 119" fill="none" xmlns="http://www.w3.org/2000/svg">
<path d="M22.4272 27.2998H21.9232V52.2665H22.4272V27.2998Z" fill="#3F3D56"/>
<path d="M22.4272 59.6992H21.9232V81.6674H22.4272V59.6992Z" fill="#3F3D56"/>
<path d="M60.2255 85.167H21.1671V85.6337H60.2255V85.167Z" fill="#3F3D56"/>
<path d="M5.03987 91.4668H4.53589V111.3H5.03987V91.4668Z" fill="#3F3D56"/>
<path d="M68.2892 114.801H9.07178V115.267H68.2892V114.801Z" fill="#3F3D56"/>
<path d="M117.679 11.4336H117.175V35.0003H117.679V11.4336Z" fill="#3F3D56"/>
<path d="M113.395 38.7334H76.3444V39.2001H113.395V38.7334Z" fill="#3F3D56"/>
<path d="M72.573 42.4668H72.069V73.9668H72.573V42.4668Z" fill="#3F3D56"/>
<path d="M22.1751 59.9665C21.3278 59.9665 20.4996 59.7339 19.7951 59.298C19.0906 58.8622 18.5416 58.2427 18.2173 57.5179C17.8931 56.793 17.8083 55.9955 17.9735 55.226C18.1388 54.4566 18.5468 53.7498 19.1459 53.195C19.745 52.6403 20.5083 52.2625 21.3393 52.1094C22.1703 51.9564 23.0316 52.0349 23.8144 52.3352C24.5972 52.6354 25.2662 53.1438 25.7369 53.7961C26.2076 54.4484 26.4589 55.2153 26.4589 55.9999C26.4576 57.0515 26.0059 58.0598 25.2028 58.8034C24.3997 59.5471 23.3108 59.9654 22.1751 59.9665ZM22.1751 52.4999C21.4275 52.4999 20.6967 52.7051 20.0751 53.0897C19.4535 53.4743 18.969 54.0209 18.6829 54.6605C18.3969 55.3 18.322 56.0038 18.4678 56.6827C18.6137 57.3616 18.9737 57.9853 19.5023 58.4748C20.0309 58.9642 20.7044 59.2976 21.4377 59.4326C22.1709 59.5677 22.9309 59.4984 23.6215 59.2335C24.3122 58.9686 24.9026 58.5199 25.3179 57.9444C25.7332 57.3688 25.9549 56.6921 25.9549 55.9999C25.9538 55.0719 25.5552 54.1823 24.8466 53.5261C24.138 52.87 23.1772 52.5009 22.1751 52.4999Z" fill="#3F3D56"/>
<path d="M5.03993 119C4.19267 119 3.36444 118.767 2.65997 118.331C1.95549 117.895 1.40643 117.276 1.08219 116.551C0.757961 115.826 0.673125 115.029 0.838417 114.259C1.00371 113.49 1.41171 112.783 2.01081 112.228C2.60992 111.673 3.37321 111.296 4.20419 111.143C5.03517 110.99 5.89651 111.068 6.67928 111.368C7.46204 111.669 8.13108 112.177 8.6018 112.829C9.07251 113.482 9.32375 114.249 9.32375 115.033C9.32248 116.085 8.87075 117.093 8.06765 117.837C7.26455 118.58 6.17568 118.999 5.03993 119ZM5.03993 111.533C4.29235 111.533 3.56155 111.738 2.93996 112.123C2.31837 112.508 1.83389 113.054 1.54781 113.694C1.26172 114.333 1.18687 115.037 1.33271 115.716C1.47856 116.395 1.83855 117.018 2.36717 117.508C2.89579 117.997 3.5693 118.331 4.30252 118.466C5.03574 118.601 5.79573 118.532 6.48641 118.267C7.17709 118.002 7.76742 117.553 8.18275 116.978C8.59809 116.402 8.81977 115.725 8.81977 115.033C8.81866 114.105 8.42007 113.216 7.71145 112.559C7.00284 111.903 6.04207 111.534 5.03993 111.533Z" fill="#3F3D56"/>
<path d="M22.4271 89.1337C24.6538 89.1337 26.4589 87.4622 26.4589 85.4003C26.4589 83.3385 24.6538 81.667 22.4271 81.667C20.2004 81.667 18.3953 83.3385 18.3953 85.4003C18.3953 87.4622 20.2004 89.1337 22.4271 89.1337Z" fill="#347AF0"/>
<path d="M168.329 55.7666H126.499V56.2333H168.329V55.7666Z" fill="#3F3D56"/>
<path d="M122.719 59.6992H122.215V81.6674H122.719V59.6992Z" fill="#3F3D56"/>
<path d="M118.183 85.167H84.6686V85.6337H118.183V85.167Z" fill="#3F3D56"/>
<path d="M178.409 87.2666H143.634V87.7333H178.409V87.2666Z" fill="#3F3D56"/>
<path d="M140.106 91.4668H139.602V111.3H140.106V91.4668Z" fill="#3F3D56"/>
<path d="M135.57 114.801H76.3529V115.267H135.57V114.801Z" fill="#3F3D56"/>
<path d="M72.5731 96.833H72.0691V111.3H72.5731V96.833Z" fill="#3F3D56"/>
<path d="M122.467 59.7333C124.694 59.7333 126.499 58.0618 126.499 55.9999C126.499 53.9381 124.694 52.2666 122.467 52.2666C120.24 52.2666 118.435 53.9381 118.435 55.9999C118.435 58.0618 120.24 59.7333 122.467 59.7333Z" fill="#347AF0"/>
<path d="M117.427 42.6999C116.58 42.6999 115.752 42.4673 115.047 42.0314C114.343 41.5956 113.794 40.9761 113.47 40.2513C113.145 39.5264 113.06 38.7289 113.226 37.9594C113.391 37.19 113.799 36.4832 114.398 35.9284C114.997 35.3737 115.761 34.9959 116.592 34.8428C117.422 34.6898 118.284 34.7683 119.067 35.0686C119.849 35.3688 120.518 35.8772 120.989 36.5295C121.46 37.1818 121.711 37.9487 121.711 38.7333C121.71 39.7849 121.258 40.7932 120.455 41.5368C119.652 42.2805 118.563 42.6988 117.427 42.6999ZM117.427 35.2333C116.68 35.2333 115.949 35.4385 115.327 35.8231C114.706 36.2077 114.221 36.7543 113.935 37.3939C113.649 38.0334 113.574 38.7372 113.72 39.4161C113.866 40.095 114.226 40.7187 114.755 41.2082C115.283 41.6976 115.957 42.031 116.69 42.166C117.423 42.3011 118.183 42.2318 118.874 41.9669C119.564 41.702 120.155 41.2534 120.57 40.6778C120.985 40.1022 121.207 39.4255 121.207 38.7333C121.206 37.8053 120.807 36.9157 120.099 36.2595C119.39 35.6034 118.429 35.2343 117.427 35.2333Z" fill="#3F3D56"/>
<path d="M72.321 42.6999C71.4738 42.6999 70.6456 42.4673 69.9411 42.0314C69.2366 41.5956 68.6876 40.9761 68.3633 40.2513C68.0391 39.5264 67.9543 38.7289 68.1195 37.9594C68.2848 37.19 68.6928 36.4832 69.2919 35.9284C69.891 35.3737 70.6543 34.9959 71.4853 34.8428C72.3163 34.6898 73.1776 34.7683 73.9604 35.0686C74.7432 35.3688 75.4122 35.8772 75.8829 36.5295C76.3536 37.1818 76.6049 37.9487 76.6049 38.7333C76.6036 39.7849 76.1519 40.7932 75.3488 41.5368C74.5457 42.2805 73.4568 42.6988 72.321 42.6999ZM72.321 35.2333C71.5735 35.2333 70.8427 35.4385 70.2211 35.8231C69.5995 36.2077 69.115 36.7543 68.8289 37.3939C68.5429 38.0334 68.468 38.7372 68.6138 39.4161C68.7597 40.095 69.1197 40.7187 69.6483 41.2082C70.1769 41.6976 70.8504 42.031 71.5836 42.166C72.3169 42.3011 73.0769 42.2318 73.7675 41.9669C74.4582 41.702 75.0485 41.2534 75.4639 40.6778C75.8792 40.1022 76.1009 39.4255 76.1009 38.7333C76.0998 37.8053 75.7012 36.9157 74.9926 36.2595C74.284 35.6034 73.3232 35.2343 72.321 35.2333Z" fill="#3F3D56"/>
<path d="M139.602 91.6999C138.755 91.6999 137.927 91.4673 137.222 91.0314C136.518 90.5956 135.969 89.9761 135.644 89.2513C135.32 88.5264 135.235 87.7289 135.401 86.9594C135.566 86.19 135.974 85.4832 136.573 84.9284C137.172 84.3737 137.935 83.9959 138.766 83.8428C139.597 83.6898 140.459 83.7683 141.242 84.0686C142.024 84.3688 142.693 84.8772 143.164 85.5295C143.635 86.1818 143.886 86.9487 143.886 87.7333C143.885 88.7849 143.433 89.7932 142.63 90.5368C141.827 91.2805 140.738 91.6988 139.602 91.6999ZM139.602 84.2333C138.855 84.2333 138.124 84.4385 137.502 84.8231C136.881 85.2077 136.396 85.7543 136.11 86.3939C135.824 87.0334 135.749 87.7372 135.895 88.4161C136.041 89.095 136.401 89.7187 136.929 90.2082C137.458 90.6976 138.132 91.031 138.865 91.166C139.598 91.3011 140.358 91.2318 141.049 90.9669C141.739 90.702 142.33 90.2533 142.745 89.6778C143.16 89.1022 143.382 88.4255 143.382 87.7333C143.381 86.8053 142.982 85.9157 142.274 85.2595C141.565 84.6034 140.604 84.2343 139.602 84.2333Z" fill="#3F3D56"/>
<path d="M139.602 118.766C141.829 118.766 143.634 117.095 143.634 115.033C143.634 112.971 141.829 111.3 139.602 111.3C137.375 111.3 135.57 112.971 135.57 115.033C135.57 117.095 137.375 118.766 139.602 118.766Z" fill="#347AF0"/>
<path d="M72.321 119C71.4738 119 70.6456 118.767 69.9411 118.331C69.2366 117.895 68.6876 117.276 68.3633 116.551C68.0391 115.826 67.9543 115.029 68.1195 114.259C68.2848 113.49 68.6928 112.783 69.2919 112.228C69.891 111.673 70.6543 111.296 71.4853 111.143C72.3163 110.99 73.1776 111.068 73.9604 111.368C74.7432 111.669 75.4122 112.177 75.8829 112.829C76.3536 113.482 76.6049 114.249 76.6049 115.033C76.6036 116.085 76.1519 117.093 75.3488 117.837C74.5457 118.58 73.4568 118.999 72.321 119ZM72.321 111.533C71.5735 111.533 70.8427 111.738 70.2211 112.123C69.5995 112.508 69.115 113.054 68.8289 113.694C68.5429 114.333 68.468 115.037 68.6138 115.716C68.7597 116.395 69.1197 117.018 69.6483 117.508C70.1769 117.997 70.8504 118.331 71.5836 118.466C72.3169 118.601 73.0769 118.532 73.7675 118.267C74.4582 118.002 75.0485 117.553 75.4639 116.978C75.8792 116.402 76.1009 115.725 76.1009 115.033C76.0998 114.105 75.7012 113.216 74.9926 112.559C74.284 111.903 73.3232 111.534 72.321 111.533Z" fill="#3F3D56"/>
<path d="M122.215 89.3669C121.368 89.3669 120.539 89.1343 119.835 88.6984C119.131 88.2626 118.581 87.6431 118.257 86.9183C117.933 86.1934 117.848 85.3959 118.013 84.6264C118.179 83.8569 118.587 83.1502 119.186 82.5954C119.785 82.0407 120.548 81.6629 121.379 81.5098C122.21 81.3568 123.072 81.4353 123.854 81.7355C124.637 82.0358 125.306 82.5442 125.777 83.1965C126.248 83.8488 126.499 84.6157 126.499 85.4003C126.498 86.4519 126.046 87.4602 125.243 88.2038C124.44 88.9475 123.351 89.3658 122.215 89.3669ZM122.215 81.9003C121.467 81.9003 120.737 82.1055 120.115 82.4901C119.493 82.8747 119.009 83.4213 118.723 84.0609C118.437 84.7004 118.362 85.4042 118.508 86.0831C118.654 86.762 119.014 87.3857 119.542 87.8752C120.071 88.3646 120.744 88.698 121.478 88.833C122.211 88.9681 122.971 88.8988 123.661 88.6339C124.352 88.3689 124.942 87.9203 125.358 87.3448C125.773 86.7692 125.995 86.0925 125.995 85.4003C125.994 84.4723 125.595 83.5827 124.887 82.9265C124.178 82.2704 123.217 81.9013 122.215 81.9003Z" fill="#3F3D56"/>
<path d="M5.03979 79.7998C4.04301 79.7998 3.06862 80.0735 2.23984 80.5863C1.41105 81.0991 0.765078 81.8279 0.383629 82.6806C0.00217936 83.5333 -0.0976194 84.4717 0.0968418 85.3769C0.291303 86.2821 0.771297 87.1137 1.47612 87.7663C2.18095 88.419 3.07895 88.8634 4.05658 89.0435C5.0342 89.2236 6.04753 89.1311 6.96843 88.7779C7.88933 88.4247 8.67644 87.8266 9.23022 87.0591C9.78399 86.2917 10.0796 85.3895 10.0796 84.4665C10.0757 83.2299 9.54343 82.045 8.59914 81.1706C7.65484 80.2963 6.37522 79.8034 5.03979 79.7998ZM5.03979 81.1998C5.33882 81.1998 5.63114 81.2819 5.87978 81.4357C6.12841 81.5896 6.3222 81.8082 6.43663 82.064C6.55107 82.3199 6.58101 82.6014 6.52267 82.8729C6.46433 83.1445 6.32034 83.394 6.10889 83.5898C5.89744 83.7856 5.62804 83.9189 5.33475 83.9729C5.04146 84.0269 4.73746 83.9992 4.46119 83.8932C4.18492 83.7873 3.94879 83.6078 3.78265 83.3776C3.61652 83.1474 3.52785 82.8767 3.52785 82.5998C3.52919 82.2289 3.68891 81.8735 3.97216 81.6112C4.25542 81.3489 4.63921 81.201 5.03979 81.1998ZM5.03979 87.9396C4.44251 87.937 3.85492 87.7996 3.32799 87.5392C2.80104 87.2789 2.35067 86.9034 2.01591 86.4453C2.04015 85.512 4.03183 84.9982 5.03979 84.9982C6.04774 84.9982 8.03943 85.512 8.06366 86.4453C7.72853 86.903 7.27807 87.2782 6.75121 87.5386C6.22436 87.7989 5.63696 87.9366 5.03979 87.9396Z" fill="#3F3D56"/>
<path d="M22.4271 16.1006C21.4303 16.1006 20.456 16.3743 19.6272 16.8871C18.7984 17.3998 18.1524 18.1287 17.771 18.9814C17.3895 19.8341 17.2897 20.7724 17.4842 21.6777C17.6786 22.5829 18.1586 23.4144 18.8635 24.0671C19.5683 24.7197 20.4663 25.1642 21.4439 25.3443C22.4215 25.5243 23.4349 25.4319 24.3558 25.0787C25.2767 24.7255 26.0638 24.1274 26.6175 23.3599C27.1713 22.5925 27.4669 21.6902 27.4669 20.7673C27.463 19.5307 26.9308 18.3458 25.9865 17.4714C25.0422 16.597 23.7625 16.1042 22.4271 16.1006ZM22.4271 17.5006C22.7261 17.5006 23.0185 17.5827 23.2671 17.7365C23.5157 17.8904 23.7095 18.109 23.824 18.3648C23.9384 18.6206 23.9683 18.9021 23.91 19.1737C23.8517 19.4453 23.7077 19.6947 23.4962 19.8905C23.2848 20.0863 23.0154 20.2197 22.7221 20.2737C22.4288 20.3277 22.1248 20.3 21.8485 20.194C21.5722 20.0881 21.3361 19.9086 21.17 19.6784C21.0038 19.4482 20.9152 19.1775 20.9152 18.9006C20.9165 18.5297 21.0762 18.1743 21.3595 17.912C21.6427 17.6497 22.0265 17.5018 22.4271 17.5006ZM22.4271 24.2403C21.8298 24.2378 21.2423 24.1004 20.7153 23.84C20.1884 23.5796 19.738 23.2041 19.4032 22.7461C19.4275 21.8128 21.4192 21.299 22.4271 21.299C23.4351 21.299 25.4268 21.8128 25.451 22.7461C25.1159 23.2038 24.6654 23.579 24.1385 23.8394C23.6117 24.0997 23.0243 24.2373 22.4271 24.2403Z" fill="#3F3D56"/>
<path d="M117.427 0C116.43 0 115.456 0.273697 114.627 0.786477C113.798 1.29926 113.152 2.02809 112.771 2.88082C112.39 3.73354 112.29 4.67185 112.484 5.5771C112.679 6.48234 113.159 7.31386 113.863 7.96651C114.568 8.61915 115.466 9.06361 116.444 9.24368C117.422 9.42374 118.435 9.33132 119.356 8.97812C120.277 8.62491 121.064 8.02677 121.618 7.25934C122.171 6.49191 122.467 5.58965 122.467 4.66667C122.463 3.43011 121.931 2.24522 120.986 1.37083C120.042 0.496447 118.763 0.00361956 117.427 0ZM117.427 1.4C117.726 1.4 118.018 1.48211 118.267 1.63594C118.516 1.78978 118.71 2.00843 118.824 2.26425C118.938 2.52006 118.968 2.80156 118.91 3.07313C118.852 3.3447 118.708 3.59416 118.496 3.78995C118.285 3.98575 118.015 4.11908 117.722 4.1731C117.429 4.22712 117.125 4.1994 116.849 4.09344C116.572 3.98747 116.336 3.80803 116.17 3.5778C116.004 3.34757 115.915 3.0769 115.915 2.8C115.917 2.42908 116.076 2.0737 116.359 1.81142C116.643 1.54914 117.027 1.40124 117.427 1.4ZM117.427 8.13975C116.83 8.13723 116.242 7.99982 115.715 7.73943C115.188 7.47905 114.738 7.10355 114.403 6.64552C114.427 5.71219 116.419 5.1984 117.427 5.1984C118.435 5.1984 120.427 5.71219 120.451 6.64552C120.116 7.10321 119.665 7.47844 119.139 7.73878C118.612 7.99912 118.024 8.13675 117.427 8.13975Z" fill="#3F3D56"/>
<path d="M175.385 51.0996C174.388 51.0996 173.413 51.3733 172.585 51.8861C171.756 52.3989 171.11 53.1277 170.728 53.9804C170.347 54.8331 170.247 55.7715 170.442 56.6767C170.636 57.5819 171.116 58.4135 171.821 59.0661C172.526 59.7188 173.424 60.1632 174.401 60.3433C175.379 60.5233 176.392 60.4309 177.313 60.0777C178.234 59.7245 179.021 59.1264 179.575 58.3589C180.129 57.5915 180.424 56.6893 180.424 55.7663C180.421 54.5297 179.888 53.3448 178.944 52.4704C178 51.5961 176.72 51.1032 175.385 51.0996ZM175.385 52.4996C175.684 52.4996 175.976 52.5817 176.225 52.7355C176.473 52.8894 176.667 53.108 176.781 53.3639C176.896 53.6197 176.926 53.9012 176.868 54.1727C176.809 54.4443 176.665 54.6938 176.454 54.8896C176.242 55.0854 175.973 55.2187 175.68 55.2727C175.386 55.3267 175.082 55.299 174.806 55.193C174.53 55.0871 174.294 54.9076 174.128 54.6774C173.961 54.4472 173.873 54.1765 173.873 53.8996C173.874 53.5287 174.034 53.1733 174.317 52.911C174.6 52.6487 174.984 52.5008 175.385 52.4996ZM175.385 59.2394C174.787 59.2368 174.2 59.0994 173.673 58.839C173.146 58.5786 172.696 58.2032 172.361 57.7451C172.385 56.8118 174.377 56.298 175.385 56.298C176.393 56.298 178.384 56.8118 178.409 57.7451C178.073 58.2028 177.623 58.578 177.096 58.8384C176.569 59.0987 175.982 59.2363 175.385 59.2394Z" fill="#3F3D56"/>
<path d="M184.96 82.5996C183.963 82.5996 182.989 82.8733 182.16 83.3861C181.331 83.8989 180.685 84.6277 180.304 85.4804C179.923 86.3332 179.823 87.2715 180.017 88.1767C180.212 89.082 180.692 89.9135 181.397 90.5661C182.101 91.2188 182.999 91.6632 183.977 91.8433C184.955 92.0234 185.968 91.9309 186.889 91.5777C187.81 91.2245 188.597 90.6264 189.151 89.859C189.704 89.0915 190 88.1893 190 87.2663C189.996 86.0297 189.464 84.8448 188.52 83.9704C187.575 83.0961 186.296 82.6032 184.96 82.5996ZM184.96 83.9996C185.259 83.9996 185.552 84.0817 185.8 84.2356C186.049 84.3894 186.243 84.608 186.357 84.8639C186.471 85.1197 186.501 85.4012 186.443 85.6727C186.385 85.9443 186.241 86.1938 186.029 86.3896C185.818 86.5854 185.548 86.7187 185.255 86.7727C184.962 86.8267 184.658 86.799 184.382 86.693C184.105 86.5871 183.869 86.4076 183.703 86.1774C183.537 85.9472 183.448 85.6765 183.448 85.3996C183.45 85.0287 183.609 84.6733 183.893 84.411C184.176 84.1487 184.56 84.0008 184.96 83.9996ZM184.96 90.7394C184.363 90.7368 183.775 90.5994 183.248 90.339C182.721 90.0787 182.271 89.7032 181.936 89.2451C181.961 88.3118 183.952 87.798 184.96 87.798C185.968 87.798 187.96 88.3118 187.984 89.2451C187.649 89.7028 187.198 90.0781 186.672 90.3384C186.145 90.5987 185.557 90.7364 184.96 90.7394Z" fill="#3F3D56"/>
<path d="M72.643 82.5225L72.1267 84.4393C72.7121 84.5744 74.5163 85.1255 74.8086 84.0408C75.1133 82.9098 73.2284 82.6576 72.643 82.5225Z" fill="#347AF0"/>
<path d="M71.8663 85.4062L71.2968 87.5198C71.9996 87.6815 74.1674 88.326 74.4879 87.1336C74.8228 85.8904 72.569 85.5687 71.8663 85.4062Z" fill="#347AF0"/>
<path d="M74.977 76.8165C73.1639 76.3979 71.2575 76.4866 69.4989 77.0712C67.7402 77.6559 66.2082 78.7103 65.0967 80.1011C63.9852 81.492 63.3441 83.1568 63.2544 84.885C63.1647 86.6133 63.6305 88.3273 64.5929 89.8105C65.5552 91.2936 66.9709 92.4792 68.6609 93.2173C70.3509 93.9554 72.2394 94.2129 74.0874 93.9572C75.9355 93.7015 77.6602 92.9442 79.0434 91.7809C80.4266 90.6176 81.4062 89.1006 81.8583 87.4218C82.1587 86.307 82.219 85.1484 82.0358 84.0121C81.8525 82.8758 81.4293 81.784 80.7903 80.7992C80.1512 79.8143 79.3089 78.9557 78.3115 78.2724C77.314 77.589 76.181 77.0943 74.977 76.8165ZM76.8573 84.0585C76.721 84.9109 76.211 85.3236 75.5334 85.4681C76.4635 85.9163 76.937 86.6042 76.4859 87.7965C75.9265 89.277 74.5968 89.4021 72.829 89.0922L72.3999 90.6845L71.363 90.4453L71.7863 88.8743C71.5101 88.8109 71.2347 88.7448 70.96 88.6759L70.5352 90.2542L69.4995 90.0148L69.9286 88.4197C69.6865 88.3623 69.4405 88.3012 69.1896 88.2431L67.8404 87.9314L68.355 86.8326C68.355 86.8326 69.119 87.0209 69.1087 87.0069C69.156 87.021 69.2059 87.0262 69.2555 87.0224C69.3051 87.0185 69.3533 87.0056 69.3975 86.9844C69.4416 86.9631 69.4808 86.9341 69.5128 86.8988C69.5447 86.8635 69.5688 86.8227 69.5837 86.7787L70.2618 84.2617C70.2998 84.2704 70.3369 84.2788 70.3711 84.2869C70.336 84.2741 70.3001 84.2635 70.2635 84.255L70.7471 82.4581C70.7615 82.325 70.719 82.192 70.6287 82.0876C70.5384 81.9833 70.4074 81.9159 70.264 81.8999C70.2804 81.8897 69.5111 81.7266 69.5111 81.7266L69.787 80.7011L71.2171 81.0317L71.2158 81.0366C71.4307 81.0861 71.6522 81.133 71.878 81.1806L72.3029 79.6039L73.3391 79.8431L72.9228 81.3889C73.201 81.4477 73.4809 81.507 73.7536 81.5698L74.1671 80.0342L75.2038 80.2734L74.7792 81.8507C76.088 82.2681 77.0453 82.8939 76.8573 84.0585Z" fill="#347AF0"/>
</svg>
