<svg width="127" height="129" viewBox="0 0 127 129" fill="none" xmlns="http://www.w3.org/2000/svg">
<g clip-path="url(#clip0)">
<path d="M23.8638 20.5399L25.9196 19.7861L26.4596 20.9027L26.7092 23.571L26.2492 23.8877L23.8638 20.5399Z" fill="black"/>
<path d="M33.8523 25.7949L31.5042 27.0849L33.9715 30.5424L34.5469 30.1442L34.9045 27.3998L33.8523 25.7949Z" fill="black"/>
<g opacity="0.05">
<path opacity="0.05" d="M38.7778 9.6875C38.3048 10.367 37.8635 11.1031 37.7275 11.6197L38.1 11.3756C38.0534 10.9916 38.3607 10.3546 38.7778 9.6875Z" fill="black"/>
<path opacity="0.05" d="M40.8951 18.9343L41.154 13.7622C35.3812 17.2427 26.9344 20.4189 26.9344 20.4189L26.5266 21.0329C26.5266 21.0329 34.9827 17.8567 40.7461 14.3762L40.5041 19.2475L40.8951 18.9343Z" fill="black"/>
</g>
<g opacity="0.5">
<path opacity="0.5" d="M25.7836 24.1387L26.2566 23.8114L26.0015 21.0634L25.4447 19.915L23.3274 20.6918L25.7836 24.1387Z" fill="url(#paint0_linear)"/>
<path opacity="0.5" d="M58.0215 0.332636C56.7347 -0.254821 55.772 0.021213 55.0979 0.509581C54.4961 0.940187 54.0262 1.51559 53.7367 2.1764L53.5504 2.64531L52.6789 3.24692L52.3959 2.67185C52.3959 2.67185 49.3103 -2.53741 40.208 7.63516L40.167 7.60331C40.167 7.60331 39.3924 8.50396 38.6866 9.51431L38.586 9.65941L38.5413 9.72488L38.478 9.81866L38.4315 9.88944L38.3607 10.0009L38.2993 10.0965L38.2341 10.2009L38.1875 10.2769L38.1391 10.3566L38.0926 10.4362L38.0441 10.5211L37.9734 10.6485L37.9343 10.7193L37.8914 10.8025L37.8598 10.8662L37.8188 10.9493L37.7928 11.0042C37.7704 11.0537 37.7493 11.1021 37.7294 11.1493L37.7071 11.2041L37.6773 11.282L37.6587 11.3351C37.645 11.3752 37.6326 11.4147 37.6214 11.4536C37.6214 11.4749 37.6084 11.4943 37.6047 11.5138C37.5682 11.638 37.5543 11.7673 37.5637 11.896L25.4447 19.9098L26.0667 21.1945C26.0667 21.1945 34.776 17.9245 40.7126 14.3378L40.4631 19.3542L40.4482 19.6639C40.4482 19.6639 35.0256 23.93 33.614 26.1029L31.1932 27.4318L33.7351 30.9919L34.3273 30.5832L34.6997 27.752L44.6493 20.1947C44.6493 20.1947 46.5356 16.9195 46.5692 14.1786L46.977 15.6738C46.977 15.6738 47.8447 17.99 48.4574 18.082C49.07 18.174 49.0719 16.286 48.6436 15.7251C48.2153 15.1642 48.4164 11.4165 48.4164 11.4165L48.5282 10.6538L50.0849 9.57801L50.1427 9.5267L50.2246 9.99737L50.5374 10.0239V10.0451L50.5523 10.1814L50.7535 13.7539L51.8559 17.7953C51.8559 17.7953 52.7236 20.1116 53.3363 20.2036C53.9489 20.2956 53.9508 18.4076 53.5225 17.8467C53.0942 17.2857 53.2972 13.5398 53.2972 13.5398L53.7516 10.4203V10.3601L53.7609 10.2911L54.6566 10.3654C54.6566 10.3654 55.5877 7.32373 54.029 5.99842L53.746 5.42334L54.327 5.02345L54.4443 4.94382C54.9367 5.40152 55.5981 5.65781 56.2869 5.65781C56.9757 5.65781 57.6371 5.40152 58.1295 4.94382C58.5651 4.98232 59.0009 4.8719 59.3585 4.6324L59.5839 4.47846C59.8263 4.3322 60.0452 4.1534 60.2338 3.94762C60.3921 3.66805 60.014 1.24036 58.0215 0.332636Z" fill="url(#paint1_linear)"/>
</g>
<path d="M40.2229 7.8335C40.2229 7.8335 37.573 10.9123 37.6978 11.9917L25.9214 19.7861L26.5247 21.0336C26.5247 21.0336 34.9808 17.8574 40.7443 14.3769L40.4873 19.5561C40.4873 19.5561 35.2229 23.6913 33.8542 25.8023L34.9064 27.4072L44.5673 20.0692C44.5673 20.0692 47.4332 15.0936 46.057 12.3792L40.2229 7.8335Z" fill="#535461"/>
<path d="M125.099 83.2561C116.617 115.58 82.159 135.255 48.1334 127.193C14.1078 119.132 -6.58459 86.388 1.90318 54.0602C10.391 21.7323 44.8392 2.05605 78.8536 10.1159C112.868 18.1757 133.581 50.923 125.099 83.2561Z" fill="#F7931A"/>
<path d="M91.4995 60.0586C92.764 52.0288 86.3302 47.7131 77.5333 44.8413L80.388 33.9645L73.4197 32.3136L70.6395 42.8949C68.8072 42.4614 66.9264 42.0527 65.053 41.6457L67.8463 30.9848L60.8929 29.3374L58.0364 40.2107C56.5205 39.8833 55.0308 39.5577 53.5876 39.2162V39.1826L43.9844 36.8965L42.1223 43.9743C42.1223 43.9743 47.2916 45.0997 47.1836 45.1704C50.0048 45.8393 50.5151 47.6141 50.4313 49.0208L47.1799 61.4069C47.4262 61.4654 47.6682 61.5393 47.9043 61.6281C47.6715 61.5732 47.4238 61.5131 47.1594 61.4512L42.6027 78.8095C42.2582 79.6234 41.383 80.8461 39.4091 80.3825C39.478 80.4781 34.344 79.181 34.344 79.181L30.912 86.7685L39.9696 88.9183C41.6567 89.32 43.3103 89.7411 44.9379 90.1357L42.0552 101.128L49.016 102.778L51.8726 91.8946C53.7738 92.3847 55.6193 92.8377 57.4256 93.2641L54.5802 104.098L61.5484 105.749L64.431 94.7735C76.3136 96.9092 85.2482 96.0475 89.0117 85.836C92.0414 77.6133 88.8609 72.8712 82.6096 69.7782C87.1495 68.782 90.5852 65.9367 91.4995 60.0586ZM75.5799 81.2708C73.4272 89.4934 58.8576 85.0486 54.1351 83.925L57.9619 69.35C62.6843 70.4789 77.8387 72.696 75.5799 81.2708ZM77.7344 59.9383C75.7698 67.4177 63.6434 63.617 59.7105 62.6862L63.1797 49.4596C67.1144 50.3992 79.7809 52.1385 77.7344 59.9383Z" fill="white"/>
<path d="M50.1836 8.35693L50.489 13.8068L51.5579 17.7297C51.5579 17.7297 52.3996 19.9787 52.9955 20.0672C53.5914 20.1556 53.5932 18.3225 53.1817 17.7775C52.7702 17.2325 52.9675 13.5963 52.9675 13.5963L53.6305 8.96916L50.1836 8.35693Z" fill="#FDA57D"/>
<path d="M49.828 9.27027L49.9826 10.155L54.2916 10.5089C54.2916 10.5089 55.1929 7.55568 53.6808 6.26221L49.828 9.27027Z" fill="#F55F44"/>
<path d="M53.6808 6.27453L52.0887 3.04529C52.0887 3.04529 49.0813 -2.03127 40.1987 7.9272L46.0571 12.3721L49.8485 9.75327L53.6808 6.27453Z" fill="#F55F44"/>
<path d="M54.9357 1.82959L56.3524 3.68174L53.2598 5.81749C53.0441 5.96648 52.7749 6.02793 52.5115 5.98833C52.2481 5.94873 52.012 5.81133 51.8552 5.60634L51.622 5.30146C51.4652 5.09647 51.4006 4.84069 51.4422 4.59039C51.4839 4.34009 51.6285 4.11576 51.8442 3.96677L54.9368 1.83102L54.9357 1.82959Z" fill="#FDA57D"/>
<path opacity="0.05" d="M53.2916 2.9656C53.1704 3.38086 53.1694 3.81951 53.2887 4.23527C53.408 4.65103 53.6432 5.02849 53.9695 5.32781L55.4312 4.31746L54.0141 2.46484L53.2916 2.9656Z" fill="black"/>
<path d="M57.3705 5.47349C58.5127 4.68464 58.7672 3.16721 57.9388 2.08422C57.1104 1.00123 55.5129 0.762784 54.3707 1.55164C53.2285 2.34049 52.974 3.85792 53.8024 4.94091C54.6308 6.0239 56.2283 6.26234 57.3705 5.47349Z" fill="#FDA57D"/>
<path opacity="0.05" d="M54.6881 2.08273L53.2114 3.02054L53.3976 2.56402C53.3976 2.56402 54.6118 -0.444043 57.4423 0.852964C59.3771 1.73769 59.7439 4.09106 59.5968 4.36001C59.3784 4.58574 59.1277 4.78111 58.8519 4.94039C58.4887 5.18499 58.0422 5.29125 57.6005 5.23818C57.1589 5.18511 56.7542 4.97656 56.4665 4.65374C55.9712 4.09283 55.1071 2.93207 55.2654 2.26675C55.1202 2.01549 54.9302 1.91286 54.6863 2.08981L54.6881 2.08273Z" fill="black"/>
<path d="M54.8036 2.00314L53.3269 2.94095L53.5131 2.48443C53.5131 2.48443 54.7273 -0.523632 57.5578 0.773375C59.4926 1.6581 59.8594 4.01147 59.7123 4.28042C59.4939 4.50615 59.2431 4.70152 58.9674 4.8608C58.6042 5.1054 58.1577 5.21166 57.716 5.15859C57.2743 5.10552 56.8697 4.89697 56.582 4.57415C56.0866 4.01324 55.2226 2.85248 55.3809 2.18716C55.2356 1.9359 55.0457 1.83327 54.8017 2.01022L54.8036 2.00314Z" fill="#5A2F32"/>
<path d="M55.3025 2.15879C55.5566 1.98294 55.6878 1.74285 55.5955 1.62253C55.5033 1.50221 55.2226 1.54723 54.9685 1.72309C54.7144 1.89894 54.5832 2.13904 54.6754 2.25936C54.7677 2.37968 55.0484 2.33465 55.3025 2.15879Z" fill="#FDA57D"/>
<path opacity="0.05" d="M49.353 9.68067L50.029 9.13037L50.0364 9.99917L49.8893 9.66475L49.353 9.68067Z" fill="black"/>
<path opacity="0.05" d="M50.2805 10.2041L50.2954 10.3386L53.4034 10.5686L53.422 10.443L50.2805 10.2041Z" fill="black"/>
<path d="M45.45 6.29932L45.7553 11.7492L46.8242 15.6632C46.8242 15.6632 47.6659 17.9122 48.2618 18.0007C48.8577 18.0892 48.8596 16.256 48.448 15.711C48.0365 15.166 48.2302 11.5387 48.2302 11.5387L48.9043 6.91155L45.45 6.29932Z" fill="#FDA57D"/>
<path d="M70.8034 47.9116H70.4794V48.2195H70.8034V47.9116Z" fill="#CCCCCC"/>
<path d="M70.2689 48.375H71.0696C71.1271 48.375 71.184 48.3858 71.2371 48.4066C71.2902 48.4275 71.3384 48.4582 71.3791 48.4968C71.4197 48.5354 71.4519 48.5812 71.4739 48.6317C71.4959 48.6821 71.5072 48.7362 71.5072 48.7908V51.3548H69.8313V48.7908C69.8313 48.7362 69.8426 48.6821 69.8646 48.6317C69.8866 48.5812 69.9188 48.5354 69.9595 48.4968C70.0001 48.4582 70.0483 48.4275 70.1014 48.4066C70.1545 48.3858 70.2114 48.375 70.2689 48.375Z" fill="#535461"/>
<path d="M71.1293 48.1699H70.1554V48.3752H71.1293V48.1699Z" fill="#F7931A"/>
<path d="M71.5072 49.5552H69.8313V50.1709H71.5072V49.5552Z" fill="#F7931A"/>
<path d="M70.8053 47.9629V48.1168C70.7457 48.1168 70.6973 48.0814 70.6973 48.039C70.6973 47.9965 70.7457 47.9629 70.8053 47.9629Z" fill="#E6E6E6"/>
<path opacity="0.05" d="M45.7926 3.64844C45.7926 3.64844 45.0812 5.47274 45.3829 6.09559L45.7926 3.64844Z" fill="black"/>
<path opacity="0.05" d="M45.4649 6.20557L45.463 6.54353L48.8764 7.08852L48.9173 6.8178L45.4649 6.20557Z" fill="black"/>
<path d="M46.2358 3.42574L45.45 6.29932L48.9024 6.91155L49.8149 3.28418L46.2358 3.42574Z" fill="#F55F44"/>
<g opacity="0.5">
<path opacity="0.5" d="M46.1185 13.3789L46.7982 15.8243C46.7982 15.8243 47.6753 18.1246 48.288 18.2113C48.9006 18.298 48.9099 16.4294 48.4742 15.8738C48.2451 15.5819 48.1967 14.4176 48.2004 13.3789H46.1185Z" fill="url(#paint2_linear)"/>
</g>
<path d="M46.1725 13.3789L46.8261 15.773C46.8261 15.773 47.6678 18.0219 48.2637 18.1104C48.8596 18.1989 48.8615 16.3657 48.4499 15.8207C48.2302 15.5341 48.1836 14.3946 48.1874 13.3789H46.1725Z" fill="#FDA57D"/>
<g opacity="0.5">
<path opacity="0.5" d="M53.0849 13.2778H50.3661L50.4033 13.9254L51.5355 17.9633C51.5355 17.9633 52.4275 20.2778 53.0569 20.3698C53.6863 20.4618 53.6882 18.5738 53.2431 18.0146C52.7981 17.4555 53.0215 13.7167 53.0215 13.7167L53.0849 13.2778Z" fill="url(#paint3_linear)"/>
</g>
<path d="M53.0235 13.2778H50.4537L50.4891 13.9078L51.558 17.8306C51.558 17.8306 52.3997 20.0796 52.9956 20.1681C53.5915 20.2565 53.5934 18.4234 53.1818 17.8784C52.7703 17.3334 52.9677 13.6972 52.9677 13.6972L53.0235 13.2778Z" fill="#FDA57D"/>
<path opacity="0.2" d="M70.7625 47.9521L75.4179 47.0674L75.6041 49.1907L70.7625 48.1291V47.9521Z" fill="#535461"/>
<g opacity="0.5">
<path opacity="0.5" d="M63.7384 48.6068L63.8669 48.6599L67.9636 50.3356L73.1833 44.4521C73.1833 44.4521 73.9747 43.6117 73.0325 43.0366C72.0902 42.4615 71.4981 43.9496 71.4981 43.9496L67.4869 48.0441L64.0792 46.4251L64.1332 46.0853L61.0271 44.3796C60.9669 44.2721 60.901 44.1676 60.8297 44.0664L60.8018 43.9709L60.6472 43.8417C60.6174 43.8116 60.5876 43.7833 60.5578 43.7585L61.0718 43.2277C61.4542 43.355 61.8614 43.401 62.2645 43.3622C62.6677 43.3235 63.057 43.201 63.4048 43.0035C63.7527 42.806 64.0506 42.5383 64.2775 42.2193C64.5044 41.9003 64.6547 41.5378 64.7179 41.1574C64.9584 41.201 65.2055 41.201 65.446 41.1574C65.7622 41.0942 66.0577 40.9593 66.3074 40.7643C66.557 40.5693 66.7534 40.3199 66.8799 40.0374C66.8693 40.0564 66.8542 40.0729 66.8357 40.0855C66.8173 40.098 66.7961 40.1064 66.7737 40.1099C66.8137 40.0437 66.8491 39.9752 66.8799 39.9047C66.7737 40.1488 65.7812 39.8126 65.6322 39.7277C65.1779 39.4977 64.9432 39.158 64.7011 38.7404C64.2375 37.9158 63.3809 37.6115 62.4163 37.5389C61.6792 37.4631 60.9337 37.5522 60.2394 37.799C59.8935 37.9247 59.5788 38.1171 59.315 38.3641C59.0512 38.611 58.8441 38.9072 58.7068 39.234C58.6238 39.4583 58.5858 39.6954 58.5951 39.933C58.5793 40.1874 58.6237 40.442 58.7248 40.678C58.826 40.9141 58.9815 41.1256 59.1798 41.2972C59.2137 41.3249 59.2491 41.3509 59.2859 41.3751C59.3064 41.4512 59.3288 41.5255 59.3567 41.5998L59.2208 41.7396L58.3381 42.6491L58.2934 42.6367L48.9956 43.9585V43.9762C48.6865 43.7815 47.2861 43.1056 43.7908 44.0239C42.4705 44.3778 40.2713 44.3336 37.9101 44.1266C36.2602 42.1766 35.195 36.1039 35.195 36.1039L34.7779 34.3857L29.3646 35.5748C29.3646 35.5748 31.8618 36.1056 32.2789 36.7639C32.9139 36.9656 33.3068 41.4724 33.4576 43.5993C30.2156 43.1233 27.5602 42.5783 27.5602 42.5783L25.6179 41.9183L24.2306 46.5436C24.2306 46.5436 25.7576 44.9511 27.1449 44.8255C27.1449 44.8255 34.0833 47.9964 39.2192 47.3363C41.2192 47.0798 43.1521 47.8831 44.7703 48.1291C46.1869 48.3534 47.6178 48.4859 49.0533 48.5254L49.0701 49.9781C49.0701 49.9781 54.7851 49.7446 58.5392 48.6121C58.8241 49.3447 59.0532 49.8737 59.1332 49.9127L59.8148 49.5959L63.6434 54.0744L71.1349 51.1654C71.1349 51.1654 72.2522 50.7691 71.6936 49.8437C71.1349 48.9182 69.8891 49.9764 69.8891 49.9764L64.338 51.8254L61.9954 48.7395L61.9042 48.6192L62.3958 48.3909C62.3958 48.3909 62.3809 48.3219 62.3511 48.2034L63.6434 49.1837L63.7384 48.6068Z" fill="url(#paint4_linear)"/>
</g>
<path d="M59.2096 44.8257L57.4945 43.3146L60.3343 40.3896L62.0494 41.899L59.2096 44.8257Z" fill="#FDA57D"/>
<path opacity="0.05" d="M60.1984 40.5166L58.9452 41.8083C59.0804 42.1713 59.2997 42.5007 59.5869 42.7724C59.8741 43.0441 60.2218 43.2509 60.6044 43.3778L61.9079 42.0277L60.1984 40.5166Z" fill="black"/>
<path d="M60.567 47.3555L67.444 50.1672L72.5259 44.4448C72.5259 44.4448 73.295 43.6273 72.3788 43.0682C71.4626 42.509 70.889 43.9529 70.889 43.9529L66.9785 47.9306L61.9599 45.5489L60.567 47.3555Z" fill="#FDA57D"/>
<path d="M60.2058 44.1016L63.716 46.0285L63.243 49.0489L59.9358 46.5434L60.2058 44.1016Z" fill="#347AF0"/>
<path d="M61.6229 43.3959C63.1141 43.3959 64.323 42.2448 64.323 40.8249C64.323 39.405 63.1141 38.2539 61.6229 38.2539C60.1316 38.2539 58.9227 39.405 58.9227 40.8249C58.9227 42.2448 60.1316 43.3959 61.6229 43.3959Z" fill="#FDA57D"/>
<path d="M59.4033 43.0737L58.0532 42.688L49.0031 43.9744L49.0701 49.8136C49.0701 49.8136 60.0718 49.3641 61.2859 46.6657L60.4759 43.9744L59.4033 43.0737Z" fill="#347AF0"/>
<path opacity="0.05" d="M60.042 46.6215L63.2431 49.0492L63.379 48.0212L60.2059 45.1299L60.042 46.6215Z" fill="black"/>
<path d="M49.0701 44.0362C49.0701 44.0362 47.8559 43.0081 43.9416 44.0362C40.0274 45.0642 28.1486 42.6206 28.1486 42.6206L27.7463 44.8076C27.7463 44.8076 34.4948 47.8918 39.4892 47.2495C41.4333 47 43.3141 47.7803 44.8895 48.021C46.2722 48.2381 47.6691 48.364 49.0701 48.3979V44.0362Z" fill="#4D8AF0"/>
<path d="M28.1485 42.6223L26.2566 41.98L24.9065 46.4779C24.9065 46.4779 26.3962 44.935 27.7407 44.8076L28.1485 42.6223Z" fill="#535461"/>
<path d="M32.7369 36.969L35.5674 36.3267C35.5674 36.3267 36.9175 44.0379 38.9417 44.6802H33.9529C33.9529 44.6802 33.547 37.2255 32.7369 36.969Z" fill="#4D8AF0"/>
<path d="M35.5675 36.3266L35.1634 34.6562L29.899 35.8135C29.899 35.8135 32.3199 36.3284 32.7333 36.9707L35.5675 36.3266Z" fill="#535461"/>
<path opacity="0.05" d="M62.0531 37.8522C61.3362 37.7784 60.6111 37.8651 59.9358 38.1052C59.5995 38.2275 59.2935 38.4147 59.0371 38.655C58.7807 38.8953 58.5794 39.1834 58.4461 39.5013C58.204 40.1454 58.3604 40.9363 58.9079 41.3787C59.0379 41.4952 59.2049 41.5674 59.3828 41.5839C59.6695 41.5946 59.9097 41.3946 60.1276 41.2212C60.5413 40.8968 60.9969 40.6238 61.4833 40.409C61.8967 40.2321 62.4013 40.0905 62.7868 40.3152C62.9612 40.4383 63.1194 40.5809 63.2579 40.7399C63.4811 40.9506 63.7554 41.1059 64.0567 41.192C64.3579 41.2782 64.6769 41.2925 64.9853 41.2337C65.2938 41.1749 65.5823 41.0449 65.8253 40.8551C66.0684 40.6653 66.2585 40.4216 66.3789 40.1454C66.2747 40.3843 65.31 40.0551 65.1648 39.9826C64.7216 39.7596 64.4944 39.4288 64.2672 39.0235C63.824 38.2184 62.9898 37.923 62.0531 37.8522Z" fill="black"/>
<path d="M62.0531 37.7247C61.3362 37.651 60.6111 37.7376 59.9358 37.9778C59.5995 38.1001 59.2935 38.2873 59.0371 38.5276C58.7807 38.7679 58.5794 39.056 58.4461 39.3739C58.204 40.0179 58.3604 40.8089 58.9079 41.2513C59.0379 41.3678 59.2049 41.44 59.3828 41.4565C59.6695 41.4671 59.9097 41.2672 60.1276 41.0938C60.5413 40.7693 60.9969 40.4964 61.4833 40.2816C61.8967 40.1046 62.4013 39.9631 62.7868 40.1878C62.9612 40.3109 63.1194 40.4535 63.2579 40.6125C63.4811 40.8232 63.7554 40.9785 64.0567 41.0646C64.3579 41.1507 64.6769 41.165 64.9853 41.1063C65.2938 41.0475 65.5823 40.9175 65.8253 40.7277C66.0684 40.5379 66.2585 40.2941 66.3789 40.0179C66.2747 40.2568 65.31 39.9277 65.1648 39.8552C64.7216 39.6322 64.4944 39.3013 64.2672 38.8961C63.824 38.091 62.9898 37.7937 62.0531 37.7247Z" fill="black"/>
<path d="M60.9432 40.6122C60.9949 40.4049 60.9485 40.2169 60.8394 40.1923C60.7304 40.1677 60.6 40.3158 60.5482 40.5231C60.4964 40.7304 60.5429 40.9184 60.652 40.943C60.761 40.9676 60.8914 40.8195 60.9432 40.6122Z" fill="#FDA57D"/>
<path opacity="0.05" d="M59.5187 49.4471L59.6099 49.5533L61.6397 48.6173L61.5503 48.5005L59.5187 49.4471Z" fill="black"/>
<path opacity="0.05" d="M63.6639 46.3594L63.3324 48.4703L63.4553 48.5376L63.716 46.3824L63.6639 46.3594Z" fill="black"/>
<path d="M52.9843 40.9521H51.3643V51.3618H52.9843V40.9521Z" fill="#E0E0E0"/>
<path d="M49.9232 12.2993L48.3875 11.8091L44.8986 21.6768L46.4344 22.167L49.9232 12.2993Z" fill="#E0E0E0"/>
<path d="M52.4443 42.1095H51.9043V16.9727L52.4369 16.9992L52.4443 42.1095Z" fill="#E0E0E0"/>
<path d="M58.5187 48.2774L63.243 53.8034L70.5315 50.9723C70.5315 50.9723 71.6116 50.5865 71.0715 49.6876C70.5315 48.7888 69.3174 49.8168 69.3174 49.8168L63.9171 51.6163L60.6322 47.29L58.5187 48.2774Z" fill="#FDA57D"/>
<path d="M56.5615 43.7159C56.5615 43.7159 58.5857 49.6276 58.8557 49.755L62.0214 48.2775C62.0214 48.2775 61.122 44.291 60.1201 43.677C59.1183 43.063 56.6975 43.201 56.5615 43.7159Z" fill="#347AF0"/>
<path opacity="0.05" d="M57.1388 45.374C57.1388 45.374 57.0326 47.6354 57.7086 48.0282L57.1388 45.374Z" fill="black"/>
<path d="M51.908 16.999L49.4723 13.5787L49.7274 12.855L52.4369 16.999H51.908Z" fill="#E0E0E0"/>
<path d="M64.2869 41.7609L63.9348 41.5386L63.3443 42.3831L63.6964 42.6053L64.2869 41.7609Z" fill="black"/>
<path d="M63.7936 41.7211L61.1838 40.0723L61.0663 40.2402L63.6761 41.8891L63.7936 41.7211Z" fill="black"/>
<g opacity="0.7">
<path opacity="0.7" d="M112.524 108.626H105.76V113.376H112.524V108.626Z" fill="url(#paint5_linear)"/>
<g opacity="0.1">
<path opacity="0.1" d="M105.76 109.885C105.76 109.885 108.283 110.164 109.142 110.164C110 110.164 112.524 109.885 112.524 109.885V108.697H105.76V109.885Z" fill="url(#paint6_linear)"/>
</g>
<path opacity="0.7" d="M112.524 109.814C112.524 109.814 110 110.093 109.142 110.093C108.283 110.093 105.76 109.814 105.76 109.814V105.134C105.76 104.282 106.116 103.464 106.751 102.862C107.385 102.259 108.245 101.92 109.142 101.92C110.039 101.92 110.899 102.259 111.533 102.862C112.167 103.464 112.524 104.282 112.524 105.134V109.814Z" fill="url(#paint7_linear)"/>
<path opacity="0.7" d="M109.142 102.83C108.928 102.83 108.722 102.749 108.57 102.605C108.419 102.461 108.334 102.266 108.334 102.062V100.315H109.95V102.062C109.95 102.266 109.865 102.461 109.713 102.605C109.562 102.749 109.356 102.83 109.142 102.83Z" fill="url(#paint8_linear)"/>
<path opacity="0.7" d="M108.187 111.7H105.76V127.347H108.187V111.7Z" fill="url(#paint9_linear)"/>
<path opacity="0.7" d="M112.523 111.7H110.097V127.347H112.523V111.7Z" fill="url(#paint10_linear)"/>
<g opacity="0.1">
<path opacity="0.1" d="M108.334 101.481C108.865 101.605 109.419 101.605 109.95 101.481V100.384H108.334V101.481Z" fill="url(#paint11_linear)"/>
</g>
<path opacity="0.7" d="M109.142 100.873C111.091 100.873 112.671 99.3715 112.671 97.5196C112.671 95.6677 111.091 94.1665 109.142 94.1665C107.193 94.1665 105.613 95.6677 105.613 97.5196C105.613 99.3715 107.193 100.873 109.142 100.873Z" fill="url(#paint12_linear)"/>
<path opacity="0.7" d="M109.142 101.503C111.009 101.503 112.524 100.064 112.524 98.2895C112.524 96.5148 111.009 95.0762 109.142 95.0762C107.274 95.0762 105.76 96.5148 105.76 98.2895C105.76 100.064 107.274 101.503 109.142 101.503Z" fill="url(#paint13_linear)"/>
<g opacity="0.1">
<path opacity="0.1" d="M107.094 96.6774C107.278 96.7744 107.481 96.8346 107.691 96.8544C108.557 96.9666 109.439 96.8724 110.257 96.5801C110.334 96.7378 110.446 96.8777 110.586 96.9898C110.725 97.102 110.889 97.1838 111.066 97.2295C111.419 97.3183 111.784 97.3571 112.149 97.3445C112.23 97.3529 112.311 97.3381 112.382 97.302C112.544 97.1976 112.466 96.9588 112.371 96.796L111.9 95.9838C111.775 95.7366 111.606 95.5116 111.401 95.3185C111.116 95.1049 110.777 94.9664 110.417 94.9168C109.581 94.7586 108.718 94.7859 107.894 94.9964C107.017 95.2176 105.887 95.9838 107.094 96.6774Z" fill="url(#paint14_linear)"/>
</g>
<path opacity="0.7" d="M107.094 96.6086C107.278 96.7055 107.481 96.7658 107.691 96.7855C108.557 96.8978 109.439 96.8035 110.257 96.5112C110.334 96.669 110.446 96.8088 110.586 96.921C110.725 97.0332 110.889 97.115 111.066 97.1606C111.419 97.2495 111.784 97.2882 112.149 97.2756C112.23 97.284 112.311 97.2692 112.382 97.2332C112.544 97.1288 112.466 96.8899 112.371 96.7271L111.9 95.9149C111.775 95.6678 111.606 95.4428 111.401 95.2496C111.116 95.0361 110.777 94.8975 110.417 94.848C109.581 94.6898 108.718 94.717 107.894 94.9276C107.017 95.1488 105.887 95.9132 107.094 96.6086Z" fill="url(#paint15_linear)"/>
<path opacity="0.7" d="M112.486 98.8131C112.649 98.8131 112.781 98.5786 112.781 98.2894C112.781 98.0001 112.649 97.7656 112.486 97.7656C112.324 97.7656 112.192 98.0001 112.192 98.2894C112.192 98.5786 112.324 98.8131 112.486 98.8131Z" fill="url(#paint16_linear)"/>
<path opacity="0.7" d="M105.797 98.8131C105.96 98.8131 106.092 98.5786 106.092 98.2894C106.092 98.0001 105.96 97.7656 105.797 97.7656C105.635 97.7656 105.503 98.0001 105.503 98.2894C105.503 98.5786 105.635 98.8131 105.797 98.8131Z" fill="url(#paint17_linear)"/>
<path opacity="0.7" d="M118.185 94.9363C118.631 94.9363 118.993 94.5925 118.993 94.1683C118.993 93.7442 118.631 93.4004 118.185 93.4004C117.738 93.4004 117.376 93.7442 117.376 94.1683C117.376 94.5925 117.738 94.9363 118.185 94.9363Z" fill="url(#paint18_linear)"/>
<path opacity="0.7" d="M114.298 111.721C114.298 112.455 114.219 113.091 114.061 113.627C113.903 114.164 113.688 114.608 113.416 114.959C113.143 115.311 112.824 115.573 112.456 115.747C112.093 115.917 111.705 116.001 111.29 116.001C110.876 116.001 110.487 115.917 110.124 115.747C109.761 115.573 109.443 115.311 109.171 114.959C108.899 114.608 108.683 114.164 108.526 113.627C108.372 113.091 108.295 112.455 108.295 111.721C108.295 110.987 108.372 110.352 108.526 109.815C108.683 109.278 108.899 108.834 109.171 108.483C109.443 108.132 109.761 107.871 110.124 107.702C110.487 107.528 110.876 107.441 111.29 107.441C111.705 107.441 112.093 107.528 112.456 107.702C112.824 107.871 113.143 108.132 113.416 108.483C113.688 108.834 113.903 109.278 114.061 109.815C114.219 110.352 114.298 110.987 114.298 111.721ZM113.706 111.721C113.706 111.042 113.64 110.462 113.51 109.981C113.38 109.499 113.204 109.107 112.983 108.803C112.766 108.495 112.51 108.27 112.214 108.128C111.922 107.986 111.614 107.915 111.29 107.915C110.967 107.915 110.659 107.986 110.367 108.128C110.075 108.27 109.818 108.495 109.597 108.803C109.376 109.107 109.2 109.499 109.07 109.981C108.94 110.462 108.875 111.042 108.875 111.721C108.875 112.404 108.94 112.986 109.07 113.468C109.2 113.945 109.376 114.338 109.597 114.646C109.818 114.95 110.075 115.173 110.367 115.315C110.659 115.453 110.967 115.522 111.29 115.522C111.614 115.522 111.922 115.453 112.214 115.315C112.51 115.173 112.766 114.95 112.983 114.646C113.204 114.338 113.38 113.945 113.51 113.468C113.64 112.986 113.706 112.404 113.706 111.721ZM114.298 125.721C114.298 126.455 114.219 127.091 114.061 127.627C113.903 128.164 113.688 128.608 113.416 128.959C113.143 129.311 112.824 129.573 112.456 129.747C112.093 129.917 111.705 130.001 111.29 130.001C110.876 130.001 110.487 129.917 110.124 129.747C109.761 129.573 109.443 129.311 109.171 128.959C108.899 128.608 108.683 128.164 108.526 127.627C108.372 127.091 108.295 126.455 108.295 125.721C108.295 124.987 108.372 124.352 108.526 123.815C108.683 123.278 108.899 122.834 109.171 122.483C109.443 122.132 109.761 121.871 110.124 121.702C110.487 121.528 110.876 121.441 111.29 121.441C111.705 121.441 112.093 121.528 112.456 121.702C112.824 121.871 113.143 122.132 113.416 122.483C113.688 122.834 113.903 123.278 114.061 123.815C114.219 124.352 114.298 124.987 114.298 125.721ZM113.706 125.721C113.706 125.042 113.64 124.462 113.51 123.981C113.38 123.499 113.204 123.107 112.983 122.803C112.766 122.495 112.51 122.27 112.214 122.128C111.922 121.986 111.614 121.915 111.29 121.915C110.967 121.915 110.659 121.986 110.367 122.128C110.075 122.27 109.818 122.495 109.597 122.803C109.376 123.107 109.2 123.499 109.07 123.981C108.94 124.462 108.875 125.042 108.875 125.721C108.875 126.404 108.94 126.986 109.07 127.468C109.2 127.945 109.376 128.338 109.597 128.646C109.818 128.95 110.075 129.173 110.367 129.315C110.659 129.453 110.967 129.522 111.29 129.522C111.614 129.522 111.922 129.453 112.214 129.315C112.51 129.173 112.766 128.95 112.983 128.646C113.204 128.338 113.38 127.945 113.51 127.468C113.64 126.986 113.706 126.404 113.706 125.721Z" fill="black"/>
<path opacity="0.7" d="M109.216 99.5458C109.216 99.5458 107.306 100.174 105.835 98.7778C105.835 98.7778 105.954 99.2414 106.159 99.7988C106.49 100.396 107.011 100.878 107.647 101.178C108.283 101.478 109.003 101.58 109.703 101.47C110.404 101.359 111.05 101.042 111.55 100.563C112.051 100.084 112.379 99.4674 112.49 98.8008C112.136 98.9813 109.624 100.13 109.216 99.5458ZM109.144 100.385C108.771 100.385 108.483 100.119 108.483 99.9651C108.483 99.8112 108.779 99.8254 109.144 99.8254C109.509 99.8254 109.805 99.8112 109.805 99.9651C109.805 100.119 109.507 100.385 109.142 100.385H109.144Z" fill="url(#paint19_linear)"/>
<path opacity="0.7" d="M110.939 102.414C110.939 102.414 114.875 100.316 117.302 94.1685L118.479 94.8674C118.479 94.8674 116.531 102.701 111.643 104.507L110.939 102.414Z" fill="url(#paint20_linear)"/>
<path opacity="0.7" d="M100.101 94.9363C100.547 94.9363 100.909 94.5925 100.909 94.1683C100.909 93.7442 100.547 93.4004 100.101 93.4004C99.6547 93.4004 99.2928 93.7442 99.2928 94.1683C99.2928 94.5925 99.6547 94.9363 100.101 94.9363Z" fill="url(#paint21_linear)"/>
<path opacity="0.7" d="M107.345 102.414C107.345 102.414 103.408 100.316 100.982 94.1685L99.8124 94.8656C99.8124 94.8656 101.76 102.699 106.648 104.506L107.345 102.414Z" fill="url(#paint22_linear)"/>
<path opacity="0.7" d="M108.039 127.907H105.907V127.802C105.907 127.534 106.019 127.276 106.219 127.086C106.419 126.897 106.69 126.79 106.972 126.79C107.255 126.79 107.526 126.897 107.726 127.086C107.925 127.276 108.038 127.534 108.038 127.802L108.039 127.907Z" fill="url(#paint23_linear)"/>
<path opacity="0.7" d="M112.377 127.907H110.241V127.802C110.241 127.534 110.353 127.276 110.553 127.086C110.752 126.897 111.023 126.79 111.306 126.79C111.588 126.79 111.859 126.897 112.059 127.086C112.259 127.276 112.371 127.534 112.371 127.802L112.377 127.907Z" fill="url(#paint24_linear)"/>
</g>
<path d="M112.427 108.685H105.859V113.298H112.427V108.685Z" fill="#4D8AF0"/>
<path opacity="0.1" d="M105.859 109.906C105.859 109.906 108.309 110.177 109.142 110.177C109.974 110.177 112.425 109.906 112.425 109.906V108.754H105.859V109.906Z" fill="black"/>
<path d="M112.425 109.839C112.425 109.839 109.974 110.11 109.142 110.11C108.309 110.11 105.859 109.839 105.859 109.839V105.295C105.859 104.467 106.205 103.674 106.82 103.089C107.436 102.504 108.271 102.175 109.142 102.175C110.012 102.175 110.848 102.504 111.463 103.089C112.079 103.674 112.425 104.467 112.425 105.295V109.839Z" fill="#347AF0"/>
<path d="M108.356 100.614H109.926V102.309C109.926 102.507 109.843 102.697 109.696 102.837C109.548 102.977 109.348 103.056 109.14 103.056C108.932 103.056 108.732 102.977 108.584 102.837C108.437 102.697 108.354 102.507 108.354 102.309V100.614H108.356Z" fill="#FDB797"/>
<path d="M108.214 111.67H105.859V126.863H108.214V111.67Z" fill="#4D8AF0"/>
<path d="M112.425 111.67H110.069V126.863H112.425V111.67Z" fill="#4D8AF0"/>
<path opacity="0.1" d="M108.358 101.745C108.873 101.866 109.412 101.866 109.928 101.745V100.684H108.358V101.745Z" fill="black"/>
<path d="M109.142 101.158C111.034 101.158 112.568 99.6999 112.568 97.9018C112.568 96.1037 111.034 94.646 109.142 94.646C107.249 94.646 105.715 96.1037 105.715 97.9018C105.715 99.6999 107.249 101.158 109.142 101.158Z" fill="#814E4D"/>
<path d="M109.142 101.766C110.955 101.766 112.425 100.37 112.425 98.6469C112.425 96.924 110.955 95.5273 109.142 95.5273C107.329 95.5273 105.859 96.924 105.859 98.6469C105.859 100.37 107.329 101.766 109.142 101.766Z" fill="#FDB797"/>
<path opacity="0.1" d="M107.153 97.0823C107.333 97.1746 107.53 97.2312 107.734 97.2486C108.575 97.3579 109.431 97.2667 110.226 96.9832C110.3 97.1366 110.409 97.2727 110.545 97.3818C110.681 97.4909 110.84 97.5705 111.011 97.6149C111.354 97.701 111.709 97.7386 112.063 97.7264C112.142 97.735 112.221 97.7208 112.291 97.6857C112.449 97.5848 112.373 97.353 112.28 97.1938L111.821 96.4064C111.7 96.1664 111.536 95.948 111.337 95.7605C111.06 95.5533 110.731 95.419 110.382 95.3712C109.57 95.2177 108.731 95.2443 107.931 95.4491C107.075 95.6649 105.98 96.4081 107.153 97.0823Z" fill="black"/>
<path d="M107.153 97.0154C107.333 97.1077 107.53 97.1643 107.734 97.1817C108.575 97.291 109.431 97.1998 110.226 96.9163C110.3 97.0697 110.409 97.2058 110.545 97.3149C110.681 97.424 110.84 97.5036 111.011 97.548C111.354 97.6341 111.709 97.6717 112.063 97.6595C112.142 97.6681 112.221 97.6539 112.291 97.6188C112.449 97.5179 112.373 97.2861 112.28 97.1269L111.821 96.3394C111.7 96.0995 111.536 95.8811 111.337 95.6936C111.06 95.4864 110.731 95.3521 110.382 95.3043C109.57 95.1508 108.731 95.1775 107.931 95.3822C107.075 95.5981 105.98 96.3412 107.153 97.0154Z" fill="#814E4D"/>
<path d="M112.389 99.1548C112.547 99.1548 112.674 98.9275 112.674 98.647C112.674 98.3665 112.547 98.1392 112.389 98.1392C112.232 98.1392 112.104 98.3665 112.104 98.647C112.104 98.9275 112.232 99.1548 112.389 99.1548Z" fill="#FDB797"/>
<path d="M105.894 99.1548C106.052 99.1548 106.179 98.9275 106.179 98.647C106.179 98.3665 106.052 98.1392 105.894 98.1392C105.737 98.1392 105.609 98.3665 105.609 98.647C105.609 98.9275 105.737 99.1548 105.894 99.1548Z" fill="#FDB797"/>
<path d="M117.922 95.3928C118.356 95.3928 118.708 95.0585 118.708 94.6461C118.708 94.2337 118.356 93.8994 117.922 93.8994C117.488 93.8994 117.136 94.2337 117.136 94.6461C117.136 95.0585 117.488 95.3928 117.922 95.3928Z" fill="#FDB797"/>
<path d="M109.214 99.8678C109.214 99.8678 107.352 100.478 105.931 99.1211C105.931 99.1211 106.047 99.5705 106.246 100.114C106.568 100.693 107.074 101.161 107.691 101.451C108.309 101.742 109.007 101.841 109.686 101.734C110.366 101.626 110.993 101.318 111.479 100.854C111.964 100.389 112.283 99.7908 112.391 99.1441C112.05 99.321 109.611 100.434 109.214 99.8678ZM109.144 100.682C108.788 100.682 108.501 100.425 108.501 100.275C108.501 100.124 108.788 100.139 109.144 100.139C109.499 100.139 109.786 100.124 109.786 100.275C109.786 100.425 109.496 100.682 109.142 100.682H109.144Z" fill="#814E4D"/>
<path d="M110.887 102.653C110.887 102.653 114.71 100.614 117.065 94.646L118.207 95.3237C118.207 95.3237 116.315 102.932 111.568 104.684L110.887 102.653Z" fill="#347AF0"/>
<path d="M100.362 95.3928C100.796 95.3928 101.147 95.0585 101.147 94.6461C101.147 94.2337 100.796 93.8994 100.362 93.8994C99.9276 93.8994 99.5758 94.2337 99.5758 94.6461C99.5758 95.0585 99.9276 95.3928 100.362 95.3928Z" fill="#FDB797"/>
<path d="M107.397 102.653C107.397 102.653 103.574 100.614 101.218 94.646L100.077 95.3237C100.077 95.3237 101.969 102.932 106.715 104.684L107.397 102.653Z" fill="#347AF0"/>
<path d="M107.036 126.321C107.31 126.321 107.574 126.424 107.768 126.609C107.962 126.793 108.071 127.044 108.071 127.305V127.4H106.002V127.299C106.004 127.04 106.113 126.791 106.307 126.608C106.5 126.424 106.762 126.321 107.036 126.321Z" fill="#333333"/>
<path d="M111.248 126.321C111.522 126.321 111.786 126.424 111.98 126.609C112.174 126.793 112.283 127.044 112.283 127.305V127.4H110.213V127.299C110.214 127.039 110.324 126.79 110.518 126.607C110.712 126.424 110.974 126.321 111.248 126.321Z" fill="#333333"/>
</g>
<defs>
<linearGradient id="paint0_linear" x1="24.7911" y1="24.1387" x2="24.7911" y2="19.915" gradientUnits="userSpaceOnUse">
<stop stop-color="#808080" stop-opacity="0.25"/>
<stop offset="0.54" stop-color="#808080" stop-opacity="0.12"/>
<stop offset="1" stop-color="#808080" stop-opacity="0.1"/>
</linearGradient>
<linearGradient id="paint1_linear" x1="17058.3" y1="8077.29" x2="17058.3" y2="2649.15" gradientUnits="userSpaceOnUse">
<stop stop-color="#808080" stop-opacity="0.25"/>
<stop offset="0.54" stop-color="#808080" stop-opacity="0.12"/>
<stop offset="1" stop-color="#808080" stop-opacity="0.1"/>
</linearGradient>
<linearGradient id="paint2_linear" x1="1412.46" y1="924.396" x2="1412.46" y2="792.296" gradientUnits="userSpaceOnUse">
<stop stop-color="#808080" stop-opacity="0.25"/>
<stop offset="0.54" stop-color="#808080" stop-opacity="0.12"/>
<stop offset="1" stop-color="#808080" stop-opacity="0.1"/>
</linearGradient>
<linearGradient id="paint3_linear" x1="1766.7" y1="1436.65" x2="1766.7" y2="1152.2" gradientUnits="userSpaceOnUse">
<stop stop-color="#808080" stop-opacity="0.25"/>
<stop offset="0.54" stop-color="#808080" stop-opacity="0.12"/>
<stop offset="1" stop-color="#808080" stop-opacity="0.1"/>
</linearGradient>
<linearGradient id="paint4_linear" x1="25711.3" y1="7734.03" x2="25711.3" y2="5543.47" gradientUnits="userSpaceOnUse">
<stop stop-color="#808080" stop-opacity="0.25"/>
<stop offset="0.54" stop-color="#808080" stop-opacity="0.12"/>
<stop offset="1" stop-color="#808080" stop-opacity="0.1"/>
</linearGradient>
<linearGradient id="paint5_linear" x1="3946.96" y1="3087.89" x2="4192.61" y2="3087.89" gradientUnits="userSpaceOnUse">
<stop stop-color="#808080" stop-opacity="0.25"/>
<stop offset="0.54" stop-color="#808080" stop-opacity="0.12"/>
<stop offset="1" stop-color="#808080" stop-opacity="0.1"/>
</linearGradient>
<linearGradient id="paint6_linear" x1="5698.68" y1="1141.26" x2="5944.33" y2="1141.26" gradientUnits="userSpaceOnUse">
<stop stop-color="#808080" stop-opacity="0.25"/>
<stop offset="0.54" stop-color="#808080" stop-opacity="0.12"/>
<stop offset="1" stop-color="#808080" stop-opacity="0.1"/>
</linearGradient>
<linearGradient id="paint7_linear" x1="5698.68" y1="5697.05" x2="5944.33" y2="5697.05" gradientUnits="userSpaceOnUse">
<stop stop-color="#808080" stop-opacity="0.25"/>
<stop offset="0.54" stop-color="#808080" stop-opacity="0.12"/>
<stop offset="1" stop-color="#808080" stop-opacity="0.1"/>
</linearGradient>
<linearGradient id="paint8_linear" x1="1467.31" y1="1758.59" x2="1481.34" y2="1758.59" gradientUnits="userSpaceOnUse">
<stop stop-color="#808080" stop-opacity="0.25"/>
<stop offset="0.54" stop-color="#808080" stop-opacity="0.12"/>
<stop offset="1" stop-color="#808080" stop-opacity="0.1"/>
</linearGradient>
<linearGradient id="paint9_linear" x1="1483.81" y1="10681.1" x2="1515.43" y2="10681.1" gradientUnits="userSpaceOnUse">
<stop stop-color="#808080" stop-opacity="0.25"/>
<stop offset="0.54" stop-color="#808080" stop-opacity="0.12"/>
<stop offset="1" stop-color="#808080" stop-opacity="0.1"/>
</linearGradient>
<linearGradient id="paint10_linear" x1="1544.66" y1="10681.1" x2="1576.28" y2="10681.1" gradientUnits="userSpaceOnUse">
<stop stop-color="#808080" stop-opacity="0.25"/>
<stop offset="0.54" stop-color="#808080" stop-opacity="0.12"/>
<stop offset="1" stop-color="#808080" stop-opacity="0.1"/>
</linearGradient>
<linearGradient id="paint11_linear" x1="1467.31" y1="881.291" x2="1481.34" y2="881.291" gradientUnits="userSpaceOnUse">
<stop stop-color="#808080" stop-opacity="0.25"/>
<stop offset="0.54" stop-color="#808080" stop-opacity="0.12"/>
<stop offset="1" stop-color="#808080" stop-opacity="0.1"/>
</linearGradient>
<linearGradient id="paint12_linear" x1="4108.34" y1="3790.16" x2="4375.82" y2="3790.16" gradientUnits="userSpaceOnUse">
<stop stop-color="#808080" stop-opacity="0.25"/>
<stop offset="0.54" stop-color="#808080" stop-opacity="0.12"/>
<stop offset="1" stop-color="#808080" stop-opacity="0.1"/>
</linearGradient>
<linearGradient id="paint13_linear" x1="3946.96" y1="3664.96" x2="4192.61" y2="3664.96" gradientUnits="userSpaceOnUse">
<stop stop-color="#808080" stop-opacity="0.25"/>
<stop offset="0.54" stop-color="#808080" stop-opacity="0.12"/>
<stop offset="1" stop-color="#808080" stop-opacity="0.1"/>
</linearGradient>
<linearGradient id="paint14_linear" x1="5017.58" y1="1685.66" x2="5205.03" y2="1685.66" gradientUnits="userSpaceOnUse">
<stop stop-color="#808080" stop-opacity="0.25"/>
<stop offset="0.54" stop-color="#808080" stop-opacity="0.12"/>
<stop offset="1" stop-color="#808080" stop-opacity="0.1"/>
</linearGradient>
<linearGradient id="paint15_linear" x1="5017.58" y1="1684.57" x2="5205.03" y2="1684.57" gradientUnits="userSpaceOnUse">
<stop stop-color="#808080" stop-opacity="0.25"/>
<stop offset="0.54" stop-color="#808080" stop-opacity="0.12"/>
<stop offset="1" stop-color="#808080" stop-opacity="0.1"/>
</linearGradient>
<linearGradient id="paint16_linear" x1="466.72" y1="679.64" x2="468.58" y2="679.64" gradientUnits="userSpaceOnUse">
<stop stop-color="#808080" stop-opacity="0.25"/>
<stop offset="0.54" stop-color="#808080" stop-opacity="0.12"/>
<stop offset="1" stop-color="#808080" stop-opacity="0.1"/>
</linearGradient>
<linearGradient id="paint17_linear" x1="438.89" y1="679.64" x2="440.749" y2="679.64" gradientUnits="userSpaceOnUse">
<stop stop-color="#808080" stop-opacity="0.25"/>
<stop offset="0.54" stop-color="#808080" stop-opacity="0.12"/>
<stop offset="1" stop-color="#808080" stop-opacity="0.1"/>
</linearGradient>
<linearGradient id="paint18_linear" x1="1136.18" y1="910.781" x2="1150.23" y2="910.781" gradientUnits="userSpaceOnUse">
<stop stop-color="#808080" stop-opacity="0.25"/>
<stop offset="0.54" stop-color="#808080" stop-opacity="0.12"/>
<stop offset="1" stop-color="#808080" stop-opacity="0.1"/>
</linearGradient>
<linearGradient id="paint19_linear" x1="5612.11" y1="1880.48" x2="5849.64" y2="1880.48" gradientUnits="userSpaceOnUse">
<stop stop-color="#808080" stop-opacity="0.25"/>
<stop offset="0.54" stop-color="#808080" stop-opacity="0.12"/>
<stop offset="1" stop-color="#808080" stop-opacity="0.1"/>
</linearGradient>
<linearGradient id="paint20_linear" x1="6555.7" y1="6782.19" x2="6860.99" y2="6782.19" gradientUnits="userSpaceOnUse">
<stop stop-color="#808080" stop-opacity="0.25"/>
<stop offset="0.54" stop-color="#808080" stop-opacity="0.12"/>
<stop offset="1" stop-color="#808080" stop-opacity="0.1"/>
</linearGradient>
<linearGradient id="paint21_linear" x1="961.134" y1="910.781" x2="975.18" y2="910.781" gradientUnits="userSpaceOnUse">
<stop stop-color="#808080" stop-opacity="0.25"/>
<stop offset="0.54" stop-color="#808080" stop-opacity="0.12"/>
<stop offset="1" stop-color="#808080" stop-opacity="0.1"/>
</linearGradient>
<linearGradient id="paint22_linear" x1="6087.91" y1="6781.06" x2="6392.83" y2="6781.06" gradientUnits="userSpaceOnUse">
<stop stop-color="#808080" stop-opacity="0.25"/>
<stop offset="0.54" stop-color="#808080" stop-opacity="0.12"/>
<stop offset="1" stop-color="#808080" stop-opacity="0.1"/>
</linearGradient>
<linearGradient id="paint23_linear" x1="1870.79" y1="1025.79" x2="1895.2" y2="1025.79" gradientUnits="userSpaceOnUse">
<stop stop-color="#808080" stop-opacity="0.25"/>
<stop offset="0.54" stop-color="#808080" stop-opacity="0.12"/>
<stop offset="1" stop-color="#808080" stop-opacity="0.1"/>
</linearGradient>
<linearGradient id="paint24_linear" x1="1927.94" y1="1025.79" x2="1952.39" y2="1025.79" gradientUnits="userSpaceOnUse">
<stop stop-color="#808080" stop-opacity="0.25"/>
<stop offset="0.54" stop-color="#808080" stop-opacity="0.12"/>
<stop offset="1" stop-color="#808080" stop-opacity="0.1"/>
</linearGradient>
<clipPath id="clip0">
<rect width="127" height="129" fill="white"/>
</clipPath>
</defs>
</svg>
