<svg width="44" height="119" viewBox="0 0 44 119" fill="none" xmlns="http://www.w3.org/2000/svg">
<path d="M34.7266 54.0962L29.6723 18.5814L16.0364 16.71L8.94409 53.8395L34.7266 54.0962Z" fill="#FAB9AF"/>
<path d="M24.187 109.126L24.2017 113.129C24.2046 113.943 24.0939 114.754 23.873 115.538L23.5251 116.771C23.2395 117.783 24.0003 118.788 25.0522 118.784C27.7785 118.774 32.4384 118.782 33.6396 118.784C33.8361 118.784 34.0286 118.651 34.0458 118.455C34.1472 117.286 30.7713 116.504 28.2287 115.52C26.2921 114.77 26.3955 111.289 26.6341 109.256C26.7242 108.488 26.0839 107.835 25.3133 107.899C24.6749 107.952 24.185 108.486 24.187 109.126Z" fill="#0B4870"/>
<path d="M5.44836 108.003L4.0688 112.583C4.00806 112.785 3.91694 112.977 3.79887 113.153L2.82103 114.605C2.20032 115.527 2.64711 116.786 3.7102 117.11C3.7102 117.11 5.68156 117.804 7.71415 118.471C9.79476 119.155 12.4113 118.584 12.4113 118.035C12.4113 116.815 11.2743 117.783 9.36953 116.509C8.73119 116.083 8.07227 115.636 7.48488 115.175C5.84567 113.888 7.27716 110.63 8.28048 108.795C8.64154 108.135 8.25843 107.316 7.5226 107.159L7.0474 107.058C6.34978 106.909 5.65412 107.32 5.44836 108.003Z" fill="#0B4870"/>
<path d="M19.5369 54.4397L34.6469 53.1714C34.6469 53.1714 36.1685 64.1687 32.3497 84.0768C30.5586 93.4123 26.8266 111.252 26.8266 111.252C25.9017 111.657 24.961 111.759 24.0033 111.52C24.0033 111.52 23.7196 103.65 23.5467 95.1759C23.3806 87.0485 23.3356 78.364 22.8177 75.5226C21.7595 69.7188 19.5369 54.4397 19.5369 54.4397Z" fill="#0E538C"/>
<path opacity="0.07" d="M19.5369 54.4397L34.6469 53.1714C34.6469 53.1714 36.1685 64.1687 32.3497 84.0768C30.5586 93.4123 26.8266 111.252 26.8266 111.252C25.9017 111.657 24.961 111.759 24.0033 111.52C24.0033 111.52 23.7196 103.65 23.5467 95.1759C23.3806 87.0485 23.3356 78.364 22.8177 75.5226C21.7595 69.7188 19.5369 54.4397 19.5369 54.4397Z" fill="black"/>
<path d="M22.6559 54.6313C24.2158 63.0037 27.7009 75.5231 20.9878 87.2846C14.2747 99.0457 7.22457 111.273 7.22457 111.273C6.31629 111.31 5.49228 110.981 4.72656 110.4C4.72656 110.4 5.90379 105.068 7.60522 98.8419C9.55159 91.7197 12.0173 83.3419 11.3147 78.974C9.99838 70.7877 8.48606 59.8855 8.94461 54.5906C9.40266 49.2968 21.8354 50.2291 22.6559 54.6313Z" fill="#0E538C"/>
<path opacity="0.07" d="M22.6559 54.6313C24.2158 63.0037 27.7009 75.5231 20.9878 87.2846C14.2747 99.0457 7.22457 111.273 7.22457 111.273C6.31629 111.31 5.49228 110.981 4.72656 110.4C4.72656 110.4 5.90379 105.068 7.60522 98.8419C9.55159 91.7197 12.0173 83.3419 11.3147 78.974C9.99838 70.7877 8.48606 59.8855 8.94461 54.5906C9.40266 49.2968 21.8354 50.2291 22.6559 54.6313Z" fill="black"/>
<path d="M35.2489 53.1919L29.6729 18.5819L16.037 16.7104L8.70858 53.2565C8.57092 53.9434 9.01575 54.6101 9.70406 54.7409C12.2427 55.222 18.3665 56.2273 25.2197 56.2273C30.3357 56.2273 33.211 55.2323 34.519 54.6028C35.0486 54.3466 35.3425 53.7724 35.2489 53.1919Z" fill="white"/>
<path d="M20.2967 18.8654C20.2967 21.3585 19.8435 23.828 18.9921 26.1712C17.3259 30.7557 14.8269 39.424 16.3118 47.0616C18.4502 58.0594 21.1995 62.5052 17.6355 65.0679C14.0715 67.631 7.23591 63.3542 7.03897 61.9286C6.84154 60.503 8.36905 42.99 10.1004 35.4029C11.8317 27.8158 16.6802 16.9082 16.6802 16.9082L18.7344 17.1277C19.6226 17.2227 20.2967 17.9723 20.2967 18.8654Z" fill="#FFBE55"/>
<path d="M25.9731 18.0737C25.9731 18.0737 28.3379 23.1849 27.5134 30.528C26.6884 37.8711 24.7773 60.2321 31.4595 63.6085C33.5754 64.678 38.4078 59.9426 38.4078 58.1863C38.4078 56.4295 36.795 50.5492 35.267 45.203C33.739 39.8567 30.056 18.6337 30.056 18.6337L25.9731 18.0737Z" fill="#FFBE55"/>
<path d="M24.0694 2.2334C21.0262 2.2334 19.8906 4.39974 19.8328 8.40712C19.8112 9.90769 20.4863 11.395 21.0296 12.3445C21.4333 13.0499 21.544 13.8852 21.3137 14.6646L20.6455 16.9265C20.1914 19.0247 21.1878 20.1755 22.6585 20.5934C23.387 20.8001 24.2605 20.6399 24.8964 20.2289C25.6528 19.74 25.715 18.6887 25.5744 17.7985L25.402 17.1538C25.1693 16.2852 25.6729 15.3485 26.5518 15.1565C28.895 14.644 29.2305 12.2014 29.8586 8.40761C30.5126 4.45314 27.1127 2.2334 24.0694 2.2334Z" fill="#FAB9AF"/>
<path d="M23.9572 0.00569699C21.8467 0.00569699 18.3606 1.19762 18.801 4.24334L19.19 6.39743C19.3453 7.25769 20.063 7.90191 20.934 7.97638C21.0148 8.27424 21.2848 8.48098 21.5934 8.48098C21.9706 8.48098 22.2763 8.17528 22.2763 7.79805C22.2763 6.82658 22.9583 5.99767 23.9062 5.78456C25.0688 5.52345 26.3107 5.46123 27.6104 5.81053C29.9942 6.45083 32.8239 2.5037 32.8278 2.46402C32.8278 2.46402 31.6207 3.38797 29.2329 2.51105C26.8456 1.63413 27.8411 -0.112369 23.9572 0.00569699Z" fill="#0E538C"/>
<path d="M21.5102 8.48115C21.5102 9.41049 21.1643 10.1635 20.2697 10.1635C19.3752 10.1635 18.801 8.8858 18.801 7.95646C18.801 7.02712 19.3752 6.79883 20.2697 6.79883C21.1643 6.79883 21.5102 7.55181 21.5102 8.48115Z" fill="#FAB9AF"/>
<path d="M16.8997 7.0618C16.8997 7.0618 16.5768 7.82409 15.8067 8.89648C15.4231 9.43488 14.9249 10.0477 14.3135 10.7042C13.7104 11.37 13.029 12.1151 12.2745 12.9122C11.526 13.7146 10.7 14.5656 9.86961 15.4984C9.0309 16.4218 8.20591 17.4457 7.43579 18.5412C6.68428 19.6459 5.95482 20.8104 5.4076 22.0003C5.1406 22.5936 4.90937 23.1932 4.77612 23.7503C4.63748 24.3034 4.59828 24.8241 4.66883 25.1396C4.7041 25.2954 4.75603 25.3973 4.80306 25.4556C4.85744 25.509 4.91084 25.5306 4.976 25.5747C5.10974 25.653 5.40123 25.8132 5.87839 25.9068L6.14588 25.9734C6.18654 25.9822 6.24386 26.0004 6.2708 26.0018L6.34821 26.0053L6.65636 26.0288L7.01643 26.0445L7.36083 26.0214C7.80909 25.9592 8.20003 25.826 8.5361 25.6369C9.20531 25.2547 9.69423 24.7766 10.2934 24.2945C10.8788 23.7983 11.526 23.2295 12.1168 22.5848C13.2984 21.2934 14.3111 19.8364 15.0684 18.7396C15.4604 18.1629 15.7685 17.7103 15.9787 17.4016C16.2021 17.0778 16.3383 16.8975 16.3383 16.8975L17.0236 16.9196C17.0236 16.9196 17.1407 17.1106 17.3279 17.4835C17.4998 17.8553 17.7438 18.4133 17.9334 19.1521C18.3101 20.6169 18.5497 22.8689 17.6375 25.5389C17.174 26.8567 16.4201 28.3005 15.1272 29.5473C14.4776 30.1626 13.6952 30.7181 12.7968 31.1355C11.9017 31.5573 10.8915 31.8243 9.8652 31.9316C7.80223 32.1378 5.72359 31.6754 4.07115 30.8994C3.63465 30.7039 3.12711 30.459 2.65289 30.1498C2.17034 29.8196 1.68338 29.4429 1.25667 28.9197C0.829969 28.4107 0.484589 27.7934 0.270993 27.1521C0.0652344 26.5099 -0.00727086 25.8706 0.000567544 25.2837C0.0294717 24.1064 0.339579 23.1541 0.687898 22.3114C1.0421 21.4673 1.4688 20.7379 1.91118 20.051C2.79692 18.6837 3.75517 17.4991 4.72321 16.4081C5.67998 15.3112 6.62892 14.3001 7.51956 13.3394C8.41951 12.388 9.28271 11.5076 10.1185 10.7375C10.9503 9.96348 11.7499 9.29722 12.4754 8.72795C13.1921 8.14889 13.8682 7.70308 14.459 7.3773C15.6377 6.72181 16.4612 6.53467 16.4612 6.53467L16.8997 7.0618Z" fill="#FFBE55"/>
<path d="M40.5805 56.2548C40.5805 56.2548 40.123 55.6512 39.7467 54.5563C39.5468 54.01 39.4136 53.3354 39.2514 52.5634C39.101 51.7898 38.9467 50.9163 38.8164 49.959C38.6773 49.0032 38.543 47.9656 38.3441 46.8776C38.1438 45.79 37.8729 44.6529 37.597 43.483C37.3124 42.3146 36.9866 41.1158 36.6334 39.9234C36.4659 39.3213 36.2601 38.7398 36.0823 38.1466C35.8843 37.567 35.7021 37.0159 35.4679 36.3912C35.2509 35.8009 35.0167 35.2086 34.7845 34.6276C34.5327 34.0529 34.2824 33.4847 34.0115 32.9374C33.478 31.8386 32.9146 30.8059 32.4482 29.805C31.9715 28.8061 31.5688 27.8425 31.1847 26.9205C30.7879 26.0078 30.4087 25.1417 30.0261 24.3397C29.642 23.5402 29.2771 22.7877 28.9219 22.1175C28.5672 21.4483 28.2493 20.8354 27.9666 20.3318C27.6829 19.8081 27.46 19.3971 27.3077 19.1164C27.1514 18.8283 27.0725 18.6613 27.0725 18.6613L27.4115 18.1807C27.4115 18.1807 27.5943 18.2042 27.9279 18.2737C28.0993 18.3026 28.2997 18.3556 28.5344 18.4241C28.771 18.4903 29.0473 18.5652 29.3398 18.6784C29.9345 18.891 30.6395 19.2011 31.4013 19.6464C32.1606 20.0923 32.9915 20.663 33.8003 21.3964C34.6101 22.1263 35.4263 22.9969 36.1553 24.0041C36.8916 25.0045 37.5588 26.1332 38.0463 27.3624C38.5543 28.5852 38.8683 29.9055 39.1446 31.2228C39.4013 32.523 39.662 33.8438 39.9226 35.165C40.0441 35.7857 40.1666 36.4931 40.2822 37.1643C40.3758 37.8316 40.4674 38.5003 40.5311 39.1518C40.6756 40.4594 40.7706 41.7336 40.8666 42.9628C40.9749 44.1895 41.0396 45.375 41.1444 46.4915C41.2497 47.608 41.3864 48.6564 41.4864 49.6279C41.5956 50.5979 41.651 51.4919 41.6789 52.2861C41.697 53.0817 41.7142 53.7744 41.6338 54.3549C41.4986 55.5126 41.165 56.1979 41.165 56.1979L40.5805 56.2548Z" fill="#FFBE55"/>
<path d="M20.6308 6.70782C19.8131 7.12375 19.0386 7.6308 18.6976 7.76209C18.5556 7.81696 18.1308 7.84782 18.0083 7.86546C17.6487 7.9169 17.0839 7.93992 16.8061 8.1741L15.6215 9.13871C15.0567 9.6144 14.3987 9.7021 13.9231 9.13773C13.4077 8.52634 13.6957 7.80863 14.3625 7.36772L15.1801 6.67892C15.7141 6.3257 16.0375 5.76624 16.3843 5.22832C17.0898 4.13389 18.4199 3.42892 19.5393 2.96302C20.2418 2.67055 21.1765 3.09138 22.39 3.71943C22.9862 4.02807 23.8186 4.68454 22.9911 4.86041C22.2979 5.00787 20.3991 4.17798 19.2517 5.87156C19.1954 5.95485 19.066 6.17873 19.1425 6.27524C19.3707 6.5633 20.038 6.08908 20.4559 5.96758C21.0423 5.79661 21.4675 5.95044 21.5763 6.17187C21.6929 6.40605 21.2147 6.41045 20.6308 6.70782Z" fill="#FAB9AF"/>
<path d="M39.5203 60.261C39.5384 59.3434 39.4556 58.4219 39.5007 58.0594C39.5193 57.908 39.6917 57.5191 39.7344 57.403C39.8583 57.0615 40.1042 56.5525 40.0283 56.1968L39.7353 54.6977C39.5815 53.9756 39.8142 53.3534 40.5363 53.2001C41.3182 53.0335 41.8159 53.6253 41.8909 54.4214L42.1133 55.4674C42.1736 56.1047 42.5145 56.6534 42.8256 57.2129C43.4586 58.3509 43.4542 59.8559 43.3376 61.063C43.2646 61.8204 42.4533 62.447 41.328 63.2215C40.7749 63.6022 39.8039 64.0269 40.0381 63.2146C40.2345 62.5337 41.8605 61.2497 40.9067 59.4395C40.8597 59.3503 40.723 59.1308 40.602 59.1529C40.2399 59.2185 40.3443 60.0308 40.2546 60.4565C40.1292 61.0542 39.7931 61.3569 39.5467 61.3491C39.2861 61.3398 39.5075 60.916 39.5203 60.261Z" fill="#FAB9AF"/>
</svg>
