<svg width="193" height="123" viewBox="0 0 193 123" fill="none" xmlns="http://www.w3.org/2000/svg">
<g clip-path="url(#clip0)">
<path d="M94.1192 121.632C94.0099 121.544 93.8963 121.448 93.816 121.373C93.6609 121.231 93.5526 121.059 93.5017 120.874H93.5819L93.6198 120.732C94.2232 118.417 94.0846 116.012 93.2179 113.755C92.3511 111.498 90.7862 109.467 88.6778 107.862C88.6869 107.852 88.6944 107.841 88.7001 107.829C89.7995 105.097 89.8679 102.154 88.8963 99.3895C89.8827 98.3575 90.7668 97.2616 91.54 96.1123C94.2663 94.3908 97.0973 91.8998 97.9689 88.6631C98.0679 88.3122 98.1423 87.9569 98.1918 87.5989C98.4148 87.4148 98.7313 87.0153 98.3969 86.288C98.3695 86.229 98.3367 86.1718 98.2988 86.1168C98.2877 86.1002 98.2743 86.0837 98.2609 86.0689C98.237 86.0365 98.2109 86.0052 98.1829 85.975L98.1316 85.9272C98.1056 85.9033 98.078 85.8806 98.0492 85.859L97.9912 85.8185L97.902 85.767L97.8396 85.7357L97.7438 85.697L97.6836 85.6749L97.5766 85.6455L97.5231 85.6326C97.4726 85.6215 97.422 85.613 97.3715 85.6068C97.0316 85.5743 96.6872 85.6025 96.3617 85.6897C96.3617 85.6897 95.5592 86.8385 95.8735 87.2767C95.6305 87.5308 94.9819 88.2102 94.0902 89.0829C94.0989 88.3516 94.01 87.6218 93.8249 86.9066C93.7401 86.5532 93.6307 86.204 93.4972 85.8609C93.6154 85.6179 93.6979 85.1465 93.0291 84.5979C92.975 84.5532 92.9169 84.512 92.8553 84.4745L92.7973 84.4432C92.7592 84.4219 92.7198 84.4022 92.6791 84.3843L92.61 84.3585C92.5744 84.3456 92.5365 84.3328 92.5008 84.3235L92.4295 84.307L92.3225 84.2886H92.2511H92.1442H92.0773L91.9636 84.2978H91.9079C91.8558 84.3051 91.8053 84.315 91.7563 84.3272C91.4304 84.4135 91.1309 84.5567 90.878 84.747C90.878 84.747 90.722 86.0671 91.2257 86.3598C90.9917 87.1165 89.8125 90.9571 88.252 94.087C87.7293 94.4604 87.1808 94.8083 86.6092 95.1291V94.8456C86.6125 94.7935 86.6125 94.7412 86.6092 94.6891C86.6026 94.639 86.593 94.5892 86.5802 94.54L86.6092 94.5271L86.7295 94.4718L86.9034 94.3835L87.0149 94.3245C87.0981 94.2767 87.1783 94.227 87.2556 94.1754L87.347 94.111C87.4027 94.0723 87.454 94.0318 87.5075 93.9913L87.5833 93.9029C87.6472 93.8489 87.7089 93.7925 87.7683 93.7335L87.833 93.6691C87.8894 93.6114 87.9429 93.55 87.9935 93.485L88.0581 93.4058C88.1042 93.3469 88.148 93.2855 88.1896 93.2217L88.2298 93.1628C88.281 93.0836 88.3278 93.0026 88.3724 92.9198L88.4081 92.8461C88.4408 92.7798 88.4705 92.7117 88.4972 92.6418C88.4972 92.6178 88.5173 92.5939 88.5262 92.57C88.5597 92.4816 88.5886 92.3858 88.6109 92.2975C88.6109 92.2791 88.6109 92.2606 88.6221 92.2422C88.6399 92.1637 88.6548 92.0845 88.6667 92.0047C88.6667 91.9771 88.6667 91.9513 88.6667 91.9237C88.6667 91.8261 88.6845 91.7286 88.6845 91.6273C88.6847 91.0713 88.5112 90.5247 88.1807 90.0402L88.3657 89.9997L88.5017 89.9648C88.553 89.95 88.5775 89.9371 88.5708 89.9279C88.475 89.8211 88.3769 89.7199 88.2766 89.6205L88.1785 89.5284C88.1094 89.4621 88.038 89.3977 87.9556 89.3443L87.8419 89.2486C87.7705 89.1915 87.6992 89.1344 87.619 89.081L87.5075 88.9982C87.4183 88.9337 87.3292 88.8748 87.2378 88.8141L87.1798 88.7754C87.0706 88.7091 86.9569 88.6465 86.8521 88.5913L86.7273 88.5287C86.656 88.4919 86.5824 88.4569 86.5044 88.4237L86.3595 88.3611L86.1566 88.2801L86.0073 88.2249C85.936 88.201 85.8624 88.177 85.7844 88.1568L85.6484 88.1163C85.5392 88.0868 85.4255 88.061 85.3207 88.0371L85.1513 88.0058L84.9707 87.9745L84.788 87.9506L84.6208 87.934L84.4335 87.9211H84.2708H84.0835C83.9795 87.9211 83.8762 87.9254 83.7737 87.934C81.3484 88.0979 79.2262 89.8469 79.2262 92.6252V94.9339H83.0158V95.9797C82.3345 96.2395 81.7575 96.655 81.353 97.177C80.9485 97.699 80.7334 98.3057 80.7331 98.9255V107.831L77.5521 120.038H77.5365V120.071L76.9124 122.369L81.6404 122.993C81.6944 122.975 81.7392 122.943 81.7666 122.9C81.794 122.858 81.8022 122.809 81.7897 122.763C81.781 122.699 81.7623 122.638 81.734 122.578C81.6583 122.427 81.5681 122.28 81.4643 122.14C81.2971 121.903 81.0987 121.649 80.9649 121.419C80.8958 121.301 80.8442 121.178 80.8111 121.05C80.7951 120.985 80.7846 120.918 80.7799 120.851L84.2596 111.407H84.244L84.3265 111.184C84.3265 111.184 88.767 112.756 89.8994 115.899C90.8245 118.447 90.2494 120.098 89.9997 120.632H89.9841V120.664C89.9351 120.765 89.8994 120.822 89.8994 120.822H89.9841V122.551H94.7835C95.149 122.398 94.5918 122.013 94.1192 121.632Z" fill="url(#paint0_linear)"/>
<path d="M86.1835 102.989C86.1835 102.989 94.4625 95.7994 91.7563 88.8896L89.5851 89.2579C89.5851 89.2579 86.6716 99.384 83.5664 100.837C80.4612 102.289 86.1835 102.989 86.1835 102.989Z" fill="#347AF0"/>
<path opacity="0.05" d="M86.1835 102.989C86.1835 102.989 94.4625 95.7994 91.7563 88.8896L89.5851 89.2579C89.5851 89.2579 86.6716 99.384 83.5664 100.837C80.4612 102.289 86.1835 102.989 86.1835 102.989Z" fill="black"/>
<path opacity="0.2" d="M91.4263 89.0495L91.7875 88.9888C94.4848 95.8985 86.2146 103.088 86.2146 103.088L85.9604 103.053C86.9145 102.188 93.9431 95.4935 91.4263 89.0495Z" fill="white"/>
<path d="M91.6584 89.0698C91.6584 89.0698 92.2603 88.4512 91.3173 87.6761C90.3744 86.901 89.2197 87.8197 89.2197 87.8197C89.2197 87.8197 89.0547 89.195 89.6098 89.4123C90.1649 89.6295 91.6584 89.0698 91.6584 89.0698Z" fill="#985454"/>
<path opacity="0.2" d="M91.4153 89.1161C91.4153 89.1161 92.0171 88.4975 91.0742 87.7224C90.9475 87.6098 90.7904 87.5236 90.6157 87.4708C90.4409 87.418 90.2536 87.4001 90.0688 87.4186C90.2853 87.3598 90.5177 87.3533 90.7385 87.3999C90.9592 87.4466 91.1593 87.5444 91.3149 87.6819C92.2579 88.457 91.656 89.0756 91.656 89.0756C91.2115 89.2398 90.7465 89.3633 90.2695 89.4438C90.6618 89.3611 91.045 89.2515 91.4153 89.1161Z" fill="white"/>
<path d="M178.094 0H11.4825C8.09686 0 5.35229 2.26682 5.35229 5.06309V84.7469C5.35229 87.5432 8.09686 89.81 11.4825 89.81H178.094C181.479 89.81 184.224 87.5432 184.224 84.7469V5.06309C184.224 2.26682 181.479 0 178.094 0Z" fill="url(#paint1_linear)"/>
<path d="M175.492 0.915039H13.5132C10.1276 0.915039 7.38306 3.18186 7.38306 5.97813V82.3995C7.38306 85.1958 10.1276 87.4626 13.5132 87.4626H175.492C178.878 87.4626 181.623 85.1958 181.623 82.3995V5.97813C181.623 3.18186 178.878 0.915039 175.492 0.915039Z" fill="white"/>
<path d="M26.0678 14.501H20.9897V26.4094H26.0678V14.501Z" fill="#E0E0E0"/>
<path d="M32.5658 14.501H27.4878V26.4094H32.5658V14.501Z" fill="#E0E0E0"/>
<path d="M39.0636 14.501H33.9856V26.4094H39.0636V14.501Z" fill="#E0E0E0"/>
<path d="M50.4369 14.501H45.3589V26.4094H50.4369V14.501Z" fill="#E0E0E0"/>
<path d="M56.9349 14.501H51.8569V26.4094H56.9349V14.501Z" fill="#E0E0E0"/>
<path d="M63.4327 14.501H58.3547V26.4094H63.4327V14.501Z" fill="#E0E0E0"/>
<path d="M74.8058 14.501H69.7278V26.4094H74.8058V14.501Z" fill="#E0E0E0"/>
<path d="M81.3038 14.501H76.2258V26.4094H81.3038V14.501Z" fill="#E0E0E0"/>
<path d="M87.8019 14.501H82.7239V26.4094H87.8019V14.501Z" fill="#E0E0E0"/>
<path d="M99.1749 14.501H94.0969V26.4094H99.1749V14.501Z" fill="#E0E0E0"/>
<path d="M105.673 14.501H100.595V26.4094H105.673V14.501Z" fill="#E0E0E0"/>
<path d="M112.171 14.501H107.093V26.4094H112.171V14.501Z" fill="#E0E0E0"/>
<path d="M65.2607 74.5474H20.9897V79.9142H65.2607V74.5474Z" fill="#BDBDBD"/>
<path d="M97.7528 65.4907H20.9897V70.8576H97.7528V65.4907Z" fill="#E0E0E0"/>
<g opacity="0.2">
<path opacity="0.2" d="M5.15592 80.9157L5.17598 80.8604C5.17598 80.8604 4.92854 80.831 5.15592 80.9157Z" fill="url(#paint2_linear)"/>
</g>
<g opacity="0.2">
<path opacity="0.2" d="M28.1587 84.2959C28.1353 84.2328 28.1063 84.1713 28.0718 84.1118C28.0718 84.0934 28.0473 84.0768 28.0361 84.0584C28.0138 84.023 27.9893 83.9885 27.9626 83.9553C27.947 83.9369 27.9291 83.9203 27.9135 83.9019C27.8884 83.875 27.8616 83.8492 27.8333 83.8246L27.7753 83.7785C27.7464 83.7564 27.7174 83.7362 27.6862 83.7178L27.6237 83.6809L27.5257 83.6331L27.4632 83.6055L27.3518 83.5668L27.2961 83.5484C27.2426 83.5337 27.1898 83.5214 27.1378 83.5116C26.7824 83.4559 26.4168 83.4641 26.0656 83.5355C26.0656 83.5355 25.0424 84.7819 25.4369 85.2293L25.3077 85.1962C25.3077 85.1962 17.7085 92.1925 13.4218 93.4997C13.3118 93.4383 13.1982 93.3806 13.0808 93.3266V92.0176C13.0843 91.963 13.0843 91.9083 13.0808 91.8537C13.0736 91.8011 13.0632 91.7489 13.0496 91.6972L13.0808 91.6825L13.2078 91.6236L13.3928 91.5315L13.511 91.4689C13.5987 91.4186 13.6841 91.3658 13.7673 91.3106L13.8632 91.2424C13.9211 91.2019 13.9769 91.1596 14.0326 91.1154L14.1307 91.0362C14.1991 90.9785 14.2644 90.9172 14.3269 90.8521L14.396 90.7822C14.4554 90.722 14.5119 90.6606 14.5654 90.598L14.6345 90.5134C14.6835 90.452 14.7303 90.3906 14.7749 90.3292L14.8173 90.2666C14.8708 90.1838 14.922 90.0973 14.9666 90.0089L15.0045 89.9316C15.0387 89.8604 15.0706 89.7886 15.1004 89.7162C15.1004 89.6904 15.1204 89.6664 15.1316 89.6407C15.1672 89.5468 15.1962 89.4565 15.2207 89.3534C15.2207 89.335 15.2207 89.3148 15.2341 89.2945C15.2534 89.2123 15.269 89.1288 15.2809 89.0441C15.2809 89.0165 15.2809 88.9871 15.2809 88.9595C15.2921 88.8563 15.301 88.7514 15.301 88.6465C15.3023 87.8616 14.9764 87.1003 14.3781 86.4905C14.7036 86.0707 14.9153 85.824 14.9153 85.824C14.7192 85.7135 14.5275 85.6104 14.3358 85.5147L14.1508 85.4245C14.0237 85.3619 13.8944 85.2993 13.7696 85.2404L13.5466 85.1465C13.433 85.0968 13.3237 85.0489 13.2056 85.0029L12.9827 84.92C12.8734 84.8795 12.7598 84.839 12.6594 84.804L12.4365 84.7341C12.3295 84.6991 12.2136 84.6678 12.1155 84.6383L11.9149 84.5831C11.8057 84.5536 11.692 84.5297 11.5872 84.5058L11.4089 84.4653C11.2863 84.4413 11.1659 84.4192 11.0455 84.4008L10.9163 84.3787C10.7535 84.3548 10.5908 84.3364 10.4303 84.3235C9.43547 84.2362 8.43021 84.363 7.51234 84.6917C7.56138 83.727 7.75754 82.9334 8.16771 82.4419L8.06739 82.4142L8.03173 82.4419C8.03173 82.4419 7.91135 82.464 7.72633 82.4916C7.66712 82.5702 7.61425 82.652 7.56807 82.7364C7.65006 82.3956 7.80804 82.0704 8.03396 81.7772L7.93365 81.7496C8.07854 81.6281 8.60239 81.096 7.89798 80.227C7.09326 79.2309 5.61756 80.0061 5.61756 80.0061C5.50312 80.3342 5.42845 80.671 5.39464 81.0113C5.28096 80.9745 5.20293 80.945 5.14943 80.9229C4.44282 82.9815 4.05777 85.1062 4.00365 87.2454C1.3465 90.3624 0.245302 94.9634 0.0313034 95.9557L0.0156977 96.0349C9.36184e-05 96.1067 -0.0065918 96.1454 -0.0065918 96.1454L6.90378 96.2779C6.90378 96.2982 6.90378 96.3166 6.90378 96.3368V105.373L1.86144 114.155C1.86144 114.155 3.76736 114.212 6.66526 114.523L5.86945 119.222L5.60418 120.54H10.3924C10.9252 119.662 8.26356 119.222 8.26356 119.222H8.20337L9.24216 114.838C9.70136 114.902 10.1732 114.972 10.6577 115.048C11.3688 115.161 12.0895 115.229 12.8133 115.249C13.4125 115.266 14.0125 115.245 14.6077 115.184C14.9577 117.561 14.4985 118.981 14.4093 119.224H14.3804L14.1151 120.542H18.9033C19.367 119.776 17.4031 119.344 16.8971 119.253L16.9194 119.124C17.1662 117.642 17.2297 116.142 17.1088 114.649C17.7248 114.442 18.299 114.159 18.8119 113.809L18.8788 113.761L18.8988 113.745L15.3322 105.484C16.0009 103.145 13.6782 100.697 14.9176 99.4612C16.157 98.2258 15.3968 96.6664 15.2609 96.3994C18.6046 95.1917 25.379 92.1649 27.2782 86.9232C27.4176 86.5546 27.5307 86.1796 27.6171 85.8001C27.6171 85.8001 28.5756 85.4429 28.1587 84.2959Z" fill="url(#paint3_linear)"/>
</g>
<path d="M5.91616 82.4511C5.91616 82.4511 2.28487 91.909 8.36822 97.1451L10.127 96.0404C10.127 96.0404 6.52917 85.7173 8.5421 83.2925C4.99329 82.3038 5.91616 82.4511 5.91616 82.4511Z" fill="#FF5252"/>
<path d="M8.42635 83.285C8.42635 83.285 9.1642 82.7768 8.42635 81.8618C7.6885 80.9467 6.33541 81.6593 6.33541 81.6593C6.33541 81.6593 5.84276 82.9793 6.33541 83.285C6.82805 83.5906 8.42635 83.285 8.42635 83.285Z" fill="#F6B9AD"/>
<path d="M11.2906 95.479H11.5871C12.4563 95.479 13.1609 94.897 13.1609 94.1792V92.5627C13.1609 91.8448 12.4563 91.2628 11.5871 91.2628H11.2906C10.4215 91.2628 9.71685 91.8448 9.71685 92.5627V94.1792C9.71685 94.897 10.4215 95.479 11.2906 95.479Z" fill="#F6B9AD"/>
<path opacity="0.2" d="M9.88633 96.6422C9.88633 96.6422 6.33307 86.4461 8.26797 83.9385C8.43962 83.9127 8.54884 83.8925 8.54884 83.8925L8.58005 83.8667L8.67145 83.8925C6.66521 86.3172 10.2564 96.6404 10.2564 96.6404L8.49757 97.7451L8.34376 97.6088L9.88633 96.6422Z" fill="white"/>
<path d="M11.3776 92.7354C13.484 92.7354 15.1916 91.325 15.1916 89.5852C15.1916 87.8454 13.484 86.4351 11.3776 86.4351C9.2711 86.4351 7.56348 87.8454 7.56348 89.5852C7.56348 91.325 9.2711 92.7354 11.3776 92.7354Z" fill="#F6B9AD"/>
<path opacity="0.2" d="M12.7307 94.0558V92.6842C12.7302 92.5839 12.7167 92.4839 12.6906 92.3859C13.434 92.0694 14.0309 91.5597 14.3893 90.9355C14.7476 90.3113 14.8476 89.607 14.6737 88.9313C14.4999 88.2555 14.0619 87.6457 13.4273 87.1957C12.7926 86.7457 11.9964 86.4805 11.1614 86.4409H11.3843C12.2371 86.4436 13.0642 86.6822 13.7335 87.1186C14.4028 87.5551 14.8757 88.1642 15.0767 88.8487C15.2776 89.5332 15.1951 90.2536 14.8421 90.8948C14.4892 91.5359 13.8863 92.061 13.1297 92.3859C13.1559 92.4839 13.1693 92.5839 13.1698 92.6842V94.0558C13.1717 94.258 13.121 94.4582 13.021 94.6428C12.9211 94.8274 12.7744 94.9922 12.5907 95.1259C12.4071 95.2596 12.1908 95.3592 11.9565 95.4179C11.7222 95.4766 11.4754 95.493 11.2327 95.4661C11.6466 95.4203 12.0264 95.2522 12.3018 94.9929C12.5772 94.7336 12.7296 94.4007 12.7307 94.0558Z" fill="white"/>
<path d="M7.50342 105.283C7.50342 105.283 14.8596 105.969 15.1316 105.283C16.0099 103.06 13.6559 100.667 14.8373 99.4959C16.0589 98.2863 15.1316 96.6477 15.1316 96.6477C15.1316 96.234 15.0329 95.8244 14.8412 95.4422C14.6496 95.06 14.3686 94.7127 14.0145 94.4202C13.6603 94.1277 13.2398 93.8957 12.7771 93.7374C12.3143 93.579 11.8184 93.4976 11.3175 93.4976C10.8166 93.4976 10.3207 93.579 9.85791 93.7374C9.39517 93.8957 8.97471 94.1277 8.62054 94.4202C8.26637 94.7127 7.98542 95.06 7.79375 95.4422C7.60207 95.8244 7.50342 96.234 7.50342 96.6477V105.283Z" fill="#FF5252"/>
<path opacity="0.2" d="M14.8461 99.4959C16.0677 98.2863 15.1403 96.6477 15.1403 96.6477C15.1403 96.234 15.0417 95.8244 14.85 95.4422C14.6583 95.06 14.3774 94.7127 14.0232 94.4202C13.6691 94.1277 13.2486 93.8957 12.7858 93.7374C12.3231 93.579 11.8271 93.4976 11.3263 93.4976C11.2438 93.4976 11.1635 93.4976 11.0811 93.5086C12.0472 93.5596 12.9536 93.9125 13.6161 94.4956C14.2785 95.0786 14.6474 95.8481 14.6477 96.6477C14.6477 96.6477 15.575 98.2863 14.3535 99.4959C13.1698 100.669 15.5238 103.062 14.6477 105.283C14.563 105.494 13.8051 105.575 12.7975 105.586C14.0414 105.597 15.04 105.527 15.1359 105.283C16.0275 103.06 13.6646 100.667 14.8461 99.4959Z" fill="white"/>
<path d="M13.5755 105.082C16.2661 108.227 17.4476 112.975 16.6807 117.545L16.6584 117.681H14.3602C14.3602 117.681 15.0713 115.954 14.3602 112.905C13.923 111.079 12.6846 109.451 10.8827 108.333L8.67139 117.681H6.53809L8.67139 105.082H13.5755Z" fill="#F6B9AD"/>
<path d="M26.5047 86.962C26.5047 86.962 27.3963 86.6545 27.0084 85.6014C26.6206 84.5483 25.0802 84.9018 25.0802 84.9018C25.0802 84.9018 24.1417 86.0451 24.5029 86.4557C24.864 86.8663 26.5047 86.962 26.5047 86.962Z" fill="#F6B9AD"/>
<path d="M13.4508 97.1545C13.4508 97.1545 24.8774 94.0964 26.5047 86.962L24.387 86.4263C24.387 86.4263 15.9764 94.1811 12.4187 94.2363C8.86097 94.2916 13.4508 97.1545 13.4508 97.1545Z" fill="#FF5252"/>
<path opacity="0.2" d="M26.1078 86.9692L26.46 87.0595C24.8417 94.1956 13.4128 97.2538 13.4128 97.2538L13.21 97.123C14.5541 96.7327 24.5987 93.6249 26.1078 86.9692Z" fill="white"/>
<g opacity="0.2">
<path opacity="0.2" d="M10.3947 108.332L8.18115 117.679H8.67157L10.8205 108.604C10.6842 108.507 10.5421 108.416 10.3947 108.332Z" fill="white"/>
<path opacity="0.2" d="M13.5756 105.082H13.0874C15.778 108.227 16.9594 112.975 16.1926 117.545L16.1703 117.681H16.6585L16.6808 117.545C17.4432 112.975 16.2506 108.225 13.5756 105.082Z" fill="white"/>
</g>
<path opacity="0.2" d="M26.2617 86.9066C26.2617 86.9066 27.1534 86.5991 26.7655 85.546C26.7196 85.397 26.6316 85.2591 26.5088 85.1436C26.386 85.0281 26.2318 84.9382 26.0589 84.8813C26.283 84.9149 26.4908 85.0007 26.6579 85.1285C26.8249 85.2564 26.9443 85.421 27.0018 85.6031C27.383 86.6562 26.498 86.9636 26.498 86.9636C26.0126 86.9328 25.5327 86.858 25.0669 86.7409C25.4589 86.8234 25.8586 86.8788 26.2617 86.9066Z" fill="white"/>
<path d="M7.50321 104.938L2.87549 113.004C5.58056 113.116 8.27268 113.385 10.9316 113.811C16.0587 114.617 18.4996 112.601 18.4996 112.601L15.1938 104.94L7.50321 104.938Z" fill="#263238"/>
<path d="M8.73389 117.643C8.73389 117.643 11.186 118.046 10.6866 118.852H6.29297L6.53817 117.643H8.73389Z" fill="#FF5252"/>
<path d="M16.5447 117.643C16.5447 117.643 18.9967 118.046 18.4974 118.852H14.1038L14.349 117.643H16.5447Z" fill="#FF5252"/>
<path d="M14.8372 86.9951C14.8372 86.9951 8.97672 93.8496 11.6628 96.6646L1.16577 96.4621C1.16577 96.4621 4.09488 80.947 14.8372 86.9951Z" fill="#FCCC63"/>
<path opacity="0.2" d="M14.8371 86.9949C13.3235 86.1425 11.966 85.719 10.7489 85.6196C11.7733 85.8857 12.7412 86.282 13.6178 86.7943C13.6178 86.7943 7.75957 93.6488 10.4435 96.473L1.20364 96.2889C1.17912 96.4031 1.16797 96.473 1.16797 96.473L11.665 96.6756C8.97669 93.8494 14.8371 86.9949 14.8371 86.9949Z" fill="white"/>
<path opacity="0.2" d="M15.1917 104.938H14.4673L17.7731 112.599C17.7731 112.599 16.1949 113.899 12.9158 113.993C16.692 114.093 18.5043 112.599 18.5043 112.599L15.1917 104.938Z" fill="white"/>
<path opacity="0.2" d="M8.73379 117.643H8.24561C8.24561 117.643 10.6977 118.046 10.1983 118.852H10.6776C11.1747 118.046 8.73379 117.643 8.73379 117.643Z" fill="white"/>
<path opacity="0.2" d="M16.5448 117.643H16.0566C16.0566 117.643 18.5087 118.046 18.0094 118.852H18.4976C18.9858 118.046 16.5448 117.643 16.5448 117.643Z" fill="white"/>
<g opacity="0.2">
<path opacity="0.2" d="M183.823 83.4601L183.845 83.5043C184.023 83.4086 183.823 83.4601 183.823 83.4601Z" fill="url(#paint4_linear)"/>
</g>
<g opacity="0.2">
<path opacity="0.2" d="M186.629 117.285L190.501 116.365L189.679 114.435L189.667 114.408H189.654L185.338 104.066L184.224 96.324C184.21 96.2256 184.19 96.1279 184.164 96.0312C187.688 91.0455 184.164 84.1063 183.849 83.5024C183.809 83.5245 183.747 83.554 183.658 83.5945C183.588 83.3172 183.485 83.0465 183.35 82.7862C183.35 82.7862 182.046 82.267 181.502 83.1544C181.027 83.9259 181.518 84.3217 181.654 84.4101L181.576 84.4414C181.796 84.6643 181.963 84.919 182.071 85.1926C182.022 85.1284 181.968 85.0669 181.91 85.0084C181.754 85.0084 181.651 84.9919 181.651 84.9919L181.62 84.9716L181.542 85.0029C182.035 85.4687 182.309 86.3433 182.434 87.4129C182.267 87.2613 182.084 87.1221 181.888 86.9969C181.035 86.4674 179.974 86.2181 178.912 86.2972L178.718 86.3156C178.608 86.3279 178.499 86.3445 178.392 86.3653L178.312 86.3801L178.176 86.4095L178.02 86.45L177.909 86.4813L177.717 86.5439L177.646 86.5697C177.568 86.5992 177.49 86.6305 177.423 86.6636C177.172 86.7964 176.906 86.9069 176.627 86.9932C176.589 87.0024 176.549 87.0079 176.511 87.0153C176.189 87.0658 175.856 87.0215 175.57 86.8901L175.474 86.8422C175.438 86.8222 175.402 86.8007 175.367 86.7778C175.348 86.8511 175.348 86.9272 175.367 87.0005C175.411 87.1752 175.536 87.3288 175.715 87.4277C175.765 87.4561 175.819 87.4796 175.876 87.4976C175.96 87.5244 176.051 87.5363 176.141 87.5326C176.172 87.5315 176.202 87.5284 176.232 87.5234L176.21 87.5345C176.157 87.5621 176.103 87.5879 176.047 87.6099H176.036C175.976 87.6339 175.916 87.656 175.856 87.6762C175.547 87.7738 175.215 87.8104 174.886 87.783L174.779 87.772C174.725 87.772 174.672 87.7591 174.621 87.748C174.641 87.7766 174.664 87.8042 174.688 87.8309L174.712 87.8548L174.763 87.9064L174.792 87.9321L174.848 87.9782L174.879 88.0021L174.946 88.0463L174.973 88.0629L175.071 88.1163L175.104 88.131L175.176 88.1623L175.223 88.1788L175.285 88.201L175.336 88.2157L175.399 88.2322L175.45 88.2451L175.521 88.258L175.608 88.2709H175.673H175.735H175.909H175.974H176.027H176.09C176.213 88.25 176.332 88.2134 176.442 88.1623C176.373 88.1973 176.301 88.2286 176.219 88.2599L176.112 88.3041L176.001 88.3482L175.891 88.3887L175.778 88.4274L175.668 88.4624L175.55 88.4974L175.441 88.5268L175.316 88.5581L175.211 88.5821L175.075 88.6097L174.977 88.6281L174.821 88.652L174.739 88.6631L174.503 88.6888C174.641 88.7075 174.774 88.7495 174.893 88.8122C174.968 88.8466 175.049 88.8726 175.133 88.8895C175.171 88.8915 175.208 88.8915 175.245 88.8895H175.383H175.474L175.593 88.8766H175.682H175.789C176.013 88.8733 176.236 88.9091 176.442 88.9816C176.551 89.0241 176.651 89.0807 176.738 89.1491C176.712 89.197 176.685 89.2467 176.66 89.2964C176.636 89.3461 176.62 89.3829 176.602 89.4253C176.567 89.5124 176.536 89.6008 176.509 89.6904C176.416 90.0147 176.392 90.35 176.44 90.6809C176.44 90.7417 176.46 90.8025 176.473 90.8651L176.484 90.9148C176.496 90.9626 176.51 91.0099 176.524 91.0565V91.0934C176.544 91.151 176.565 91.2081 176.587 91.2646L176.602 91.2977C176.622 91.3444 176.643 91.3904 176.665 91.4358L176.685 91.4763C176.742 91.5858 176.808 91.6922 176.881 91.7948L176.903 91.8261C176.938 91.8728 176.973 91.9182 177.01 91.9624V91.9753C177.053 92.0256 177.098 92.0747 177.144 92.1225V92.1336C177.187 92.1778 177.232 92.2207 177.278 92.2625L177.293 92.2772C177.394 92.3682 177.502 92.4537 177.617 92.5331C177.914 92.7368 178.25 92.898 178.611 93.01C178.608 93.0541 178.608 93.0984 178.611 93.1425C178.608 93.1879 178.608 93.2334 178.611 93.2788L178.762 94.3356C178.694 94.3748 178.627 94.416 178.562 94.4589C175.363 93.6157 169.681 85.9769 169.681 85.9769L169.572 85.9879C169.973 85.6712 169.362 84.5298 169.362 84.5298C169.082 84.4258 168.778 84.3742 168.47 84.3788H168.41H168.384H168.337H168.308H168.263H168.232H168.19H168.158L168.114 84.3898H168.085L168.038 84.4064H168.014L167.944 84.4359L167.88 84.469L167.857 84.4819L167.813 84.5095L167.788 84.5261L167.75 84.5555L167.726 84.5758L167.69 84.6071L167.666 84.6292L167.63 84.666L167.608 84.6899L167.572 84.736L167.554 84.758C167.536 84.782 167.521 84.8059 167.503 84.8317C166.959 85.7154 167.686 86.1076 167.686 86.1076C167.689 86.427 167.714 86.7461 167.762 87.0631C168.557 92.9676 176.854 96.7916 177.278 96.9831C177.16 97.3679 176.206 100.772 178.392 104.688C178.399 104.698 178.406 104.706 178.415 104.714C176.781 106.288 175.674 108.187 175.201 110.223C174.728 112.258 174.907 114.361 175.72 116.322L175.769 116.442H175.84C175.837 116.47 175.833 116.497 175.827 116.525C175.814 116.574 175.797 116.623 175.775 116.67C175.738 116.752 175.688 116.83 175.628 116.902C175.564 116.981 175.486 117.062 175.405 117.145L175.321 117.232C174.977 117.574 174.632 117.907 174.937 118L175.16 117.977L179.146 117.653L178.923 116.151H178.997C178.997 116.151 178.961 116.107 178.903 116.022V115.995H178.89C178.604 115.551 177.9 114.163 178.388 111.87C178.99 109.041 182.655 107.297 182.655 107.297L182.753 107.481H182.739L186.941 115.398C186.941 115.429 186.941 115.462 186.941 115.497C186.939 115.577 186.927 115.656 186.908 115.733C186.893 115.795 186.874 115.857 186.85 115.917C186.709 116.254 186.44 116.654 186.339 116.954C186.325 116.994 186.314 117.035 186.306 117.077C186.295 117.124 186.295 117.172 186.306 117.219C186.314 117.248 186.333 117.275 186.359 117.297C186.385 117.318 186.417 117.333 186.453 117.34L186.507 117.328L186.622 117.3L186.629 117.285ZM182.117 94.0318C182.036 94.0036 181.953 93.9784 181.87 93.9563L181.729 92.9676C181.718 92.8921 181.699 92.8175 181.672 92.7448C181.917 92.616 182.142 92.4619 182.34 92.2864C182.273 92.9197 182.193 93.5126 182.117 94.0318Z" fill="url(#paint5_linear)"/>
</g>
<path d="M167.773 87.0373C167.773 87.0373 166.968 86.6046 167.57 85.6252C168.172 84.6457 169.618 85.2201 169.618 85.2201C169.618 85.2201 170.287 86.485 169.841 86.8348C169.396 87.1846 167.773 87.0373 167.773 87.0373Z" fill="#CA7070"/>
<path d="M180.158 120.071L176.79 120.399C176.818 120.527 176.813 120.66 176.774 120.787C176.736 120.914 176.665 121.032 176.567 121.135C176.174 121.612 175.339 122.223 175.793 122.359L180.414 121.908L180.158 120.071Z" fill="#00695C"/>
<path opacity="0.2" d="M176.819 121.12C176.917 121.018 176.988 120.899 177.026 120.772C177.065 120.645 177.07 120.513 177.041 120.384L176.796 120.408C176.825 120.537 176.819 120.669 176.781 120.796C176.743 120.923 176.672 121.042 176.573 121.144C176.181 121.621 175.345 122.232 175.8 122.369L176.045 122.345C175.593 122.208 176.428 121.597 176.819 121.12Z" fill="white"/>
<path d="M192.068 118.325L188.972 119.062C189.103 119.363 189.099 119.693 188.961 119.991C188.702 120.616 188.036 121.451 188.515 121.567L192.991 120.512L192.068 118.325Z" fill="#00695C"/>
<path d="M185.604 84.0472C185.604 84.0472 190.552 93.0872 185.251 98.8775L183.348 97.944C183.348 97.944 185.454 87.3428 183.109 85.1316C186.5 83.8171 185.604 84.0472 185.604 84.0472Z" fill="#00695C"/>
<path d="M183.232 85.1188C183.232 85.1188 182.427 84.6862 183.029 83.7067C183.631 82.7272 185.077 83.3017 185.077 83.3017C185.077 83.3017 185.746 84.5665 185.3 84.9163C184.855 85.2661 183.232 85.1188 183.232 85.1188Z" fill="#CA7070"/>
<path opacity="0.2" d="M189.206 119.968C189.344 119.669 189.348 119.339 189.217 119.038L192.081 118.358L192.068 118.327L188.972 119.064C189.103 119.365 189.099 119.695 188.961 119.993C188.702 120.618 188.036 121.453 188.515 121.569L188.702 121.525C188.341 121.352 188.956 120.564 189.206 119.968Z" fill="white"/>
<path d="M181.521 93.3133L181.226 93.3421C180.363 93.4263 179.746 94.0726 179.848 94.7855L180.078 96.3908C180.18 97.1037 180.962 97.6134 181.826 97.5291L182.12 97.5004C182.983 97.4161 183.6 96.7699 183.498 96.057L183.269 94.4516C183.167 93.7387 182.384 93.2291 181.521 93.3133Z" fill="#CA7070"/>
<path opacity="0.2" d="M183.678 98.5259C183.678 98.5259 185.758 88.0554 183.482 85.7558C183.308 85.7558 183.196 85.7374 183.196 85.7374L183.161 85.7153L183.074 85.7485C185.419 87.9578 183.312 98.5608 183.312 98.5608L185.216 99.4943C185.261 99.4446 185.305 99.3949 185.347 99.3433L183.678 98.5259Z" fill="white"/>
<path d="M181.644 94.7845C183.736 94.5803 185.231 93.0142 184.984 91.2864C184.737 89.5587 182.841 88.3236 180.749 88.5277C178.657 88.7319 177.161 90.2981 177.409 92.0258C177.656 93.7536 179.552 94.9887 181.644 94.7845Z" fill="#CA7070"/>
<path opacity="0.2" d="M180.486 96.2319L180.292 94.8695C180.279 94.7697 180.279 94.6691 180.292 94.5694C179.508 94.3273 178.843 93.8794 178.399 93.2946C177.954 92.7098 177.754 92.0205 177.83 91.3327C177.906 90.645 178.254 89.9969 178.819 89.4883C179.385 88.9796 180.137 88.6386 180.96 88.5176L180.737 88.5323C179.889 88.6161 179.1 88.9326 178.496 89.4309C177.891 89.9293 177.507 90.5808 177.404 91.2811C177.301 91.9813 177.486 92.6898 177.929 93.293C178.372 93.8963 179.047 94.3593 179.846 94.608C179.833 94.7078 179.833 94.8084 179.846 94.9081L180.04 96.2705C180.067 96.4716 180.145 96.6656 180.271 96.8393C180.396 97.013 180.565 97.1625 180.767 97.2775C180.968 97.3925 181.197 97.4705 181.438 97.5061C181.679 97.5417 181.927 97.5341 182.164 97.4839C181.749 97.4767 181.351 97.3462 181.042 97.1163C180.734 96.8863 180.536 96.5724 180.486 96.2319Z" fill="white"/>
<path d="M187.271 106.875C187.271 106.875 180.064 108.269 179.692 107.612C177.113 103.009 178.466 99.036 178.466 99.036C178.407 98.6249 178.447 98.2083 178.583 97.81C178.72 97.4117 178.95 97.0395 179.26 96.7146C179.571 96.3897 179.956 96.1186 180.393 95.9167C180.831 95.7148 181.312 95.586 181.81 95.5378C182.307 95.4893 182.812 95.5223 183.294 95.6348C183.776 95.7473 184.227 95.9373 184.62 96.1938C185.014 96.4502 185.342 96.7682 185.586 97.1295C185.831 97.4909 185.987 97.8884 186.045 98.2995L187.271 106.875Z" fill="#00695C"/>
<path d="M187.271 106.875L192.354 119.066L189.054 119.388L184.306 110.438C184.306 110.438 180.247 112.369 179.581 115.503C178.914 118.637 180.249 120.246 180.249 120.246L176.723 120.599L176.667 120.467C175.765 118.294 175.569 115.964 176.101 113.71C176.633 111.456 177.873 109.357 179.696 107.623" fill="#263238"/>
<path opacity="0.2" d="M180.124 107.573C177.545 102.97 178.898 98.9971 178.898 98.9971C178.785 98.2025 179.042 97.4021 179.617 96.7582C180.192 96.1143 181.042 95.6753 181.995 95.5303C181.912 95.5303 181.832 95.5303 181.749 95.5468C181.252 95.595 180.77 95.7238 180.333 95.9257C179.895 96.1276 179.51 96.3987 179.2 96.7236C178.889 97.0485 178.659 97.4207 178.523 97.819C178.387 98.2173 178.347 98.6339 178.406 99.045C178.406 99.045 177.053 103.014 179.632 107.621C179.763 107.855 180.771 107.827 182.013 107.695C181.009 107.781 180.238 107.776 180.124 107.573Z" fill="white"/>
<path d="M178.403 98.9935C178.403 98.9935 167.822 94.2968 167.775 87.0372L169.973 86.8218C169.973 86.8218 176.569 95.6923 180.058 96.2741C183.546 96.8559 178.403 98.9935 178.403 98.9935Z" fill="#00695C"/>
<g opacity="0.2">
<path opacity="0.2" d="M184.407 110.657L189.068 119.443L189.556 119.395L184.808 110.445C184.808 110.445 184.656 110.513 184.407 110.657Z" fill="white"/>
<path opacity="0.2" d="M180.194 107.617L179.705 107.665C177.882 109.399 176.642 111.498 176.11 113.752C175.578 116.006 175.774 118.336 176.676 120.509L176.732 120.641L177.22 120.593L177.164 120.461C176.262 118.289 176.067 115.959 176.598 113.704C177.13 111.45 178.37 109.351 180.194 107.617Z" fill="white"/>
</g>
<path opacity="0.2" d="M168.154 87.1016L167.788 87.1365C167.835 94.3961 178.417 99.0928 178.417 99.0928L178.64 98.9934C177.418 98.4153 168.198 93.8732 168.154 87.1016Z" fill="white"/>
<path d="M177.973 90.5591C178.277 90.9273 178.419 91.36 178.595 91.7742C178.972 92.6267 179.636 93.4497 180.644 93.8105C181.201 93.9944 181.803 94.0687 182.401 94.0278C183.308 93.9873 184.264 93.7461 184.828 93.1569C185.174 92.7599 185.378 92.2902 185.414 91.8019C185.504 91.0774 185.373 90.3458 185.033 89.674C184.693 89.0022 184.154 88.4114 183.466 87.9558C182.071 87.072 180.044 86.8953 178.502 87.5875C178.225 87.7357 177.93 87.8591 177.621 87.9558C177.383 88.0116 177.132 88.0192 176.889 87.9778C176.647 87.9365 176.42 87.8474 176.228 87.7182C176.204 87.8273 176.211 87.9395 176.249 88.0457C176.287 88.152 176.355 88.2493 176.448 88.3297C176.54 88.4101 176.654 88.4714 176.781 88.5084C176.907 88.5455 177.042 88.5574 177.175 88.5431C176.911 88.6819 176.616 88.7761 176.307 88.8203C175.998 88.8646 175.682 88.8579 175.376 88.8008C175.583 89.0715 175.906 89.2682 176.28 89.3517C176.654 89.4353 177.052 89.3996 177.396 89.2519C176.743 89.5723 176.014 89.7709 175.258 89.8337C175.417 89.8208 175.758 90.0289 175.956 90.0565C176.2 90.0649 176.445 90.0557 176.687 90.0289C176.939 90.0147 177.191 90.0564 177.418 90.1496C177.644 90.2428 177.836 90.3842 177.973 90.5591Z" fill="#263238"/>
<g opacity="0.2">
<path opacity="0.2" d="M177.173 88.5436C176.908 88.6826 176.613 88.7765 176.304 88.8197C176.7 88.7985 177.083 88.6953 177.418 88.5196C177.3 88.5317 177.18 88.5233 177.066 88.4952C176.952 88.467 176.846 88.4196 176.755 88.3559C176.664 88.2923 176.59 88.2137 176.538 88.1253C176.485 88.0369 176.456 87.9405 176.451 87.8421C176.372 87.8068 176.297 87.7655 176.228 87.7188C176.204 87.8276 176.211 87.9396 176.249 88.0457C176.287 88.1518 176.355 88.249 176.447 88.3293C176.539 88.4097 176.653 88.471 176.779 88.5082C176.905 88.5455 177.04 88.5576 177.173 88.5436Z" fill="white"/>
<path opacity="0.2" d="M177.864 87.9322C178.172 87.8356 178.468 87.7121 178.744 87.564C179.188 87.3668 179.67 87.2365 180.169 87.1792C179.585 87.2194 179.018 87.3579 178.501 87.5861C178.225 87.7342 177.929 87.8576 177.621 87.9543C177.579 87.9654 177.534 87.9709 177.492 87.9783C177.618 87.9762 177.743 87.9607 177.864 87.9322Z" fill="white"/>
<path opacity="0.2" d="M176.199 90.0365C176 90.0089 175.659 89.8008 175.501 89.8137C176.257 89.7509 176.986 89.5524 177.639 89.2319C177.49 89.3004 177.328 89.3454 177.16 89.3645C176.568 89.6218 175.921 89.7824 175.256 89.8377C175.414 89.8248 175.755 90.0328 175.954 90.0604C176.124 90.0772 176.298 90.0716 176.466 90.0439C176.377 90.0507 176.287 90.0482 176.199 90.0365Z" fill="white"/>
<path opacity="0.2" d="M182.646 94.0042C182.048 94.0452 181.446 93.9708 180.889 93.7869C179.881 93.4187 179.217 92.6031 178.84 91.7506C178.658 91.3364 178.524 90.8982 178.218 90.5355C178.08 90.3603 177.888 90.2188 177.662 90.1255C177.435 90.0323 177.182 89.9908 176.93 90.0053C176.808 90.007 176.687 90.0162 176.567 90.0329C176.607 90.0329 176.645 90.0329 176.687 90.0329C176.94 90.0184 177.192 90.0599 177.419 90.1531C177.645 90.2464 177.837 90.3879 177.975 90.5631C178.279 90.9313 178.421 91.364 178.597 91.7783C178.974 92.6307 179.638 93.4537 180.646 93.8146C181.203 93.9984 181.805 94.0728 182.403 94.0318C182.543 94.0318 182.686 94.0134 182.828 93.9968L182.646 94.0042Z" fill="white"/>
<path opacity="0.2" d="M177.004 89.372C176.744 89.3818 176.486 89.3382 176.253 89.2449C176.019 89.1517 175.818 89.0119 175.666 88.8381C175.567 88.8311 175.469 88.8188 175.372 88.8013C175.542 89.0219 175.789 89.1946 176.08 89.2965C176.372 89.3984 176.694 89.4248 177.004 89.372Z" fill="white"/>
</g>
<path opacity="0.2" d="M168.018 87.0133C168.018 87.0133 167.213 86.5806 167.815 85.6012C167.892 85.4607 168.009 85.3374 168.155 85.2414C168.301 85.1454 168.472 85.0794 168.655 85.0488C168.428 85.0488 168.205 85.1026 168.013 85.2037C167.821 85.3048 167.668 85.4491 167.572 85.6196C166.968 86.5991 167.775 87.0317 167.775 87.0317C168.259 87.0756 168.747 87.0756 169.231 87.0317C168.826 87.0534 168.421 87.0473 168.018 87.0133Z" fill="white"/>
<path d="M89.9219 120.117H93.3124C93.3001 120.249 93.3224 120.381 93.3778 120.506C93.4332 120.63 93.5204 120.743 93.6334 120.837C94.0904 121.273 95.0066 121.798 94.5763 121.978H89.9219V120.117Z" fill="#347AF0"/>
<path opacity="0.2" d="M93.3792 120.837C93.2662 120.743 93.179 120.63 93.1236 120.506C93.0682 120.381 93.0459 120.249 93.0582 120.117H93.3034C93.2911 120.249 93.3134 120.381 93.3688 120.506C93.4242 120.63 93.5114 120.743 93.6244 120.837C94.0814 121.273 94.9976 121.798 94.5674 121.978H94.3221C94.7591 121.798 93.8429 121.273 93.3792 120.837Z" fill="white"/>
<path d="M77.8442 119.539L81.023 119.968C80.9364 120.279 80.9878 120.605 81.1679 120.888C81.5134 121.483 82.2825 122.247 81.8255 122.411L77.2312 121.798L77.8442 119.539Z" fill="#347AF0"/>
<path opacity="0.2" d="M80.9228 120.892C80.7427 120.609 80.6913 120.283 80.7779 119.971L77.8354 119.574V119.542L81.0142 119.971C80.9276 120.283 80.979 120.609 81.1591 120.892C81.5046 121.487 82.2737 122.251 81.8167 122.415L81.625 122.389C81.9794 122.183 81.2527 121.459 80.9228 120.892Z" fill="white"/>
<path d="M84.7701 97.8979H85.0666C85.9358 97.8979 86.6404 97.316 86.6404 96.5981V94.9816C86.6404 94.2637 85.9358 93.6818 85.0666 93.6818H84.7701C83.9009 93.6818 83.1963 94.2637 83.1963 94.9816V96.5981C83.1963 97.316 83.9009 97.8979 84.7701 97.8979Z" fill="#985454"/>
<path d="M84.8571 95.1548C86.9635 95.1548 88.6711 93.7445 88.6711 92.0047C88.6711 90.2649 86.9635 88.8545 84.8571 88.8545C82.7506 88.8545 81.043 90.2649 81.043 92.0047C81.043 93.7445 82.7506 95.1548 84.8571 95.1548Z" fill="#985454"/>
<path opacity="0.2" d="M86.2102 96.4806V95.109C86.2097 95.0086 86.1962 94.9087 86.1701 94.8107C86.9135 94.4941 87.5104 93.9845 87.8687 93.3603C88.2271 92.736 88.3271 92.0318 88.1532 91.3561C87.9794 90.6803 87.5414 90.0705 86.9068 89.6205C86.2721 89.1705 85.4759 88.9053 84.6409 88.8657H84.8638C85.7189 88.866 86.5491 89.1036 87.2211 89.5404C87.8931 89.9771 88.3679 90.5877 88.5692 91.2742C88.7706 91.9606 88.6868 92.683 88.3313 93.3253C87.9759 93.9677 87.3694 94.4928 86.6092 94.8162C86.6354 94.9142 86.6488 95.0142 86.6493 95.1145V96.4806C86.6512 96.6828 86.6004 96.883 86.5005 97.0676C86.4006 97.2522 86.2539 97.4169 86.0702 97.5506C85.8865 97.6844 85.6703 97.7839 85.436 97.8426C85.2017 97.9013 84.9549 97.9178 84.7122 97.8909C85.1261 97.8451 85.5059 97.6769 85.7813 97.4177C86.0567 97.1584 86.2091 96.8255 86.2102 96.4806Z" fill="white"/>
<path d="M80.9829 107.711C80.9829 107.711 88.3391 108.398 88.6111 107.711C90.517 102.886 88.6111 99.0745 88.6111 99.0745C88.6111 98.6608 88.5124 98.2512 88.3207 97.869C88.1291 97.4868 87.8481 97.1395 87.4939 96.847C87.1398 96.5545 86.7193 96.3224 86.2566 96.1641C85.7938 96.0058 85.2979 95.9243 84.797 95.9243C83.7889 95.9243 82.8218 96.2539 82.1071 96.8411C81.3924 97.4283 80.9882 98.2253 80.9829 99.0579V107.711Z" fill="#347AF0"/>
<path d="M80.9828 107.711L77.6614 120.31H80.9828L84.4269 110.963C84.4269 110.963 88.7336 112.487 89.8392 115.534C90.9449 118.581 89.8392 120.31 89.8392 120.31H93.4059L93.4416 120.174C94.0296 117.929 93.8926 115.596 93.0443 113.409C92.1961 111.221 90.6664 109.256 88.6087 107.711" fill="#263238"/>
<path opacity="0.2" d="M88.1785 107.711C90.0844 102.886 88.1785 99.0744 88.1785 99.0744C88.1782 98.2745 87.8095 97.5045 87.1472 96.9209C86.4848 96.3372 85.5783 95.9835 84.6118 95.9316C84.6943 95.9316 84.7746 95.9316 84.857 95.9316C85.8636 95.9316 86.8293 96.2602 87.5438 96.8458C88.2583 97.4314 88.6635 98.2265 88.6711 99.0579C88.6711 99.0579 90.577 102.867 88.6711 107.695C88.573 107.939 87.5677 108.009 86.3171 107.998C87.3314 107.995 88.0938 107.916 88.1785 107.711Z" fill="white"/>
<g opacity="0.2">
<path opacity="0.2" d="M84.3623 111.177L80.9807 120.353H80.488L83.9321 111.005C83.9321 111.005 84.097 111.062 84.3623 111.177Z" fill="white"/>
<path opacity="0.2" d="M88.1162 107.754H88.6088C90.6665 109.299 92.1962 111.264 93.0444 113.451C93.8926 115.638 94.0296 117.972 93.4416 120.216L93.406 120.353H92.9133L92.949 120.216C93.537 117.972 93.4 115.638 92.5518 113.451C91.7035 111.264 90.1739 109.299 88.1162 107.754Z" fill="white"/>
</g>
<path d="M85.7532 99.0136C85.7532 99.0136 96.8856 95.2853 97.8798 88.0718L95.722 87.6631C95.722 87.6631 88.0069 95.8966 84.4626 96.1617C80.9182 96.4268 85.7532 99.0136 85.7532 99.0136Z" fill="#347AF0"/>
<path opacity="0.2" d="M97.4921 88.1035L97.851 88.1716C96.8568 95.3852 85.7244 99.1134 85.7244 99.1134L85.5015 98.9938C86.8167 98.528 96.5648 94.8236 97.4921 88.1035Z" fill="white"/>
<path d="M97.6926 88.1957C97.6926 88.1957 98.5486 87.8366 98.0783 86.8093C97.6079 85.782 96.0943 86.2257 96.0943 86.2257C96.0943 86.2257 95.2562 87.4224 95.6485 87.8109C96.0408 88.1993 97.6926 88.1957 97.6926 88.1957Z" fill="#985454"/>
<path opacity="0.2" d="M97.4519 88.1549C97.4519 88.1549 98.3078 87.7959 97.8375 86.7685C97.7782 86.6229 97.678 86.491 97.5451 86.3834C97.4122 86.2759 97.2504 86.1959 97.0729 86.1499C97.2994 86.1702 97.5142 86.2435 97.692 86.3613C97.8697 86.479 98.0029 86.6363 98.076 86.8145C98.5486 87.8419 97.6904 88.2009 97.6904 88.2009C97.2036 88.1993 96.7184 88.1536 96.2437 88.0647C96.6426 88.1224 97.0468 88.1526 97.4519 88.1549Z" fill="white"/>
<path d="M85.1314 90.9568L84.9085 95.1914H79.5273V92.9563C79.5273 88.4418 85.3053 86.7278 88.5599 90.3566C88.6401 90.445 85.1314 90.9568 85.1314 90.9568Z" fill="#263238"/>
<path opacity="0.2" d="M83.9365 88.409C85.3075 88.5029 86.714 89.1178 87.8264 90.3587C87.9066 90.4471 84.4091 90.9645 84.4091 90.9645L84.1639 95.1991H84.9084L85.1536 90.9645C85.1536 90.9645 88.6512 90.449 88.5709 90.3587C87.2468 88.8951 85.5259 88.3004 83.9365 88.409Z" fill="white"/>
<path fill-rule="evenodd" clip-rule="evenodd" d="M165.396 67.9741C166.734 67.5934 167.584 66.4715 167.584 65.0835C167.584 63.1463 165.957 61.8681 163.359 61.7306V60H160.75V61.7178H159.553V60H156.944V61.7178H155V64.4378H156.86V72.3279H155V75.0464H156.944V77H159.553V75.0464H160.75V77H163.359V75.0429C166.202 74.9677 168 73.5591 168 71.3399C168 69.6281 167.005 68.3168 165.396 67.9741ZM160.151 64.4378H162.701C162.946 64.4378 163.167 64.4709 163.359 64.5357C163.876 64.7103 164.184 65.1102 164.184 65.6919C164.184 66.302 163.876 66.7297 163.359 66.9171C163.167 66.9858 162.946 67.0228 162.701 67.0228H160.151V64.4378ZM162.701 72.3472C162.94 72.3472 163.159 72.3244 163.359 72.2809C164.125 72.1117 164.582 71.6263 164.582 70.9018C164.582 70.2369 164.125 69.7646 163.359 69.599C163.159 69.5556 162.94 69.5328 162.701 69.5328H160.151V72.3279L162.701 72.3472Z" fill="#347AF0"/>
</g>
<defs>
<linearGradient id="paint0_linear" x1="87.7237" y1="122.998" x2="87.7237" y2="84.2775" gradientUnits="userSpaceOnUse">
<stop stop-color="#808080" stop-opacity="0.25"/>
<stop offset="0.54" stop-color="#808080" stop-opacity="0.12"/>
<stop offset="1" stop-color="#808080" stop-opacity="0.1"/>
</linearGradient>
<linearGradient id="paint1_linear" x1="76065.2" y1="43809.3" x2="76065.2" y2="0" gradientUnits="userSpaceOnUse">
<stop stop-color="#808080" stop-opacity="0.25"/>
<stop offset="0.54" stop-color="#808080" stop-opacity="0.12"/>
<stop offset="1" stop-color="#808080" stop-opacity="0.1"/>
</linearGradient>
<linearGradient id="paint2_linear" x1="27.1387" y1="114.296" x2="27.1387" y2="114.276" gradientUnits="userSpaceOnUse">
<stop stop-color="#808080" stop-opacity="0.25"/>
<stop offset="0.54" stop-color="#808080" stop-opacity="0.12"/>
<stop offset="1" stop-color="#808080" stop-opacity="0.1"/>
</linearGradient>
<linearGradient id="paint3_linear" x1="6516.03" y1="31540.2" x2="6516.03" y2="22488.9" gradientUnits="userSpaceOnUse">
<stop stop-color="#808080" stop-opacity="0.25"/>
<stop offset="0.54" stop-color="#808080" stop-opacity="0.12"/>
<stop offset="1" stop-color="#808080" stop-opacity="0.1"/>
</linearGradient>
<linearGradient id="paint4_linear" x1="276.503" y1="154.543" x2="276.501" y2="154.526" gradientUnits="userSpaceOnUse">
<stop stop-color="#808080" stop-opacity="0.25"/>
<stop offset="0.54" stop-color="#808080" stop-opacity="0.12"/>
<stop offset="1" stop-color="#808080" stop-opacity="0.1"/>
</linearGradient>
<linearGradient id="paint5_linear" x1="26617.5" y1="11245" x2="25965.9" y2="4568.95" gradientUnits="userSpaceOnUse">
<stop stop-color="#808080" stop-opacity="0.25"/>
<stop offset="0.54" stop-color="#808080" stop-opacity="0.12"/>
<stop offset="1" stop-color="#808080" stop-opacity="0.1"/>
</linearGradient>
<clipPath id="clip0">
<rect width="193" height="123" fill="white"/>
</clipPath>
</defs>
</svg>
