<svg width="142" height="157" viewBox="0 0 142 157" fill="none" xmlns="http://www.w3.org/2000/svg">
<path d="M116.025 19.3483C115.399 19.3483 114.811 19.1917 114.224 18.9175C99.223 11.1625 86.1805 7.83333 70.5922 7.83333C55.043 7.83333 40.3947 11.5542 26.9605 18.8783C25.0413 19.8967 22.6913 19.2308 21.6338 17.3117C20.6155 15.3925 21.2813 13.0425 23.2005 11.985C37.8097 4.03417 53.7505 0 70.5922 0C87.2772 0 101.847 3.68167 117.827 11.9458C119.746 12.925 120.491 15.3142 119.511 17.2333C118.806 18.565 117.436 19.3483 116.025 19.3483ZM3.93051 60.4733C3.14718 60.4733 2.36385 60.2383 1.65885 59.7683C-0.103653 58.515 -0.534487 56.0867 0.718846 54.3242C8.47385 43.3575 18.383 34.7408 30.133 28.67C54.7688 15.9408 86.2588 15.9017 110.934 28.5917C122.645 34.6233 132.515 43.1617 140.309 54.05C141.562 55.8125 141.171 58.2408 139.408 59.4942C137.646 60.7475 135.178 60.3558 133.925 58.5933C126.875 48.7233 117.945 40.9683 107.37 35.5633C84.888 24.0092 56.1788 24.0483 33.7363 35.6417C23.1222 41.125 14.153 48.9192 7.14218 58.8675C6.35885 59.925 5.14468 60.4733 3.93051 60.4733ZM52.928 154.982C51.9097 154.982 50.9305 154.591 50.1472 153.808C43.3713 146.953 39.6897 142.606 34.4022 133.167C28.9972 123.532 26.138 111.743 26.138 99.1308C26.138 75.8658 46.0347 56.9092 70.5138 56.9092C94.993 56.9092 114.89 75.8267 114.89 99.1308C114.89 101.285 113.127 103.048 110.973 103.048C108.819 103.048 107.056 101.285 107.056 99.1308C107.056 80.1742 90.6847 64.7425 70.5138 64.7425C50.3822 64.7425 33.9713 80.1742 33.9713 99.1308C33.9713 110.411 36.478 120.829 41.2172 129.328C46.2697 138.337 49.638 142.214 55.6697 148.285C57.1972 149.812 57.1972 152.319 55.6305 153.808C54.9255 154.63 53.9072 154.982 52.928 154.982ZM109.054 140.491C99.7322 140.491 91.5463 138.141 84.7705 133.558C73.138 125.647 66.1663 112.8 66.1663 99.17C66.1663 97.0158 67.9288 95.2533 70.083 95.2533C72.2372 95.2533 73.9997 97.0158 73.9997 99.17C73.9997 110.176 79.6788 120.594 89.1963 127.057C94.7188 130.817 101.221 132.658 109.054 132.658C110.934 132.658 114.106 132.462 117.24 131.913C119.355 131.522 121.391 132.971 121.783 135.086C122.175 137.201 120.726 139.238 118.61 139.629C114.028 140.452 110.151 140.491 109.054 140.491ZM93.2697 156.667C92.9172 156.667 92.5647 156.628 92.2513 156.51C79.7572 153.102 71.6105 148.481 63.1505 140.06C52.223 129.172 46.1913 114.641 46.1913 99.17C46.1913 86.4408 57.0013 76.1008 70.318 76.1008C83.6347 76.1008 94.4447 86.4408 94.4447 99.17C94.4447 107.552 101.769 114.406 110.738 114.406C119.707 114.406 127.031 107.591 127.031 99.17C127.031 69.6383 101.573 45.6292 70.2788 45.6292C47.993 45.6292 27.6655 58.0058 18.5005 77.1975C15.4455 83.5425 13.918 90.945 13.918 99.17C13.918 105.28 14.4663 114.915 19.1272 127.409C19.8713 129.446 18.853 131.678 16.8163 132.462C14.7797 133.206 12.5472 132.188 11.7638 130.151C7.92551 119.85 6.04551 109.745 6.04551 99.17C6.04551 89.77 7.84718 81.2317 11.4113 73.8292C21.8688 51.9742 44.9772 37.835 70.2397 37.835C105.842 37.835 134.826 65.3692 134.826 99.2092C134.826 111.938 123.976 122.278 110.699 122.278C97.4213 122.278 86.5722 111.938 86.5722 99.2092C86.5722 90.8275 79.248 83.9733 70.2788 83.9733C61.3097 83.9733 53.9855 90.7883 53.9855 99.2092C53.9855 112.565 59.1947 125.137 68.6338 134.537C76.0363 141.901 83.243 145.974 94.288 148.99C96.3638 149.577 97.6172 151.732 97.0297 153.808C96.5597 155.531 94.993 156.667 93.2697 156.667Z" fill="#0D1F3C"/>
</svg>
