<svg width="275" height="232" viewBox="0 0 275 232" fill="none" xmlns="http://www.w3.org/2000/svg">
<path d="M267.119 47.4734C263.398 41.1525 257.405 36.1724 250.483 33.7371C247.5 32.6973 243.915 32.2047 241.48 34.2023C239.045 36.1998 239.893 41.3167 243.04 41.2346C233.326 34.5033 221.614 30.6998 209.794 30.3988C206.838 30.3167 203.473 30.645 201.612 32.9436C199.724 35.2421 201.311 39.7843 204.211 39.2644C195.291 33.5455 183.525 35.2968 173.537 38.854C170.637 39.8938 167.764 41.0431 164.891 42.1923C161.744 43.451 162.674 48.1301 166.067 48.1028L267.119 47.4734Z" fill="#E0E9F8"/>
<path d="M13.2711 16.8563C9.54975 17.7593 5.77363 14.6673 6.56717 12.0678C7.3607 9.46825 10.9726 7.68965 14.6119 6.62248C22.8483 4.21452 32.6169 4.24189 40.8259 6.70457C38.9104 5.7195 39.0746 3.6399 40.5796 2.40855C42.1119 1.17721 44.5473 0.629946 46.9005 0.328951C58.1194 -1.09394 70.4055 2.18965 77 8.42845C74.8383 6.89612 76.0149 4.1598 78.6144 3.01054C81.2139 1.86129 84.6617 1.86129 87.7537 2.24437C101.052 3.83144 112.326 8.67472 114.871 17.5404L13.2711 16.8563Z" fill="#E0E9F8"/>
<path opacity="0.8" d="M7.22388 218.269C17.9229 197.692 29.6891 177.662 42.4677 158.316C47.6119 150.518 53.4129 142.418 62.0597 138.834C69.6393 135.687 78.505 136.617 85.9751 140.065C93.4179 143.513 99.602 149.287 104.719 155.717C109.124 161.217 113.831 167.839 120.863 168.413C128.361 169.043 134.299 162.476 138.923 156.51C154.109 136.946 169.296 117.354 184.483 97.789C189.517 91.3039 195.729 84.2169 203.91 84.2442C211.244 84.2716 217.182 90.0726 221.751 95.8188C248.567 129.448 259.02 172.874 268.734 214.739L7.22388 218.269Z" fill="#C5D6F1"/>
<path opacity="0.5" d="M255.244 179.277C266.064 179.277 274.836 170.505 274.836 159.685C274.836 148.864 266.064 140.093 255.244 140.093C244.423 140.093 235.652 148.864 235.652 159.685C235.652 170.505 244.423 179.277 255.244 179.277Z" fill="#C3D6F3"/>
<path d="M255.134 213.754C254.833 213.7 254.642 213.426 254.642 213.125V165.704C254.642 165.376 254.888 165.075 255.216 165.075C255.572 165.048 255.846 165.321 255.846 165.677V213.18C255.846 213.535 255.517 213.836 255.134 213.754Z" fill="#99B9EE"/>
<path d="M255.244 169.645C255.08 169.645 254.943 169.59 254.806 169.481C254.56 169.234 254.56 168.851 254.806 168.632L260.169 163.269C260.415 163.023 260.798 163.023 261.017 163.269C261.264 163.515 261.264 163.899 261.017 164.117L255.682 169.481C255.545 169.59 255.408 169.645 255.244 169.645Z" fill="#99B9EE"/>
<path d="M255.244 174.625C255.08 174.625 254.943 174.57 254.806 174.461C254.56 174.214 254.56 173.831 254.806 173.612L260.169 168.249C260.415 168.003 260.798 168.003 261.017 168.249C261.264 168.495 261.264 168.879 261.017 169.097L255.682 174.461C255.545 174.57 255.408 174.625 255.244 174.625Z" fill="#99B9EE"/>
<path opacity="0.5" d="M30.3458 181.63C47.1053 181.63 60.6915 168.044 60.6915 151.284C60.6915 134.525 47.1053 120.938 30.3458 120.938C13.5863 120.938 0 134.525 0 151.284C0 168.044 13.5863 181.63 30.3458 181.63Z" fill="#D1E0F6"/>
<path d="M30.3457 211.237C29.9626 211.237 29.6616 210.936 29.6616 210.553V151.284C29.6616 150.901 29.9626 150.6 30.3457 150.6C30.7288 150.6 31.0298 150.901 31.0298 151.284V210.525C31.0571 210.909 30.7288 211.237 30.3457 211.237Z" fill="#99B9EE"/>
<path d="M30.3458 167.674C30.1816 167.674 29.99 167.62 29.8532 167.483L21.3706 159C21.097 158.727 21.097 158.289 21.3706 158.015C21.6443 157.742 22.0821 157.742 22.3557 158.015L30.8383 166.525C31.1119 166.799 31.1119 167.237 30.8383 167.51C30.7015 167.62 30.5373 167.674 30.3458 167.674Z" fill="#99B9EE"/>
<path d="M30.3458 175.583C30.1816 175.583 29.99 175.528 29.8532 175.391L21.3706 166.909C21.097 166.635 21.097 166.197 21.3706 165.923C21.6443 165.65 22.0821 165.65 22.3557 165.923L30.8383 174.406C31.1119 174.68 31.1119 175.118 30.8383 175.391C30.7015 175.501 30.5373 175.583 30.3458 175.583Z" fill="#99B9EE"/>
<path d="M12.2861 208.008H263.672C267.639 208.008 270.841 211.209 270.841 215.177V224.152C270.841 228.12 267.639 231.321 263.672 231.321H12.2861C8.31844 231.321 5.11694 228.12 5.11694 224.152V215.177C5.11694 211.237 8.31844 208.008 12.2861 208.008Z" fill="#E0E9F8"/>
<path fill-rule="evenodd" clip-rule="evenodd" d="M176.266 110.81C194.964 110.81 210.122 95.6524 210.122 76.954C210.122 58.2557 194.964 43.0977 176.266 43.0977C157.567 43.0977 142.409 58.2557 142.409 76.954C142.409 95.6524 157.567 110.81 176.266 110.81Z" stroke="#FFBE55"/>
<path d="M170.985 116.091C177.974 119.507 175.933 126.052 175.933 126.052C175.933 126.052 172.028 131.688 165.017 128.271C158.029 124.854 150.596 113.672 150.596 113.672C150.596 113.672 163.997 112.674 170.985 116.091Z" fill="#99B9EE"/>
<path d="M170.985 116.091C177.974 119.507 175.933 126.052 175.933 126.052L150.596 113.672C150.596 113.672 163.997 112.674 170.985 116.091Z" fill="#E0E9F8"/>
<path d="M182.123 152.721C175.134 156.137 177.175 162.682 177.175 162.682C177.175 162.682 181.08 168.318 188.091 164.901C195.08 161.484 202.512 150.302 202.512 150.302C202.512 150.302 189.134 149.304 182.123 152.721Z" fill="#99B9EE"/>
<path d="M182.123 152.721C175.134 156.137 177.175 162.682 177.175 162.682L202.512 150.302C202.512 150.302 189.134 149.304 182.123 152.721Z" fill="#E4ECF8"/>
<path d="M198.297 210.96C189.4 222.075 175.933 217.016 175.933 217.016C175.933 217.016 168.035 204.991 176.931 193.854C185.828 182.716 210.61 173.642 210.61 173.642C210.61 173.642 207.194 199.822 198.297 210.96Z" fill="#E0E9F8"/>
<path d="M198.297 210.96C189.4 222.075 175.933 217.016 175.933 217.016L210.61 173.642C210.61 173.642 207.194 199.822 198.297 210.96Z" fill="#99B9EE"/>
<path d="M154.39 210.96C163.287 222.075 176.754 217.016 176.754 217.016C176.754 217.016 184.652 204.991 175.756 193.854C166.859 182.738 142.077 173.642 142.077 173.642C142.077 173.642 145.493 199.822 154.39 210.96Z" fill="#E0E9F8"/>
<path d="M154.39 210.96C163.287 222.075 176.754 217.016 176.754 217.016L142.077 173.642C142.077 173.642 145.493 199.822 154.39 210.96Z" fill="#99B9EE"/>
<rect x="175.622" y="95.3467" width="1.28681" height="121.936" fill="#99B9EE"/>
<path d="M152.26 46.1373C149.531 46.1373 147.335 48.3559 147.335 51.0627C147.335 48.3337 145.116 46.1373 142.409 46.1373C145.138 46.1373 147.335 43.9187 147.335 41.2119C147.313 43.9187 149.531 46.1373 152.26 46.1373Z" fill="#FFBE55"/>
<path fill-rule="evenodd" clip-rule="evenodd" d="M154.612 46.1372C150.574 46.1372 147.313 49.3986 147.313 53.4365C147.313 49.3986 144.051 46.1372 140.013 46.1372C144.051 46.1372 147.313 42.8758 147.313 38.8379C147.313 42.8758 150.596 46.1372 154.612 46.1372Z" stroke="#FFBE55"/>
<path d="M216.845 86.2056C215.269 86.2056 213.983 87.4924 213.983 89.0454C213.983 87.4702 212.696 86.2056 211.143 86.2056C212.718 86.2056 213.983 84.9188 213.983 83.3657C213.983 84.9188 215.269 86.2056 216.845 86.2056Z" fill="#FFBE55"/>
<path fill-rule="evenodd" clip-rule="evenodd" d="M218.198 86.2056C215.868 86.2056 213.983 88.0915 213.983 90.4211C213.983 88.0915 212.097 86.2056 209.767 86.2056C212.097 86.2056 213.983 84.3198 213.983 81.9902C213.983 84.3198 215.868 86.2056 218.198 86.2056Z" stroke="#FFBE55" stroke-width="0.75"/>
<path d="M171.296 99.4731H181.125V104.376C181.125 107.083 178.928 109.28 176.222 109.28C173.515 109.28 171.318 107.083 171.318 104.376V99.4731H171.296Z" fill="#99B9EE"/>
<path d="M176.266 104.509C191.484 104.509 203.821 92.1724 203.821 76.9539C203.821 61.7354 191.484 49.3984 176.266 49.3984C161.047 49.3984 148.71 61.7354 148.71 76.9539C148.71 92.1724 161.047 104.509 176.266 104.509Z" fill="#FFBE55"/>
<path fill-rule="evenodd" clip-rule="evenodd" d="M176.266 97.6318C187.686 97.6318 196.944 88.374 196.944 76.9541C196.944 65.5341 187.686 56.2764 176.266 56.2764C164.846 56.2764 155.588 65.5341 155.588 76.9541C155.588 88.374 164.846 97.6318 176.266 97.6318Z" stroke="#F7F7F7"/>
<path d="M129.495 146.693L124.898 148.166L124.225 147.846L122.927 146.565L123.056 144.466L125.602 144.402L129.495 146.693Z" fill="#FCD2B1"/>
<path d="M114.182 119.784C114.182 119.784 112.612 137.915 125.586 144.403C125.058 145.027 122.879 146.02 122.879 146.02C122.879 146.02 110.178 138.316 110.626 129.763C111.075 121.209 114.182 119.784 114.182 119.784Z" fill="#EFAE35"/>
<path d="M89.5952 202.45C89.5952 202.45 91.293 210.298 92.5424 213.838C92.6866 214.255 92.158 214.591 91.8537 214.287C89.7554 212.22 86.8402 208.04 85.8791 207.079C84.6778 205.877 82.8358 203.635 82.8358 203.635L87.2406 199.759L90.1398 201.216L89.5952 202.45Z" fill="#0B4870"/>
<path d="M105.356 208.216C105.356 208.216 112.356 212.124 115.848 213.55C116.264 213.726 116.168 214.335 115.72 214.367C112.788 214.575 107.711 213.998 106.365 214.078C104.684 214.19 101.768 214.078 101.768 214.078V208.216L104.78 206.999L105.356 208.216Z" fill="#083751"/>
<path d="M112.452 140.334C112.452 140.334 111.779 175.364 111.395 176.149C111.011 176.918 105.356 208.232 105.356 208.232H101.768C101.768 208.232 102.409 175.508 103.819 174.291C103.819 171.408 102.842 140.622 105.581 138.428C109.585 138.188 112.452 140.334 112.452 140.334Z" fill="#0B4870"/>
<path d="M100.311 136.954C95.1372 140.766 94.096 158.578 99.3658 172.337C95.922 178.519 85.6228 203.042 85.6228 203.042L88.6661 204.868C88.6661 204.868 109.665 175.989 108.864 173.009C108.063 170.03 109.585 138.171 109.585 138.171L100.311 136.954Z" fill="#0B4870"/>
<path d="M115.159 115.763C115.271 116.196 115.415 116.628 115.592 117.045C116.713 119.704 118.25 125.198 118.138 126.111C118.01 127.104 114.502 130.483 113.573 133.062C112.644 135.641 112.484 140.334 112.484 140.334L100.343 136.954C100.343 136.954 103.723 128.625 103.851 124.861C103.979 121.097 105.276 113.313 110.066 112.528C113.717 111.919 114.839 114.546 115.159 115.763Z" fill="#FDB32A"/>
<path d="M118.859 99.8738C119.083 99.3132 119.003 98.6725 118.651 98.1759C116.825 95.6932 113.541 94.2997 110.498 94.8443C107.118 95.453 104.283 98.3681 103.771 101.764C103.578 103.077 103.691 104.423 103.418 105.72C103.098 107.242 102.217 108.651 100.984 109.596C99.446 110.782 97.4598 111.23 95.7459 112.159C94.016 113.104 92.5905 114.514 91.3732 116.067C90.1558 117.621 89.0987 119.367 88.7623 121.321C88.4259 123.275 88.9065 125.438 90.3641 126.767C91.2931 127.616 92.4944 128.049 93.6797 128.449C96.0503 129.25 98.533 129.971 101.016 129.698C103.498 129.426 106.013 127.952 106.782 125.566C107.855 122.202 105.212 118.662 105.693 115.17C106.029 112.8 107.759 110.846 109.681 109.42C111.603 107.995 113.782 106.905 115.608 105.368C116.969 104.231 118.266 101.315 118.859 99.8738Z" fill="#0B4870"/>
<path d="M115.576 109.933C114.967 111.182 114.406 114.466 114.935 115.859C115.415 117.237 115.239 117.461 115.239 117.461L109.905 113.088L111.139 107.082L115.576 109.933Z" fill="#FCD2B1"/>
<path d="M119.916 104.887C119.916 107.979 119.115 111.134 116.553 111.134C113.99 111.134 110.626 107.979 110.626 104.887C110.626 101.796 112.708 99.2812 115.271 99.2812C117.834 99.2812 119.916 101.796 119.916 104.887Z" fill="#FFE3CA"/>
<path d="M119.644 98.7204C120.557 98.6404 121.182 99.6174 120.733 100.402C119.852 101.988 118.283 103.574 114.631 103.125C112.965 102.917 110.306 103.125 110.146 104.246L108.864 101.203C108.864 101.203 109.185 99.2811 109.505 99.2811C109.825 99.2811 112.997 99.2811 112.997 99.2811L119.644 98.7204Z" fill="#0B4870"/>
<path d="M112.708 102.805C112.228 103.766 111.972 105.48 111.331 105.8C110.53 105.336 109.537 102.917 109.601 102.933C109.665 102.949 110.466 102.469 110.626 102.469C110.786 102.469 112.708 102.805 112.708 102.805Z" fill="#0B4870"/>
<path d="M111.505 107.336C111.957 107.133 112.059 106.379 111.732 105.653C111.406 104.927 110.775 104.503 110.323 104.706C109.872 104.909 109.77 105.662 110.096 106.389C110.422 107.115 111.053 107.539 111.505 107.336Z" fill="#FFE3CA"/>
<path d="M111.091 108.347C111.551 108.347 111.924 107.974 111.924 107.514C111.924 107.054 111.551 106.681 111.091 106.681C110.631 106.681 110.258 107.054 110.258 107.514C110.258 107.974 110.631 108.347 111.091 108.347Z" fill="#FFBE55"/>
<path d="M124.209 165.081L114.262 156.287C113.91 155.983 113.878 155.438 114.182 155.086L120.349 147.478C120.653 147.125 121.198 147.093 121.55 147.397L132.122 156.736C132.474 157.04 132.506 157.585 132.202 157.937L125.41 165.001C125.09 165.353 124.561 165.385 124.209 165.081Z" fill="#99B9EE"/>
<path d="M133.996 167.916L124.898 163.703L127.252 160.98L134.748 165.962L134.861 166.042L133.996 167.916Z" fill="#99B9EE"/>
<path fill-rule="evenodd" clip-rule="evenodd" d="M125.09 146.821C127.573 145.956 129.591 146.196 130.872 147.301C132.17 148.423 132.698 150.425 132.17 153.068L131.064 158.53L119.692 148.711L125.09 146.821ZM131.369 152.924C131.833 150.649 131.465 148.871 130.344 147.91C129.238 146.949 127.477 146.837 125.362 147.59L121.262 149.015L130.536 157.04L131.369 152.924Z" fill="#99B9EE"/>
<path d="M133.996 167.916C133.419 166.843 134.012 166.266 134.748 165.962L134.861 166.042L133.996 167.916Z" fill="#99B9EE"/>
<path d="M107.326 116.9C107.102 124.172 110.049 142.816 115.575 150.168C116.521 149.672 117.546 149.111 117.546 149.111C117.546 149.111 110.498 132.902 112.756 119.287C112.997 117.605 112.756 116.404 112.244 115.571C110.898 113.312 107.407 114.289 107.326 116.9Z" fill="#EFAE35"/>
<path d="M115.576 150.185C115.576 150.185 117.161 153.468 117.546 153.821C117.914 154.173 120.637 155.631 121.406 155.919C122.175 156.191 120.365 154.541 120.365 154.541C120.365 154.541 121.774 155.438 122.431 155.791C122.527 155.839 122.607 155.727 122.543 155.647C122.047 155.054 120.829 154.093 120.829 154.093C120.829 154.093 122.735 155.23 123.584 155.679C123.68 155.727 123.76 155.615 123.696 155.534C123.088 154.958 121.71 153.885 121.47 153.756C122.479 154.189 123.2 154.605 123.648 154.814C123.712 154.846 123.76 154.766 123.712 154.718C122.831 153.917 119.083 151.258 118.891 151.21C118.122 151.034 117.402 149.208 117.402 149.208L115.576 150.185Z" fill="#FCD2B1"/>
<path d="M124.898 148.166L124.225 147.846L124.145 147.734C124.145 147.734 125.955 145.892 126.419 145.684C126.724 145.556 128.005 146.052 128.822 146.389C129.062 146.485 129.046 146.837 128.79 146.917C127.493 147.334 124.898 148.166 124.898 148.166Z" fill="#FFE4D2"/>
<path d="M136.094 166.939L158.342 177.398" stroke="#CCE9FF" stroke-dasharray="12 14"/>
<path d="M134.861 168.989L149.276 196.507" stroke="#CCE9FF" stroke-dasharray="12 14"/>
<path d="M139.378 171.68L158.342 196.507" stroke="#CCE9FF" stroke-dasharray="12 14"/>
<path d="M143.766 173.49L158.855 184.895" stroke="#CCE9FF" stroke-dasharray="12 14"/>
</svg>
