<svg width="25" height="26" viewBox="0 0 25 26" fill="none" xmlns="http://www.w3.org/2000/svg">
<path fill-rule="evenodd" clip-rule="evenodd" d="M11.1458 1.59644L2.81251 5.7631C1.66668 6.28394 1.04168 7.3256 1.04168 8.47144V18.3673C1.04168 19.6173 1.77085 20.6589 2.81251 21.1798L11.1458 25.3464C11.5625 25.5548 11.9792 25.6589 12.5 25.6589C12.9167 25.6589 13.4375 25.5548 13.8542 25.3464L22.1875 21.1798C23.3333 20.6589 23.9583 19.5131 23.9583 18.3673V8.47144C23.9583 7.3256 23.3333 6.28394 22.2917 5.7631L13.9583 1.59644C13.0208 1.17977 11.9792 1.17977 11.1458 1.59644ZM12.5 3.2631C12.6042 3.2631 12.8125 3.2631 12.9167 3.36727L20.625 7.22144L12.5 11.2839L4.375 7.22144L12.0833 3.36727C12.1875 3.2631 12.2917 3.2631 12.5 3.2631ZM21.3542 19.4089C21.6667 19.2006 21.875 18.7839 21.875 18.4714V8.8881L13.5417 13.0548V23.2631L21.3542 19.4089ZM11.4583 23.2631L3.75001 19.4089C3.33334 19.2006 3.12501 18.8881 3.12501 18.4714V8.8881L11.4583 13.0548V23.2631Z" fill="white"/>
<mask id="mask0" mask-type="alpha" maskUnits="userSpaceOnUse" x="1" y="1" width="23" height="25">
<path fill-rule="evenodd" clip-rule="evenodd" d="M11.1458 1.59644L2.81251 5.7631C1.66668 6.28394 1.04168 7.3256 1.04168 8.47144V18.3673C1.04168 19.6173 1.77085 20.6589 2.81251 21.1798L11.1458 25.3464C11.5625 25.5548 11.9792 25.6589 12.5 25.6589C12.9167 25.6589 13.4375 25.5548 13.8542 25.3464L22.1875 21.1798C23.3333 20.6589 23.9583 19.5131 23.9583 18.3673V8.47144C23.9583 7.3256 23.3333 6.28394 22.2917 5.7631L13.9583 1.59644C13.0208 1.17977 11.9792 1.17977 11.1458 1.59644ZM12.5 3.2631C12.6042 3.2631 12.8125 3.2631 12.9167 3.36727L20.625 7.22144L12.5 11.2839L4.375 7.22144L12.0833 3.36727C12.1875 3.2631 12.2917 3.2631 12.5 3.2631ZM21.3542 19.4089C21.6667 19.2006 21.875 18.7839 21.875 18.4714V8.8881L13.5417 13.0548V23.2631L21.3542 19.4089ZM11.4583 23.2631L3.75001 19.4089C3.33334 19.2006 3.12501 18.8881 3.12501 18.4714V8.8881L11.4583 13.0548V23.2631Z" fill="white"/>
</mask>
<g mask="url(#mask0)">
<rect width="25" height="25" transform="matrix(-1 0 0 1 25 0.971436)" fill="#B5BBC9"/>
</g>
</svg>
