<svg width="120" height="135" viewBox="0 0 120 135" fill="none" xmlns="http://www.w3.org/2000/svg">
<path d="M60 128.708C93.1371 128.708 120 99.8954 120 64.3538C120 28.8122 93.1371 0 60 0C26.8629 0 0 28.8122 0 64.3538C0 99.8954 26.8629 128.708 60 128.708Z" fill="#E8EFF9"/>
<rect x="28.2666" y="133.856" width="50.6667" height="1.14407" fill="#ECECEC"/>
<rect x="28.2666" y="121.271" width="50.6667" height="1.14407" fill="#ECECEC"/>
<path d="M86.7939 115.937L37.9323 115.911C36.4554 115.911 35.2493 114.613 35.2493 113.025L35.2985 12.0384C35.2985 10.4498 36.5047 9.15234 37.9816 9.15234L86.8431 9.17882C88.32 9.17882 89.5262 10.4762 89.5262 12.0649L89.477 113.051C89.477 114.64 88.2708 115.937 86.7939 115.937Z" fill="#99B9EE"/>
<path d="M85.4647 102.54L39.2617 102.513C39.0893 102.513 38.9417 102.355 38.9417 102.169L38.9909 16.7783C38.9909 16.5929 39.1386 16.4341 39.3109 16.4341L85.514 16.4606C85.6863 16.4606 85.834 16.6194 85.834 16.8048L85.7847 102.196C85.8093 102.381 85.6616 102.54 85.4647 102.54Z" fill="white"/>
<path d="M69.563 13.7067H53.9076C53.4153 13.7067 53.0215 13.2831 53.0215 12.7535C53.0215 12.2239 53.4153 11.8003 53.9076 11.8003H69.563C70.0553 11.8003 70.4492 12.2239 70.4492 12.7535C70.4738 13.2831 70.0553 13.7332 69.563 13.7067Z" fill="#CDEAFB"/>
<path d="M72.1476 13.7331C71.6553 13.7331 71.2615 13.3094 71.2615 12.7799C71.2615 12.2503 71.6553 11.8267 72.1476 11.8267C72.6399 11.8267 73.0338 12.2503 73.0338 12.7799C73.0338 13.2829 72.6399 13.7331 72.1476 13.7331Z" fill="#CDEAFB"/>
<path d="M79.9999 102.394H44.2666V86.4185C44.2666 79.1449 49.7433 73.2202 56.5215 73.2202H67.745C74.4987 73.2202 79.9999 79.1184 79.9999 86.4185V102.394Z" fill="#FFBE55"/>
<path d="M62.1334 113.835C64.6371 113.835 66.6668 111.658 66.6668 108.973C66.6668 106.287 64.6371 104.11 62.1334 104.11C59.6297 104.11 57.6001 106.287 57.6001 108.973C57.6001 111.658 59.6297 113.835 62.1334 113.835Z" fill="#CDEAFB"/>
<path d="M68.2337 74.2966L67.6916 59.8669L57.0964 59.5498L56.4557 76.4637C56.3818 78.3137 57.8849 77.9701 59.6097 77.8908L65.4493 77.5737C67.0756 77.468 68.3076 76.0144 68.2337 74.2966Z" fill="#FACBB6"/>
<path d="M57.4907 62.8795L68.0613 69.5393L67.6917 59.8667L57.4907 62.8795Z" fill="#F6B7A0"/>
<path d="M80.332 49.586C80.332 51.938 78.5579 53.8409 76.365 53.8409C74.172 53.8409 72.3979 51.938 72.3979 49.586C72.3979 47.2339 74.172 45.3311 76.365 45.3311C78.5579 45.3311 80.332 47.2339 80.332 49.586Z" fill="#FACBB6"/>
<path d="M48.99 53.8413C51.1809 53.8413 52.957 51.9364 52.957 49.5864C52.957 47.2365 51.1809 45.3315 48.99 45.3315C46.7991 45.3315 45.0229 47.2365 45.0229 49.5864C45.0229 51.9364 46.7991 53.8413 48.99 53.8413Z" fill="#FACBB6"/>
<path d="M75.0098 41.9751C75.0098 47.3928 74.2706 52.0706 73.556 55.4005C72.8415 58.6511 70.821 60.9239 67.9874 62.7475L67.47 63.0646C64.4392 65.0203 60.5954 65.0731 57.5154 63.1967C54.4354 61.3204 52.2917 58.8361 51.6264 55.3476C50.4191 49.0049 50.2959 41.9751 50.2959 41.9751C50.2959 41.9751 49.1378 28.2854 62.468 28.5497C75.7983 28.8404 75.0098 41.9751 75.0098 41.9751Z" fill="#FACBB6"/>
<path d="M51.0104 47.5515C51.0104 47.5515 53.8193 37.826 51.7742 31.5361C51.7989 31.5361 43.9387 33.9411 51.0104 47.5515Z" fill="#01384F"/>
<path d="M74.5171 47.551C74.5171 47.551 70.9689 37.8255 73.014 31.5356C72.9894 31.5356 80.3321 33.4649 74.5171 47.551Z" fill="#01384F"/>
<path d="M52.3657 35.8968C52.3657 35.8968 54.608 31.5362 58.6489 33.9411C62.6899 36.3461 66.6816 38.6453 73.9011 36.7425L72.9401 31.5097C72.9401 31.5097 62.9117 20.0664 51.7251 31.5097L52.3657 35.8968Z" fill="#01384F"/>
<path d="M51.7251 31.5094C51.7251 31.5094 52.3657 23.581 62.8131 22.8939C73.2605 22.2068 76.3405 28.1795 76.3405 28.1795L74.4432 28.5495C74.4432 28.5495 78.0899 30.2409 79.0509 31.8794L77.0057 32.6458L79.7161 35.2358C79.7161 35.2358 71.1907 38.7771 66.4845 36.8743L62.5667 30.5316L51.7251 31.5094Z" fill="#01384F"/>
<path d="M58.2547 72.896L53.8441 72.9753C53.8441 72.9753 53.376 78.9744 61.9753 79.2651C70.5747 79.5558 70.7225 73.3453 70.7225 73.3453L66.0656 72.896H58.2547V72.896Z" fill="#FACBB6"/>
<path fill-rule="evenodd" clip-rule="evenodd" d="M45.8667 65.7839H77.8667V31.4619H45.8667V65.7839ZM77.4456 65.3582H46.2877V31.887H77.4456V65.3582Z" fill="#347AF0"/>
<rect x="46.3999" y="42.3306" width="31.4667" height="14.8729" fill="#347AF0"/>
<path d="M76.8 37.7543H76.4021V33.0328H72V32.606H76.8V37.7543Z" fill="#347AF0"/>
<path d="M47.354 37.7543H46.9333V32.606H51.7333V33.0328H47.354V37.7543Z" fill="#347AF0"/>
<path d="M51.7333 64.64H46.9333V59.4917H47.354V64.1889H51.7333V64.64Z" fill="#347AF0"/>
<path d="M76.8 64.64H72V64.1889H76.4021V59.4917H76.8V64.64Z" fill="#347AF0"/>
</svg>
