<svg width="58" height="59" viewBox="0 0 58 59" fill="none" xmlns="http://www.w3.org/2000/svg">
<path fill-rule="evenodd" clip-rule="evenodd" d="M29 58.9714C45.0163 58.9714 58 45.9877 58 29.9714C58 13.9552 45.0163 0.971436 29 0.971436C12.9837 0.971436 0 13.9552 0 29.9714C0 45.9877 12.9837 58.9714 29 58.9714Z" fill="#3783F5"/>
<path d="M39 29.9714C39 30.7214 38.5 31.2214 37.75 31.2214H30.25V38.7214C30.25 39.4714 29.75 39.9714 29 39.9714C28.25 39.9714 27.75 39.4714 27.75 38.7214V31.2214H20.25C19.5 31.2214 19 30.7214 19 29.9714C19 29.2214 19.5 28.7214 20.25 28.7214H27.75V21.2214C27.75 20.4714 28.25 19.9714 29 19.9714C29.75 19.9714 30.25 20.4714 30.25 21.2214V28.7214H37.75C38.5 28.7214 39 29.2214 39 29.9714Z" fill="white"/>
<mask id="mask0" mask-type="alpha" maskUnits="userSpaceOnUse" x="19" y="19" width="20" height="21">
<path d="M39 29.9714C39 30.7214 38.5 31.2214 37.75 31.2214H30.25V38.7214C30.25 39.4714 29.75 39.9714 29 39.9714C28.25 39.9714 27.75 39.4714 27.75 38.7214V31.2214H20.25C19.5 31.2214 19 30.7214 19 29.9714C19 29.2214 19.5 28.7214 20.25 28.7214H27.75V21.2214C27.75 20.4714 28.25 19.9714 29 19.9714C29.75 19.9714 30.25 20.4714 30.25 21.2214V28.7214H37.75C38.5 28.7214 39 29.2214 39 29.9714Z" fill="white"/>
</mask>
<g mask="url(#mask0)">
<rect x="14" y="14.9714" width="30" height="30" fill="white"/>
</g>
</svg>
