<svg width="242" height="218" viewBox="0 0 242 218" fill="none" xmlns="http://www.w3.org/2000/svg">
<path d="M21.0309 177.412C21.5587 178.564 22.1421 179.717 22.7811 180.821C32.2825 197.277 51.5631 207.65 72.1216 209.514C88.5685 210.986 104.571 206.252 118.323 198.527C132.047 190.827 143.049 179.987 158.301 174.346C179.804 166.425 203.78 160.171 220.643 143.396C239.813 124.341 247.203 95.4513 238.174 71.074C229.394 47.2853 200.251 39.5847 177.609 29.1128C136.909 10.2535 80.5395 -2.27846 38.1722 19.8671C-12.5851 46.3779 -3.36158 106.561 12.7241 148.326C16.3913 157.841 16.8358 168.093 21.0309 177.412Z" fill="#E8EFF9"/>
<path fill-rule="evenodd" clip-rule="evenodd" d="M46.8402 64.1827L46.9235 64.6487C46.9235 64.6531 46.9256 64.6709 46.9291 64.7013C47.0425 65.6752 48.6687 79.6398 32.5048 86.9168L32.227 87.0394L31.9491 86.9168C15.3356 79.4124 17.5026 64.7958 17.5304 64.6487L17.6137 64.1827H18.1416C28.4486 64.1827 31.7547 61.2643 31.7824 61.2398L32.227 60.7983L32.6715 61.2398C32.6992 61.2643 36.0331 64.1827 46.3123 64.1827H46.8402ZM32.1993 85.8134C38.2557 83.0176 42.3674 78.9465 44.4233 73.6983C45.9235 69.848 45.8402 66.5127 45.729 65.2864C37.1722 65.1883 33.3661 63.1528 32.1993 62.3435C31.0325 63.1773 27.2264 65.1883 18.6696 65.2864C18.5584 66.4881 18.4751 69.848 19.9753 73.6983C22.0312 78.9465 26.1429 83.0176 32.1993 85.8134Z" fill="#99B9EE"/>
<path fill-rule="evenodd" clip-rule="evenodd" d="M62.6482 44.5142L63.2316 45.8631L67.4266 45.2499L67.4822 43.803C67.9545 43.6068 68.399 43.3616 68.8157 43.0673L70.3159 43.6559L72.7885 40.5903L71.6772 39.5358C71.8439 39.0943 71.9551 38.6529 72.0384 38.1869L73.5664 37.6719L72.8719 33.9687L71.2327 33.9197C71.0105 33.5028 70.7327 33.1104 70.3993 32.7425L71.066 31.4182L67.6211 29.2355L66.4265 30.2165C65.9264 30.0693 65.4263 29.9467 64.8985 29.8977L64.3151 28.5488L60.12 29.1619L60.0644 30.6089C59.5922 30.8051 59.1476 31.0503 58.7309 31.3446L57.2307 30.756L54.7581 33.8216L55.8694 34.8761C55.7027 35.3176 55.5638 35.759 55.5082 36.225L53.9802 36.74L54.6748 40.4432L56.3139 40.4922C56.5362 40.9091 56.814 41.3015 57.1474 41.6694L56.4806 42.9937L59.9255 45.1764L61.1202 44.1954C61.6202 44.3425 62.1203 44.4652 62.6482 44.5142ZM61.1757 43.1409L60.8423 43.0183L59.8144 43.8521L57.9252 42.6504L58.5086 41.5223L58.2864 41.2771C57.8696 40.8111 57.5085 40.3206 57.2307 39.7811L57.0917 39.4868L55.7027 39.4377L55.3137 37.4022L56.6195 36.9608L56.6472 36.6419C56.7028 36.0534 56.8417 35.4648 57.0917 34.9252L57.2307 34.6309L56.2583 33.7235L57.6196 32.0559L58.8976 32.5709L59.1754 32.3747C59.7032 32.0068 60.2589 31.688 60.8701 31.4428L61.2035 31.3202L61.259 30.0939L63.5649 29.7506L64.065 30.9032L64.4261 30.9278C65.0929 30.9768 65.7597 31.0994 66.3709 31.3202L66.7043 31.4428L67.7322 30.6089L69.6213 31.8106L69.0379 32.9388L69.2602 33.184C69.6769 33.65 70.0381 34.1405 70.3159 34.68L70.4548 34.9743L71.8439 35.0233L72.2328 37.0589L70.9271 37.5003L70.8993 37.8191C70.8437 38.4077 70.7048 38.9963 70.4548 39.5358L70.3159 39.8301L71.2883 40.7375L69.9269 42.4052L68.649 41.8902L68.3712 42.0864C67.8433 42.4542 67.2877 42.773 66.6765 43.0183L66.3431 43.1409L66.2875 44.3671L63.9816 44.7105L63.4816 43.5578L63.1204 43.5333C62.4536 43.4843 61.7869 43.3616 61.1757 43.1409ZM63.7314 41.3018C62.7868 41.3018 61.8423 41.032 61.0644 40.5415C58.9807 39.2417 58.5084 36.6912 59.9809 34.8518C61.4533 33.0125 64.3426 32.5956 66.4263 33.8954C67.4264 34.533 68.0932 35.465 68.3154 36.544C68.5099 37.6231 68.2321 38.7022 67.5375 39.585C66.8152 40.4679 65.7595 41.0565 64.5371 41.2527L64.3965 41.2642L64.3964 41.2642C64.1526 41.2844 63.942 41.3018 63.7314 41.3018ZM60.9256 35.4403C61.5924 34.6065 62.6481 34.1651 63.7316 34.1651C64.4262 34.1651 65.1207 34.3613 65.7319 34.7291C66.482 35.1951 66.9543 35.8818 67.121 36.6911C67.2877 37.5004 67.0654 38.3097 66.5376 38.9718C66.0097 39.634 65.2318 40.0509 64.315 40.1981C63.3982 40.3452 62.4814 40.149 61.7313 39.6831C60.9812 39.2171 60.5089 38.5304 60.3422 37.7211C60.1755 36.9118 60.3978 36.1025 60.9256 35.4403Z" fill="#99B9EE"/>
<path fill-rule="evenodd" clip-rule="evenodd" d="M195.112 82.8218L196.417 85.8383L205.169 84.5385L205.28 81.3258C206.558 80.7863 207.752 80.1241 208.836 79.3638L212.17 80.6882L217.309 74.3118L214.809 71.9575C215.281 70.8048 215.587 69.5786 215.754 68.3524L219.171 67.1997L217.698 59.4746L214.059 59.3765C213.448 58.2483 212.698 57.1938 211.836 56.2373L213.337 53.2944L206.113 48.7574L203.446 50.9646C202.14 50.5477 200.751 50.2779 199.362 50.1308L198.057 47.1143L189.305 48.4141L189.194 51.6267C187.916 52.1663 186.722 52.8284 185.638 53.5887L182.304 52.2644L177.165 58.6407L179.665 60.9951C179.193 62.1477 178.887 63.3739 178.72 64.6002L175.303 65.7528L176.776 73.478L180.415 73.5761C181.026 74.7042 181.776 75.7588 182.638 76.7152L181.137 79.6581L188.361 84.1951L191.028 81.988C192.333 82.4049 193.723 82.6746 195.112 82.8218ZM191.083 80.5653L190.639 80.4181L188.25 82.4536L183.11 79.2164L184.471 76.5187L184.166 76.1999C183.138 75.1208 182.276 73.9191 181.638 72.6439L181.443 72.2515L178.109 72.1534L177.054 66.6599L180.165 65.6054L180.193 65.1639C180.332 63.766 180.693 62.3927 181.249 61.0929L181.415 60.7005L179.137 58.5424L182.749 54.0053L185.805 55.207L186.166 54.9373C187.388 54.0299 188.75 53.2696 190.194 52.7055L190.639 52.5339L190.75 49.5909L196.973 48.659L198.168 51.4058L198.668 51.4303C200.251 51.5529 201.807 51.8717 203.28 52.3622L203.724 52.5093L206.169 50.4983L211.308 53.7356L209.947 56.4333L210.253 56.7521C211.281 57.8311 212.142 59.0328 212.781 60.3081L212.975 60.7005L216.309 60.7986L217.365 66.2921L214.253 67.3466L214.226 67.788C214.087 69.1859 213.726 70.5593 213.17 71.8591L213.003 72.2515L215.281 74.4096L211.614 78.9466L208.558 77.745L208.197 78.0147C206.975 78.9221 205.613 79.6824 204.169 80.2464L203.724 80.4181L203.613 83.361L197.39 84.293L196.195 81.5462L195.695 81.4972C194.112 81.3746 192.556 81.0557 191.083 80.5653ZM197.195 75.3663C195.167 75.3663 193.139 74.8268 191.361 73.7232C186.833 70.8783 185.777 65.3113 189 61.3138C192.222 57.3164 198.529 56.3844 203.057 59.2293C207.586 62.0741 208.642 67.6411 205.419 71.6386C203.446 74.0665 200.335 75.3663 197.195 75.3663ZM190.278 62.1231C191.917 60.0631 194.556 58.9595 197.223 58.9595C198.918 58.9595 200.64 59.4009 202.168 60.3573C204.03 61.5345 205.252 63.2512 205.641 65.2377C206.002 67.2242 205.474 69.2107 204.169 70.8538C201.446 74.2382 196.112 75.0229 192.278 72.6195C190.417 71.4424 189.194 69.7257 188.805 67.7392C188.444 65.7527 188.944 63.7662 190.278 62.1231Z" fill="#99B9EE"/>
<path d="M61.1479 141.018C59.8144 137.707 58.2864 133.98 59.9811 130.154C62.2592 125.004 57.4251 122.355 53.1745 119.976C49.5073 117.965 46.0624 116.052 47.2292 112.889C48.5072 109.455 48.4238 106.807 46.9792 105.065C45.7568 103.594 43.5898 102.809 40.7005 102.834C38.3946 102.858 36.3387 100.357 34.144 97.7325C31.5603 94.6425 28.921 91.4543 25.5872 92.1655C25.0038 92.2881 24.5315 92.5824 24.2537 93.0484C23.0868 94.9858 24.9204 99.5964 26.8929 104.501C29.0044 109.799 31.4214 115.782 29.8378 118.333C28.1153 121.129 31.2269 123.679 34.5329 126.402C38.0334 129.271 42.0062 132.533 40.9505 136.628C39.9504 140.454 39.7281 141.876 40.3393 142.71C40.8116 143.372 41.784 143.52 43.2564 143.765C44.2566 143.937 45.5345 144.133 47.0903 144.574C53.7857 146.413 55.7305 150.239 55.7582 150.288L55.8416 150.46L56.0361 150.435C59.2588 149.994 61.1479 149.185 62.0369 147.885C62.0925 147.811 62.1203 147.738 62.1758 147.664C63.1204 145.923 62.2036 143.642 61.1479 141.018Z" fill="#CEDCF3"/>
<path d="M44.0343 133.71C45.1456 135.23 45.9513 136.554 45.8679 138.418C45.8124 140.16 45.5068 141.876 45.3401 143.593C45.3123 143.961 45.2845 144.304 45.2567 144.648C44.7011 144.231 44.1732 143.814 43.6176 143.397C43.3676 143.372 43.1175 143.372 42.8397 143.372C43.6176 143.936 44.4233 144.549 45.2012 145.163C45.1178 146.364 45.09 147.566 45.09 148.768C45.09 149.479 45.0623 150.239 45.1178 150.95C44.3955 150.558 43.6454 150.166 42.9508 149.773C40.7839 148.596 38.7558 147.492 37.2 146.904C36.0054 146.462 34.6719 146.07 33.3939 145.702C30.0601 144.746 26.6429 143.765 25.5039 141.68C24.9204 140.601 24.976 139.301 25.6705 137.732C27.4208 133.685 25.7817 132.998 23.0313 131.821C21.031 130.963 18.3084 129.81 15.5857 126.892C14.3911 125.617 13.3354 124.513 12.3908 123.557C9.58488 120.638 8.0291 119.044 8.22357 118.112C8.27913 117.891 8.41804 117.695 8.69586 117.499C8.83477 117.401 9.00146 117.303 9.22371 117.205C10.2794 116.69 11.3351 117.082 12.5297 117.524C14.1411 118.112 16.1136 118.872 18.864 117.622C21.031 116.641 23.448 115.733 24.8927 116.469C25.8928 116.959 26.4762 118.235 26.6707 120.319C26.7263 120.981 26.9763 121.447 27.393 121.717C28.0042 122.11 28.9488 122.061 30.0323 121.864C30.7824 122.772 31.7548 123.213 32.9216 123.581C34.5607 124.096 35.7831 124.562 36.9777 125.739C39.5337 128.29 42.0063 130.889 44.0343 133.71Z" fill="#CEDCF3"/>
<path d="M35.172 137.756C33.5051 136.775 32.0604 134.396 30.6713 132.091C28.7821 128.952 26.8096 125.714 24.1148 125.788C19.7808 125.886 15.9192 121.374 15.8636 121.349L15.5024 121.594C15.6691 121.791 19.5586 126.303 24.1148 126.205C26.5318 126.156 28.4488 129.271 30.2546 132.312C31.6715 134.641 33.1439 137.069 34.8941 138.124C35.9499 138.737 37.8946 139.988 40.2005 141.582C40.2005 141.41 40.2005 141.238 40.2005 141.067C38.1724 139.571 36.3666 138.443 35.172 137.756Z" fill="white"/>
<path d="M181.582 168.142C181.582 168.142 184.082 162.648 179.526 154.85C174.942 147.051 171.247 148.253 182.277 142.244C193.306 136.236 182.332 117.352 191.722 114.948C201.113 112.545 209.253 81.9632 216.393 85.8626C223.533 89.7619 214.003 104.746 219.115 109.259C224.199 113.771 224.894 119.486 214.365 124.121C203.835 128.756 221.838 146.462 207.558 151.858C193.278 157.253 197.39 178.418 181.582 168.142Z" fill="#CEDCF3"/>
<path d="M185.944 173.954C185.916 173.881 184.388 166.867 189.25 157.793C194.195 148.547 196.556 138.443 195.584 130.742C195.056 126.573 198.084 124.955 201.001 123.385C203.891 121.84 206.863 120.221 206.697 116.126C206.558 112.423 208.336 103.741 208.391 103.373L209.03 103.471C209.003 103.569 207.197 112.472 207.336 116.101C207.502 120.54 204.363 122.232 201.335 123.851C198.445 125.396 195.751 126.867 196.223 130.669C197.223 138.443 194.834 148.67 189.833 158.013C185.082 166.916 186.555 173.758 186.583 173.832L185.944 173.954Z" fill="white"/>
<path d="M223.866 128.388C227.839 126.72 232.062 127.481 229.867 130.988C227.672 134.495 224.394 134.764 225.005 137.536C225.616 140.307 227.228 143.323 222.06 145.089C216.893 146.83 214.476 146.536 211.336 151.662C208.169 156.787 207.086 160.589 201.668 159.362C196.251 158.112 200.752 151.809 203.558 149.16C203.558 149.16 207.364 146.315 207.308 141.19C207.253 136.064 204.863 132.631 212.364 132.974C219.865 133.268 221.171 129.516 223.866 128.388Z" fill="#CEDCF3"/>
<path d="M200.807 162.943C201.029 162.281 206.252 146.413 210.531 144.697C214.893 142.931 217.254 138.32 218.282 135.745C219.615 132.385 225.311 131.723 225.533 131.699L225.616 132.263C225.561 132.263 220.088 132.9 218.893 135.917C217.615 139.179 215.17 143.446 210.809 145.212C206.808 146.83 201.502 162.943 201.446 163.114L200.807 162.943Z" fill="white"/>
<path d="M63.2037 150.166C54.6469 148.277 54.5357 144.206 54.4246 140.282C54.3413 137.07 54.2579 134.029 49.6184 132.165C43.4786 129.688 43.3397 125.102 43.2008 121.055C43.0896 118.039 43.0063 115.194 40.4504 113.649C34.3106 109.946 29.1154 100.97 29.0598 100.872L29.5321 100.651C29.5877 100.749 34.6995 109.602 40.756 113.256C43.5341 114.924 43.6453 117.892 43.7286 121.031C43.8675 125.126 44.0064 129.393 49.8406 131.723C54.758 133.71 54.8691 137.045 54.9525 140.258C55.0636 144.182 55.1747 147.909 63.3426 149.7L63.2037 150.166Z" fill="white"/>
<path d="M51.6741 146.536H192.222V56.9729C192.222 55.6976 191.055 54.6431 189.583 54.6431H54.3133C52.8687 54.6431 51.6741 55.6731 51.6741 56.9729V146.536Z" fill="#E0E9F8"/>
<rect x="186.991" y="129.838" width="130.352" height="70.7038" transform="rotate(-180 186.991 129.838)" fill="#0B4870" stroke="white" stroke-width="0.5"/>
<path d="M192.222 133.268H121.962H51.7297L36.3386 184.009H122.434H207.586L192.222 133.268Z" fill="#E0E9F8"/>
<path d="M57.036 142.171H65.6762C66.0374 142.171 66.3152 142.416 66.2318 142.686L65.3984 145.997C65.3428 146.193 65.1206 146.34 64.8427 146.34H56.0637C55.7025 146.34 55.4247 146.095 55.508 145.801L56.4804 142.49C56.536 142.318 56.7582 142.171 57.036 142.171Z" fill="#99B9EE" stroke="#7AA7F1" stroke-width="0.5"/>
<path d="M69.6212 142.171H76.15L75.2887 146.365H68.6211L69.6212 142.171Z" fill="#99B9EE" stroke="#7AA7F1" stroke-width="0.5"/>
<path d="M79.4004 142.171H85.9291L85.2624 146.365H78.5947L79.4004 142.171Z" fill="#99B9EE" stroke="#7AA7F1" stroke-width="0.5"/>
<path d="M89.2076 142.171H95.7363L95.2362 146.365H88.5686L89.2076 142.171Z" fill="#99B9EE" stroke="#7AA7F1" stroke-width="0.5"/>
<path d="M98.9865 142.171H105.515L105.21 146.365H98.542L98.9865 142.171Z" fill="#99B9EE" stroke="#7AA7F1" stroke-width="0.5"/>
<path d="M108.766 142.171H115.294L115.183 146.365H108.516L108.766 142.171Z" fill="#99B9EE" stroke="#7AA7F1" stroke-width="0.5"/>
<path d="M187.11 142.171H177.303L178.359 146.365H188.333L187.11 142.171Z" fill="#99B9EE" stroke="#7AA7F1" stroke-width="0.5"/>
<path d="M174.053 142.171H167.524L168.386 146.365H175.053L174.053 142.171Z" fill="#99B9EE" stroke="#7AA7F1" stroke-width="0.5"/>
<path d="M164.274 142.171H157.745L158.412 146.365H165.08L164.274 142.171Z" fill="#99B9EE" stroke="#7AA7F1" stroke-width="0.5"/>
<path d="M154.467 142.171H147.938L148.438 146.365H155.106L154.467 142.171Z" fill="#99B9EE" stroke="#7AA7F1" stroke-width="0.5"/>
<path d="M144.688 142.171H138.159L138.465 146.365H145.132L144.688 142.171Z" fill="#99B9EE" stroke="#7AA7F1" stroke-width="0.5"/>
<path d="M134.909 142.171H128.38L128.491 146.365H135.159L134.909 142.171Z" fill="#99B9EE" stroke="#7AA7F1" stroke-width="0.5"/>
<path d="M118.573 142.171H125.101L125.185 146.365H118.573V142.171Z" fill="#99B9EE" stroke="#7AA7F1" stroke-width="0.5"/>
<path d="M54.1744 149.479H67.7875L67.0096 153.795H53.1187L54.1744 149.479Z" fill="#99B9EE" stroke="#7AA7F1" stroke-width="0.5"/>
<path d="M189.222 149.479H172.386L173.331 153.795H190.528L189.222 149.479Z" fill="#99B9EE" stroke="#7AA7F1" stroke-width="0.5"/>
<path d="M168.997 149.479H162.274L163.024 153.795H169.914L168.997 149.479Z" fill="#99B9EE" stroke="#7AA7F1" stroke-width="0.5"/>
<path d="M158.884 149.479H152.161L152.717 153.795H159.607L158.884 149.479Z" fill="#99B9EE" stroke="#7AA7F1" stroke-width="0.5"/>
<path d="M148.772 149.479H142.049L142.438 153.795H149.3L148.772 149.479Z" fill="#99B9EE" stroke="#7AA7F1" stroke-width="0.5"/>
<path d="M138.659 149.479H131.936L132.13 153.795H138.992L138.659 149.479Z" fill="#99B9EE" stroke="#7AA7F1" stroke-width="0.5"/>
<path d="M52.1188 157.155H66.0653L65.0373 161.447H50.8408L52.1188 157.155Z" fill="#99B9EE" stroke="#7AA7F1" stroke-width="0.5"/>
<path d="M69.5381 157.155H76.5113L75.7057 161.447H68.5935L69.5381 157.155Z" fill="#99B9EE" stroke="#7AA7F1" stroke-width="0.5"/>
<path d="M80.0118 157.155H86.985H132.269L132.464 161.447H79.2339L80.0118 157.155Z" fill="#99B9EE" stroke="#7AA7F1" stroke-width="0.5"/>
<path d="M135.77 157.155H142.743L143.132 161.447H136.02L135.77 157.155Z" fill="#99B9EE" stroke="#7AA7F1" stroke-width="0.5"/>
<path d="M146.216 157.155H153.189L153.772 161.447H146.66L146.216 157.155Z" fill="#99B9EE" stroke="#7AA7F1" stroke-width="0.5"/>
<path d="M156.689 157.155H163.663L164.413 161.447H157.328L156.689 157.155Z" fill="#99B9EE" stroke="#7AA7F1" stroke-width="0.5"/>
<path d="M167.135 157.155H174.109L175.053 161.447H167.969L167.135 157.155Z" fill="#99B9EE" stroke="#7AA7F1" stroke-width="0.5"/>
<path d="M177.581 157.155H191.528L192.806 161.447H178.609L177.581 157.155Z" fill="#99B9EE" stroke="#7AA7F1" stroke-width="0.5"/>
<path d="M128.574 149.479H121.879V153.795H128.685L128.574 149.479Z" fill="#99B9EE" stroke="#7AA7F1" stroke-width="0.5"/>
<path d="M118.462 149.479H111.711L111.516 153.795H118.406L118.462 149.479Z" fill="#99B9EE" stroke="#7AA7F1" stroke-width="0.5"/>
<path d="M108.349 149.479H101.598L101.209 153.795H108.099L108.349 149.479Z" fill="#99B9EE" stroke="#7AA7F1" stroke-width="0.5"/>
<path d="M98.2365 149.479H91.4855L90.9021 153.795H97.792L98.2365 149.479Z" fill="#99B9EE" stroke="#7AA7F1" stroke-width="0.5"/>
<path d="M88.1238 149.479H81.3729L80.595 153.795H87.4849L88.1238 149.479Z" fill="#99B9EE" stroke="#7AA7F1" stroke-width="0.5"/>
<path d="M78.0112 149.479H71.2603L70.3157 153.795H77.1778L78.0112 149.479Z" fill="#99B9EE" stroke="#7AA7F1" stroke-width="0.5"/>
<path d="M57.3416 139.547L58.4528 135.819H61.62L60.592 139.547H57.3416Z" fill="#99B9EE" stroke="#7AA7F1" stroke-width="0.5"/>
<path d="M64.7873 135.819H71.1215L70.2603 139.547H63.7871L64.7873 135.819Z" fill="#99B9EE" stroke="#7AA7F1" stroke-width="0.5"/>
<path d="M74.3164 135.819H80.6506L79.9283 139.547H73.4829L74.3164 135.819Z" fill="#99B9EE" stroke="#7AA7F1" stroke-width="0.5"/>
<path d="M83.8179 135.819H90.1521L89.5965 139.547H83.1511L83.8179 135.819Z" fill="#99B9EE" stroke="#7AA7F1" stroke-width="0.5"/>
<path d="M93.3192 135.819H99.6534L99.2645 139.547H92.8191L93.3192 135.819Z" fill="#99B9EE" stroke="#7AA7F1" stroke-width="0.5"/>
<path d="M102.821 135.819H109.155L108.933 139.547H102.487L102.821 135.819Z" fill="#99B9EE" stroke="#7AA7F1" stroke-width="0.5"/>
<path d="M112.322 135.819H118.656L118.601 139.547H112.155L112.322 135.819Z" fill="#99B9EE" stroke="#7AA7F1" stroke-width="0.5"/>
<path d="M121.823 135.819H128.157L128.269 139.547H121.823V135.819Z" fill="#99B9EE" stroke="#7AA7F1" stroke-width="0.5"/>
<path d="M131.325 135.819H137.659L137.937 139.547H131.491L131.325 135.819Z" fill="#99B9EE" stroke="#7AA7F1" stroke-width="0.5"/>
<path d="M140.826 135.819H147.188L147.605 139.547H141.16L140.826 135.819Z" fill="#99B9EE" stroke="#7AA7F1" stroke-width="0.5"/>
<path d="M150.355 135.819H156.689L157.301 139.547H150.855L150.355 135.819Z" fill="#99B9EE" stroke="#7AA7F1" stroke-width="0.5"/>
<path d="M159.856 135.819H166.191L166.969 139.547H160.523L159.856 135.819Z" fill="#99B9EE" stroke="#7AA7F1" stroke-width="0.5"/>
<path d="M169.358 135.819H175.692L176.637 139.547H170.192L169.358 135.819Z" fill="#99B9EE" stroke="#7AA7F1" stroke-width="0.5"/>
<path d="M178.859 135.819H185.194L186.305 139.547H179.86L178.859 135.819Z" fill="#99B9EE" stroke="#7AA7F1" stroke-width="0.5"/>
<path d="M203.113 187.958H40.8115C38.3389 187.958 36.3386 186.192 36.3386 184.009H207.586C207.586 186.192 205.585 187.958 203.113 187.958Z" fill="#CEDCF3"/>
<path d="M141.882 167.603C141.715 166.72 140.826 166.058 139.826 166.058H121.99H104.126C103.098 166.058 102.237 166.72 102.07 167.603L99.8477 179.497C99.6255 180.625 100.626 181.655 101.904 181.655H121.962H142.021C143.326 181.655 144.299 180.625 144.076 179.497L141.882 167.603Z" fill="#CEDCF3"/>
<rect x="65.4265" y="65.1401" width="14.5299" height="1.32432" fill="#F7F7F7"/>
<rect x="84.0398" y="75.0225" width="10.4737" height="1.32432" fill="#F7F7F7"/>
<rect x="96.1528" y="75.0225" width="6.94545" height="1.32432" fill="#F7F7F7"/>
<rect x="65.5928" y="99.8906" width="6.94545" height="1.32432" fill="#F7F7F7"/>
<rect x="104.487" y="75.0225" width="16.808" height="1.32432" fill="#F7F7F7"/>
<rect x="65.5928" y="94.9121" width="10.8071" height="1.32432" fill="#F7F7F7"/>
<rect x="80.6504" y="104.82" width="6.58429" height="1.32432" fill="#F7F7F7"/>
<rect x="65.5928" y="104.82" width="13.0575" height="1.32432" fill="#F7F7F7"/>
<rect x="65.5928" y="109.774" width="7.19549" height="1.32432" fill="#F7F7F7"/>
<rect x="82.7896" y="65.1396" width="10.3071" height="1.32432" fill="#F7F7F7"/>
<rect x="82.7896" y="79.9766" width="10.3071" height="1.32432" fill="#F7F7F7"/>
<rect x="77.6223" y="84.9062" width="4.41731" height="1.32432" fill="#F7F7F7"/>
<rect x="73.2327" y="89.9336" width="9.89033" height="1.32432" fill="#F7F7F7"/>
<rect x="84.6233" y="89.9336" width="13.6687" height="1.32432" fill="#F7F7F7"/>
<rect x="65.5928" y="84.9551" width="10.3071" height="1.32432" fill="#F7F7F7"/>
<rect x="65.5928" y="89.9336" width="6.112" height="1.32432" fill="#F7F7F7"/>
<rect x="84.1233" y="84.9551" width="5.77862" height="1.32432" fill="#F7F7F7"/>
<rect x="65.7874" y="114.703" width="5.77862" height="1.32432" fill="#F7F7F7"/>
<rect x="65.5649" y="75.0225" width="10.3071" height="1.32432" fill="#F7F7F7"/>
<rect x="74.6775" y="99.8906" width="10.3071" height="1.32432" fill="#F7F7F7"/>
<rect x="74.8164" y="109.774" width="10.3071" height="1.32432" fill="#F7F7F7"/>
<rect x="93.1245" y="109.774" width="10.3071" height="1.32432" fill="#F7F7F7"/>
<rect x="65.5649" y="79.9766" width="14.6966" height="1.32432" fill="#F7F7F7"/>
<rect x="134.436" y="65.1396" width="10.3071" height="1.32432" fill="#F7F7F7"/>
<rect x="97.7085" y="114.703" width="10.3071" height="1.32432" fill="#F7F7F7"/>
<rect x="147.938" y="65.1396" width="6.88989" height="1.32432" fill="#F7F7F7"/>
<rect x="171.302" y="70.0938" width="6.88989" height="1.32432" fill="#F7F7F7"/>
<rect x="95.875" y="65.1396" width="13.1408" height="1.32432" fill="#F7F7F7"/>
<rect x="147.049" y="70.0938" width="13.1408" height="1.32432" fill="#F7F7F7"/>
<rect x="130.936" y="75.0225" width="13.1408" height="1.32432" fill="#F7F7F7"/>
<rect x="113.85" y="79.9766" width="13.1408" height="1.32432" fill="#F7F7F7"/>
<rect x="145.716" y="75.0225" width="9.33469" height="1.32432" fill="#F7F7F7"/>
<rect x="118.711" y="65.1396" width="13.1408" height="1.32432" fill="#F7F7F7"/>
<rect x="103.737" y="79.9766" width="7.69556" height="1.32432" fill="#F7F7F7"/>
<rect x="97.7085" y="99.9639" width="7.69556" height="1.32432" fill="#F7F7F7"/>
<rect x="111.433" y="65.1396" width="4.80625" height="1.32432" fill="#F7F7F7"/>
<rect x="95.875" y="79.9766" width="4.80625" height="1.32432" fill="#F7F7F7"/>
<rect x="163.357" y="70.0938" width="4.80625" height="1.32432" fill="#F7F7F7"/>
<rect x="65.426" y="70.0938" width="7.52887" height="1.32432" fill="#F7F7F7"/>
<rect x="85.5125" y="94.9365" width="5.94531" height="1.32432" fill="#F7F7F7"/>
<rect x="74.8164" y="70.0938" width="2.41702" height="1.32432" fill="#F7F7F7"/>
<rect x="124.657" y="70.0938" width="20.0863" height="1.32432" fill="#F7F7F7"/>
<rect x="105.404" y="109.774" width="20.0863" height="1.32432" fill="#F7F7F7"/>
<rect x="79.0115" y="70.0938" width="2.47258" height="1.32432" fill="#F7F7F7"/>
<rect x="116.239" y="70.0938" width="6.55651" height="1.32432" fill="#F7F7F7"/>
<rect x="122.823" y="75.0225" width="6.55651" height="1.32432" fill="#F7F7F7"/>
<rect x="89.0408" y="114.703" width="6.55651" height="1.32432" fill="#F7F7F7"/>
<rect x="100.542" y="70.0938" width="13.9743" height="1.32432" fill="#F7F7F7"/>
<rect x="87.5127" y="99.9639" width="8.16785" height="1.32432" fill="#F7F7F7"/>
<rect x="87.0125" y="109.774" width="4.08393" height="1.32432" fill="#F7F7F7"/>
<rect x="93.7356" y="70.0938" width="4.80625" height="1.32432" fill="#F7F7F7"/>
<rect x="77.5667" y="75.0225" width="4.80625" height="1.32432" fill="#F7F7F7"/>
<rect x="78.5112" y="94.9365" width="4.80625" height="1.32432" fill="#F7F7F7"/>
<rect x="83.5398" y="70.0938" width="8.39011" height="1.32432" fill="#F7F7F7"/>
<path d="M153.883 80.0253C153.883 80.0253 156.328 83.6794 157.356 84.268C158.745 85.0773 157.884 85.8866 157.217 85.9112C156.55 85.9112 153.161 86.1319 152.411 85.3716C151.661 84.6114 151.3 82.3797 150.605 81.7911C149.911 81.2025 149.188 78.8727 150.939 78.3086C152.467 77.7936 153.883 80.0253 153.883 80.0253Z" fill="#FFB750"/>
<path d="M152.8 78.4316C152.8 78.4316 155.606 82.7234 156.078 83.3365C156.55 83.9741 155.161 83.9741 154.3 83.6798C153.439 83.3855 151.272 80.32 150.966 79.7559C150.605 79.0938 150.911 78.3335 150.911 78.3335L152.8 78.4316Z" fill="#FFE3CA"/>
<path d="M149.966 80.7124L150.633 85.1023L150.966 85.1268L150.855 81.9631L149.966 80.7124Z" fill="#FFB750"/>
<path d="M129.63 80.0258C129.63 80.0258 132.075 83.6799 133.103 84.2685C134.492 85.0778 133.63 85.8871 132.964 85.9116C132.297 85.9116 128.908 86.1323 128.157 85.3721C127.407 84.6118 127.046 82.3801 126.352 81.7915C125.657 81.2029 124.907 78.7995 126.685 78.309C128.241 77.8676 129.63 80.0258 129.63 80.0258Z" fill="#FFB750"/>
<path d="M128.713 78.4316C128.713 78.4316 131.353 82.6988 131.853 83.3365C132.325 83.9741 130.936 83.9741 130.075 83.6798C129.213 83.3855 127.046 80.32 126.741 79.7559C126.38 79.0938 126.685 78.3335 126.685 78.3335L128.713 78.4316Z" fill="#FFE3CA"/>
<path d="M125.74 80.7124L126.379 85.1023L126.741 85.1268L126.629 81.9631L125.74 80.7124Z" fill="#FFB750"/>
<path d="M118.795 46.746L140.909 55.6484C140.909 55.6484 143.382 56.3596 143.66 58.7875C144.521 66.341 150.911 78.3089 150.911 78.3089C152.967 79.1918 152.8 78.4316 152.8 78.4316C151.494 74.7529 149.939 59.6459 149.355 53.5884C149.244 52.3131 149.161 51.4302 149.133 51.1359C149.133 50.9397 148.883 50.6945 148.466 50.4002C145.438 48.2175 132.936 43.7295 132.936 43.7295C123.629 43.5088 118.795 46.746 118.795 46.746Z" fill="#FFE3CA"/>
<path d="M114.628 50.5717C115.322 55.8445 123.851 55.2559 123.851 55.2559H134.186C134.186 55.2559 131.464 60.6022 130.408 65.0902C129.297 69.8724 126.657 78.3088 126.657 78.3088C126.657 78.3088 126.824 78.6031 128.713 78.4315C128.713 78.4315 136.825 64.1583 139.937 60.5532C140.604 59.7929 142.521 55.5747 142.854 53.0732C142.965 52.2394 142.91 51.5772 142.549 51.3075C142.187 51.0377 141.354 50.5472 140.27 49.9341C137.02 48.1193 131.408 45.348 128.269 44.7349C124.074 43.9011 117.434 42.3315 117.434 42.3315C117.434 42.3315 113.933 45.299 114.628 50.5717Z" fill="#FFE3CA"/>
<path d="M121.657 9.91048C121.657 9.91048 120.101 7.31089 120.851 4.56416C121.601 1.79291 124.518 -0.953827 128.769 0.321441C133.019 1.59671 136.464 4.49059 133.908 7.87496C131.352 11.2348 136.214 12.7798 134.964 14.3739C133.714 15.968 134.186 17.6602 134.714 18.0281C135.242 18.3959 136.937 19.7202 136.742 21.3143C136.548 22.8839 128.491 16.7283 128.491 16.7283C128.491 16.7283 124.129 8.90498 121.657 9.91048Z" fill="#0B4870"/>
<path d="M134.631 43.0676C134.631 43.0676 133.992 45.8143 117.461 42.3564C117.461 42.3564 122.99 40.7378 134.631 43.0676Z" fill="#EB4747"/>
<path d="M117.267 43.1166C117.017 43.558 116.767 43.9749 116.489 44.4164C122.518 44.5635 128.574 44.7352 134.603 44.8823C133.658 42.062 133.964 38.2362 134.131 35.3423C134.325 31.7863 136.548 29.3339 136.325 25.7533C137.52 25.925 137.715 25.9495 138.909 26.1212C137.076 21.5106 136.464 19.2298 130.769 17.4641C128.908 16.8755 127.713 16.7774 125.713 16.9245C119.128 17.415 117.156 17.4641 113.906 22.7368C118.962 23.448 118.128 25.0421 119.656 29.5055C120.406 31.6637 121.184 34.0916 120.795 36.3724C120.406 38.6041 117.267 41.0811 117.267 43.1166Z" fill="white"/>
<path d="M127.768 18.5676C125.074 18.1261 125.657 16.8018 125.657 16.8018C125.657 16.8018 125.768 16.0661 125.824 15.1096C125.824 14.8644 125.851 14.6191 125.851 14.3494C125.851 13.957 125.824 13.5646 125.768 13.1722C125.546 11.5781 130.658 12.5346 130.658 12.5346C130.658 12.5346 130.352 15.7718 131.074 16.7282C131.769 17.7092 130.463 19.0335 127.768 18.5676Z" fill="#FFE3CA"/>
<path d="M122.629 16.8022C122.629 16.8022 128.074 22.3447 130.074 23.6199C130.074 23.6199 132.38 21.7806 130.963 16.9248C130.963 16.9248 128.352 15.7476 122.629 16.8022Z" fill="#FFE3CA"/>
<path d="M122.796 3.46059C122.796 3.46059 119.962 8.26737 122.768 12.8044C125.574 17.3414 131.075 10.8179 131.408 10.0577C131.769 9.2974 133.658 4.95658 129.908 3.65678C126.157 2.33247 123.601 2.1608 122.796 3.46059Z" fill="#FFE3CA"/>
<path d="M128.241 13.2949C128.241 13.2949 127.741 14.2514 125.824 15.1097C125.824 14.8645 125.852 14.6192 125.852 14.3495C125.852 14.3495 127.158 14.2268 128.241 13.2949Z" fill="#FCD2B1"/>
<path d="M99.7088 38.8005C99.7088 38.8005 98.3753 39.3155 97.7363 39.0948C97.0974 38.8495 96.125 38.8005 95.8194 38.8005C95.4027 38.8005 94.0969 38.3836 94.1247 38.8495C94.1525 39.291 96.2361 39.6098 96.6528 39.7569C97.0696 39.9041 95.3749 40.7134 95.2082 41.0812C95.0415 41.4491 96.9862 43.8525 98.0697 43.1658C99.1532 42.4791 99.7366 41.1058 99.9589 41.0077C100.181 40.9096 100.765 40.5417 100.765 40.5417L99.7088 38.8005Z" fill="#FFE3CA"/>
<path d="M95.4306 40.8599C95.4306 40.8599 92.2912 43.1652 92.2357 43.484C92.1801 43.8028 92.3468 43.9499 92.6524 43.7292C92.958 43.533 95.764 41.5711 95.764 41.5711C95.764 41.5711 92.6246 44.8573 92.5135 45.1026C92.4579 45.2497 92.7635 45.544 92.9302 45.4459C93.0969 45.3478 96.4585 42.2578 96.4585 42.2578C96.4585 42.2578 93.5136 45.3233 93.5136 45.5685C93.4859 45.7647 93.847 45.9855 94.0971 45.7647C94.3471 45.544 97.2642 42.8463 97.2642 42.8463C97.2642 42.8463 95.2917 45.2007 95.4306 45.4214C95.5139 45.544 95.764 45.8138 96.2363 45.2007C96.7086 44.5876 98.0421 43.2142 98.0421 43.2142L95.4306 40.8599Z" fill="#FFE3CA"/>
<path d="M133.103 55.2314H123.851C123.851 55.2314 115.322 55.8445 114.628 50.5472C113.933 45.2745 117.434 42.3315 117.434 42.3315C117.434 42.3315 121.934 43.3861 125.879 44.2199C127.852 43.8521 130.213 43.6068 132.992 43.6804C132.992 43.6804 149.661 48.5362 149.161 51.1113C149.161 51.1358 142.187 47.8495 133.103 55.2314Z" fill="#0B4870"/>
<path d="M127.074 46.1085L144.743 45.8633L135.825 49.8608L127.074 46.1085Z" fill="#F2F2F2"/>
<path d="M132.575 44.0974C132.575 44.0974 128.602 45.4463 123.74 44.2201L123.518 42.626L133.547 43.1165L132.575 44.0974Z" fill="white"/>
<path d="M135.825 49.8611L127.074 46.8691V46.1089L136.52 49.1009L135.825 49.8611Z" fill="#D3D3D3"/>
<path d="M132.492 44.8575C132.436 45.4216 133.103 45.8385 133.714 45.6178L134.742 45.2254C135.048 45.1027 135.242 44.833 135.186 44.5387C134.77 42.1843 133.853 33.0122 135.186 31.4181C135.687 30.8295 135.992 30.3145 136.159 29.8731C137.048 31.8841 138.131 34.4837 138.576 35.8816L146.91 45.6913L149.716 46.329C146.216 38.8981 143.41 34.9742 143.41 34.9742C142.854 33.6744 141.298 29.7505 139.909 26.268C139.02 24.0608 138.242 22.0253 137.798 20.9462C137.576 20.3821 137.159 19.9162 136.576 19.6219C135.27 18.9352 133.131 17.8561 131.186 17.0223H131.158C131.103 16.9978 131.047 16.9733 130.964 16.9487C134.686 21.8781 133.242 35.8816 132.492 44.8575C132.492 44.833 132.492 44.833 132.492 44.8575Z" fill="#FDB32A"/>
<path d="M118.712 17.3414C117.517 17.513 114.572 20.0391 113.017 22.5896C111.238 25.508 109.405 28.8188 108.044 29.8979C105.543 31.9089 98.5144 38.9964 98.181 38.8247C98.0421 38.7512 100.098 40.9338 100.376 41.0319C100.515 41.081 111.905 32.3503 113.017 31.026C114.044 29.7752 116.823 24.478 117.656 24.6006C117.712 24.7232 118.74 26.6606 119.684 29.481C119.712 29.53 119.712 29.5791 119.74 29.6281C120.406 31.5901 120.351 33.7482 119.99 36.1516C119.712 37.9664 118.184 40.9338 117.267 42.3808C117.156 42.5525 117.184 42.8958 117.295 43.141C117.378 43.2882 117.462 43.4108 117.601 43.4599L120.962 44.5635L121.74 44.8087C122.296 45.0049 122.907 44.9068 123.351 44.6125C123.713 44.3918 123.99 44.0239 124.046 43.5825C124.796 38.5305 125.741 33.3558 126.491 31.4184C129.797 22.8839 125.213 16.4585 125.213 16.4585C125.213 16.4585 119.768 16.998 118.712 17.3414Z" fill="#FDB32A"/>
<path d="M135.825 49.8606L141.076 37.2061L157.995 37.4513L152.994 49.1249L135.825 49.8606Z" fill="#CEDCF3"/>
<path d="M146.494 42.7976C145.966 43.705 146.132 44.7105 146.855 45.0048C147.577 45.3236 148.549 44.8331 149.077 43.9257C149.605 43.0183 149.438 42.0128 148.716 41.7185C147.994 41.3997 146.994 41.8902 146.494 42.7976Z" fill="#F2F0F0"/>
<path d="M136.214 18.8863C134.964 17.2187 134.075 15.8943 133.964 13.5155C133.881 11.9459 133.492 9.81229 132.269 8.75774C133.547 5.81481 132.047 4.93193 131.436 3.97548C130.686 2.77379 125.129 -0.120091 122.935 2.92093C120.74 5.93744 121.518 9.10108 121.518 9.10108C121.74 7.43342 123.685 5.17718 123.685 5.17718C123.99 6.91841 128.074 9.76324 129.852 10.9159C129.824 10.9404 129.797 10.9895 129.797 11.014C128.796 12.2893 130.047 13.5645 130.269 14.9134C130.491 16.2622 126.074 19.8918 130.991 21.7066C135.909 23.546 137.464 20.5295 136.214 18.8863Z" fill="#0B4870"/>
<path d="M46.7847 161.741C46.7847 161.741 46.6735 162.771 41.2283 162.771C35.7831 162.771 27.8652 161.52 27.8652 161.52L40.506 160.441C40.506 160.441 45.3678 160.221 46.7847 161.741Z" fill="#0E538C"/>
<path d="M32.9215 162.109C29.8377 162.109 28.5319 163.507 27.3095 163.948C26.0871 164.389 24.8647 165.052 24.8647 165.027C25.5593 163.825 26.5316 163.801 27.0317 163.408C27.5318 163.016 27.3929 163.212 26.3094 163.139C25.6982 163.09 24.5869 164.095 23.809 164.659C23.1145 165.125 22.6978 165.174 22.6978 165.174C22.6978 165.174 23.5034 164.169 24.5036 163.359C25.726 162.378 27.254 161.569 27.6151 161.422C28.2819 161.177 30.3378 161.128 31.7824 161.299C33.4493 161.496 35.144 162.109 32.9215 162.109Z" fill="#0E538C"/>
<path d="M27.8096 161.471C27.8096 161.471 25.4482 162.011 25.0315 162.305C24.7536 162.501 23.5312 163.654 23.5312 163.654C23.5312 163.654 24.4203 163.531 24.9203 163.09C25.4482 162.624 27.8096 161.471 27.8096 161.471Z" fill="#0E538C"/>
<path d="M42.3117 159.632C42.3117 159.632 48.257 159.975 47.8403 163.212C47.618 165.052 46.2567 165.689 44.4509 165.542C41.1171 165.297 37.3387 164.856 37.3387 164.856L35.644 159.828L42.3117 159.632Z" fill="#0E538C"/>
<path d="M43.5621 160.073L49.3963 143.47C49.3963 143.47 50.2575 141.042 51.6744 141.484C53.7024 142.146 52.7023 144.132 52.5356 145.31C52.1744 147.713 52.4245 148.768 50.5353 154.555C49.3685 158.136 48.3683 162.256 47.3682 164.61C46.6736 166.229 45.479 163.899 43.6732 163.261C40.2838 162.06 43.5621 160.073 43.5621 160.073Z" fill="#0E538C"/>
<path d="M44.0064 134.445C45.1455 137.339 48.6738 138.835 51.9242 137.781C55.1469 136.726 56.8694 133.513 55.7303 130.62C54.5913 127.726 51.063 126.23 47.8125 127.284C44.5898 128.339 42.8674 131.552 44.0064 134.445Z" fill="#0E538C"/>
<path d="M37.6166 134.715C39.3946 137.069 42.9507 137.658 45.5344 136.039L45.1733 133.268C47.757 131.625 48.3959 128.388 46.6179 126.033L45.3955 124.439C43.6175 122.085 40.0614 121.496 37.4777 123.115L36.3109 123.851C33.7272 125.494 33.0882 128.731 34.8662 131.085L37.6166 134.715Z" fill="#0B4870"/>
<path d="M35.2828 126.99C35.5884 127.383 35.9218 127.75 36.3107 128.118C38.8667 130.571 42.2838 131.503 44.4508 130.497C45.4509 131.699 46.59 132.655 47.6179 133.391C48.8125 134.249 51.8685 134.593 51.8685 134.593C53.6466 136.31 46.9789 146.34 46.5066 146.291C45.5343 146.217 44.2841 140.675 45.2009 138.664C45.6176 137.756 46.2844 136.677 46.0899 136.187C45.3954 134.495 44.423 134.789 44.423 134.789C44.423 134.789 43.1451 136.113 42.1449 136.064C41.117 135.991 39.3389 134.568 39.2556 134.544C38.95 134.323 38.6722 134.053 38.4221 133.734L35.7551 130.203C35.0605 129.222 34.8939 128.045 35.2828 126.99Z" fill="#FFE3CA"/>
<path d="M55.6747 169.245C55.6747 169.245 53.5077 171.551 52.841 171.796C51.952 172.139 49.2293 171.404 49.2293 171.404C49.2293 171.404 48.507 160.834 47.6736 156.713C46.8401 152.593 45.6177 151.514 45.5621 150.214C45.4788 148.13 43.5063 147.296 43.8397 145.677C44.1731 144.059 44.7565 138.271 44.9509 139.031C46.6456 145.604 48.7293 140.135 49.2016 139.277C49.4516 138.811 55.6747 169.245 55.6747 169.245Z" fill="#F2F0F0"/>
<path d="M45.8123 137.07C45.8123 137.07 43.1731 139.62 43.3675 140.626C43.5342 141.631 42.2285 144.77 43.5342 149.136C45.0067 154.114 45.7845 157.498 46.0624 160.76C46.3402 164.022 45.09 167.014 45.5901 171.011C45.979 174.15 46.7847 174.322 46.7847 174.322C46.7847 174.322 48.3683 174.665 49.4795 173.439C50.5908 172.238 48.9239 161.545 48.3683 158.896C47.8126 156.223 46.0346 149.994 45.5623 148.155C44.9789 145.898 45.09 143.593 45.1178 142.931C45.2567 140.601 45.5901 139.154 45.8679 138.271C45.8957 138.149 46.0346 136.775 45.8123 137.07Z" fill="#0E538C"/>
<path d="M50.4241 140.062C51.8687 143.74 56.3694 145.629 60.4811 144.28C64.5928 142.931 66.7598 138.86 65.3151 135.181C63.8705 131.502 59.3698 129.614 55.2581 130.963C51.1464 132.287 48.9794 136.383 50.4241 140.062Z" fill="#0E538C"/>
<path d="M36.2831 203.286L37.7555 213.659L31.3657 216.333L27.8374 217.019L34.1161 212.728L32.0602 203.359L36.2831 203.286Z" fill="#FCBAA2"/>
<path d="M38.1722 215.229L36.7831 215.548L35.8385 214.788L30.7267 217.044L26.1982 218C26.1982 218 26.1427 217.681 26.2816 217.51C26.8372 216.848 30.0321 215.401 30.0321 215.401C30.0321 215.401 30.0877 216.357 30.5322 216.382C30.9767 216.406 34.8939 214.591 35.8107 214.101C37.3665 213.243 37.6721 212.678 37.7832 212.752C38.1166 212.899 38.1722 215.229 38.1722 215.229Z" fill="#0E538C"/>
<path d="M20.8642 188.865L15.7801 197.694L8.77907 197.4L5.27856 196.492L13.0297 195.34L17.2525 187.786L20.8642 188.865Z" fill="#FCBAA2"/>
<path d="M15.3633 199.263L13.9742 198.969L13.5297 197.89L7.2232 197.816L3.47266 197.031C3.47266 197.031 3.91717 196.59 4.19498 196.467C5.02844 196.149 8.00109 196.001 8.00109 196.001C8.00109 196.001 7.69549 196.762 8.08444 196.958C8.47338 197.179 12.8073 197.301 13.8631 197.228C15.6967 197.105 16.2245 196.762 16.2801 196.86C16.4745 197.203 15.3633 199.263 15.3633 199.263Z" fill="#0E538C"/>
<path d="M57.953 162.452L54.1747 163.948L54.2024 168.534L28.1709 164.782C28.1709 164.782 25.6983 164.071 24.1147 167.676C21.8644 172.777 16.1414 188.644 16.1414 188.644L19.753 192.102L31.1158 174.175C31.1158 174.175 54.3969 184.156 62.0647 181.998C65.0096 181.164 67.2599 176.407 66.8432 171.6C66.5098 167.823 65.6763 164.365 65.6763 164.365L57.953 162.452Z" fill="#FDB32A"/>
<path d="M54.647 181.9L36.0054 180.674L37.6168 206.964L32.116 207.136L28.0598 176.333C28.0598 176.333 29.1433 171.747 32.6994 172.434C36.2832 173.145 44.8956 179.178 54.647 181.9Z" fill="#FDB32A"/>
<path d="M67.2041 188.497C67.2041 188.497 57.4249 178.81 54.8968 173.341C51.8686 166.793 52.1186 158.578 51.563 155.855C50.5351 150.852 49.2849 141.141 49.0626 139.939C48.8126 138.737 49.6738 137.388 49.6738 137.388C49.6738 137.388 49.0348 133.759 50.8684 134.151C53.5077 134.715 56.1192 135.991 57.036 136.383C58.7585 137.07 62.2868 155.365 62.4812 156.248C63.2036 159.436 65.8428 162.33 67.732 165.297C72.1771 172.336 73.3161 180.65 73.3161 180.65C73.3161 180.65 72.7605 186.732 67.2041 188.497Z" fill="#0B4870"/>
<path d="M57.1196 163.163C57.1196 163.163 57.0362 164.341 50.8131 164.071C44.59 163.777 35.4775 161.937 35.4775 161.937L49.8963 161.349C49.8963 161.349 55.4249 161.373 57.1196 163.163Z" fill="#FFE3CA"/>
<path d="M40.3672 162.575C37.3945 162.526 36.1166 163.874 34.9497 164.291C33.7829 164.708 32.5883 165.321 32.5883 165.321C33.255 164.169 34.1996 164.144 34.6997 163.776C35.172 163.408 35.0609 163.605 34.0051 163.506C33.3939 163.457 32.3382 164.414 31.5881 164.953C30.9214 165.419 30.5046 165.444 30.5046 165.444C30.5046 165.444 31.2825 164.463 32.2549 163.678C33.4495 162.746 34.8942 161.961 35.2553 161.839C35.8943 161.618 37.8668 161.594 39.2837 161.79C40.8673 161.986 42.5064 162.624 40.3672 162.575Z" fill="#FFE3CA"/>
<path d="M35.3942 161.864C35.3942 161.864 33.1161 162.354 32.7271 162.624C32.4493 162.82 31.2825 163.924 31.2825 163.924C31.2825 163.924 32.1159 163.801 32.616 163.384C33.1161 162.992 35.3942 161.864 35.3942 161.864Z" fill="#FFE3CA"/>
<path d="M52.1465 161.864L61.37 157.572C61.37 157.572 61.3978 162.771 61.4534 164.757C61.509 166.744 62.4535 169.54 60.6755 169.957C58.8975 170.374 57.9807 170.153 59.8143 171.109C61.6479 172.041 61.2311 173.022 60.5366 173.831C59.842 174.641 62.8703 182.881 62.1479 183.347C59.2864 180.159 56.2026 176.21 54.8691 173.341C53.1744 169.613 52.5076 165.346 52.1465 161.864Z" fill="#0B4870"/>
<path d="M55.1192 159.779L54.758 143.201C54.758 143.201 54.7858 138.026 54.8969 136.505C55.0081 134.936 58.0363 136.775 58.0363 136.775C58.0363 136.775 62.2869 141.852 62.3702 154.089C62.4258 162.281 61.9257 166.548 57.6473 166.205C53.6745 165.886 49.1461 165.346 49.1461 165.346L47.1736 160.809L55.1192 159.779Z" fill="#0B4870"/>
<path d="M54.1745 168.534L22.4199 165.027L22.5033 164.438L54.2579 167.945L54.1745 168.534Z" fill="#CEDCF3"/>
<path d="M40.2558 166.376C40.2003 166.842 39.7835 167.185 39.339 167.136L23.0589 165.346C22.6144 165.297 22.0587 164.929 21.6698 163.703L15.3911 149.356C15.4745 148.768 16.0023 148.473 16.4468 148.621L33.0881 150.926C33.5326 151.073 33.8382 151.416 34.0049 152.054L40.2558 166.376Z" fill="#CEDCF3"/>
<path d="M38.2002 166.769L38.3669 166.793L54.2581 168.559C53.6469 168.78 52.6745 168.853 51.591 168.731L38.2835 167.259L38.1168 167.235L24.8093 165.763C23.7259 165.64 22.8091 165.346 22.2534 165.027L38.2002 166.769Z" fill="#CEDCF3"/>
<path d="M55.1192 159.779L54.7581 143.2C54.7581 143.2 55.0359 141.803 55.5915 140.552C55.7304 142.367 56.675 155.438 56.7862 157.155C56.9251 159.019 58.6475 159.215 59.0087 159.828C59.3976 160.417 59.0643 160.539 57.7863 160.318C56.5361 160.073 56.9806 160.269 57.2584 160.858C57.5363 161.471 56.8417 161.299 54.3969 160.515C52.6189 159.951 49.2017 160.515 47.4792 160.858L55.1192 159.779Z" fill="#0B4870"/>
<path d="M164.913 119.093C161.857 119.804 156.217 122.305 155.022 126.597C153.244 133.047 156.8 142.489 151.189 151.759C149.383 154.702 182.221 158.675 182.221 158.675L188.555 126.107C188.555 126.107 180.637 119.044 179.026 118.553C175.664 117.572 171.025 117.67 164.913 119.093Z" fill="#FDB32A"/>
<path d="M188.583 126.132C189.722 128.731 192.611 144.206 189.389 147.86C189.028 148.277 191.056 148.939 190.694 150.852C190.639 151.171 190.028 152.716 190.028 152.716L187.416 153.329L181.721 147.517C181.721 147.517 184.027 144.353 187.055 132.361C187.944 128.829 188.333 125.543 188.583 126.132Z" fill="#EFAE35"/>
<path d="M167.024 144.623C167.024 144.623 169.775 151.024 176.415 152.741C177.554 153.035 178.276 154.163 177.72 154.531C176.998 154.997 176.053 155.095 174.387 155.095C170.914 155.095 166.191 154.114 162.94 151.22C158.106 146.953 156.578 144.991 157.078 142.858C157.523 140.675 167.024 144.623 167.024 144.623Z" fill="#FCD2B1"/>
<path d="M155.967 124.439C154.55 126.549 153.745 129.933 153.772 134.789C153.772 138.541 157.328 144.697 157.856 146.585C157.94 146.904 158.162 148.253 158.162 148.253L162.079 151.784L169.941 146.904L167.552 143.544L166.83 143.618C166.83 143.618 166.385 141.754 166.496 141.043C166.608 140.331 164.33 130.644 163.19 124.439C162.551 120.834 157.356 122.355 155.967 124.439Z" fill="#EFAE35"/>
<path d="M163.024 143.47L165.33 142.833L166.274 142.612C166.33 143.2 166.886 143.593 166.886 143.593L165.08 143.789L162.996 144.378L160.551 145.923L163.024 143.47Z" fill="#0E538C"/>
<path d="M175.914 152.716L179.915 151.71C179.915 151.71 181.054 153.108 180.832 153.452C180.609 153.795 180.832 155.855 180.832 155.855L178.887 157.376L177.303 156.885C177.303 156.885 177.192 156.247 177.72 156.198C178.276 156.125 177.359 155.781 177.081 155.634C176.803 155.463 174.497 154.384 175.914 152.716Z" fill="#FCD2B1"/>
<path d="M169.747 118.774C169.303 119.927 169.969 121.227 171.247 121.619L173.525 122.355C174.803 122.772 176.192 122.134 176.637 120.982L178.665 115.684C179.109 114.532 178.443 113.232 177.165 112.815L174.887 112.079C173.609 111.662 172.22 112.3 171.775 113.453L169.747 118.774Z" fill="#FF957E"/>
<path d="M179.693 123.434C179.471 124.194 178.582 124.66 177.748 124.439L170.886 122.698C170.053 122.478 169.552 121.693 169.775 120.908L172.581 111.613C172.803 110.853 173.692 110.387 174.525 110.608L181.388 112.324C182.221 112.545 182.721 113.33 182.499 114.115L179.693 123.434Z" fill="#FCD2B1"/>
<path d="M183.249 113.183C183.305 113.134 182.61 112.447 182.971 111.098C183.444 109.284 181.916 108.548 180.776 108.523C180.11 108.499 177.859 109.455 176.665 109.774C175.47 110.093 175.581 109.676 173.414 109.333C171.97 109.087 171.636 109.799 171.136 110.78C170.636 111.785 170.581 115.611 170.581 115.611C170.775 115.856 171.081 116.052 171.275 115.856C171.47 115.66 172.247 112.594 172.886 111.687C173.498 110.78 175.998 112.227 177.359 112.938C178.693 113.649 179.887 113.772 182.027 113.379C182.277 113.624 182.499 113.894 182.499 114.017C182.499 114.262 181.888 116.003 181.888 116.003C181.888 116.003 183.082 115.341 183.416 114.826C183.582 114.655 183.638 113.821 183.249 113.183Z" fill="#0B4870"/>
<path d="M171.942 118.97C171.858 119.215 171.58 119.387 171.303 119.313L169.83 118.946C169.552 118.872 169.386 118.602 169.469 118.357L170.219 115.88C170.302 115.635 170.58 115.463 170.858 115.537L172.331 115.905C172.608 115.978 172.775 116.248 172.692 116.493L171.942 118.97Z" fill="#FCD2B1"/>
<path d="M171.025 116.616C171.025 116.616 169.914 120.27 169.552 121.497C169.219 122.6 168.969 125.151 175.776 126.867C179.804 127.873 180.471 125.126 180.749 124.243C180.943 123.557 180.721 121.325 180.415 120.834C180.415 120.81 179.971 122.355 179.971 122.355C179.971 122.355 179.582 120.663 177.665 120.197C174.581 119.412 173.359 120.908 172.025 120.516C170.969 120.197 170.664 118.431 171.025 116.616Z" fill="#0B4870"/>
<path d="M175.664 122.232L177.776 122.772C178.053 122.845 178.359 122.698 178.415 122.429L178.498 122.159L175.359 121.374L175.275 121.644C175.22 121.914 175.386 122.159 175.664 122.232Z" fill="#FCD2B1"/>
<path d="M209.142 159.387C208.169 161.864 191.056 170.962 185.305 170.423L167.997 171.183C153.3 169.54 146.327 148.645 146.327 148.645C146.91 143.397 161.412 150.999 166.58 153.354C174.748 157.081 179.943 157.278 179.943 157.278C185.416 157.793 191.75 153.918 198.668 153.795C206.252 153.624 210.697 155.487 209.142 159.387Z" fill="#0B4870"/>
<path d="M171.525 156.885C171.525 156.861 171.525 156.861 171.525 156.885V156.198L201.279 155.708V156.37V156.395L201.196 156.517C200.835 157.106 200.14 157.204 199.362 157.229L173.47 157.67C172.692 157.694 171.997 157.596 171.608 157.032L171.525 156.885Z" fill="#CEDCF3"/>
<path d="M178.693 156.86C178.693 156.86 178.693 156.885 178.693 156.86L178.609 156.983C178.498 157.13 178.359 157.253 178.192 157.326L173.664 157.4C172.914 157.424 172.247 157.351 171.858 156.885L171.775 156.787C171.775 156.787 171.775 156.787 171.747 156.762V156.443L178.637 156.321L178.693 156.86Z" fill="#CEDCF3"/>
<path d="M182.721 156.616L197.584 156.37V155.904L182.693 156.174L182.721 156.616Z" fill="#CEDCF3"/>
<path d="M178.859 156.051L182.443 142.612C182.527 142.269 182.916 141.974 183.304 141.95L204.196 141.606C204.585 141.606 204.808 141.876 204.724 142.244L201.14 155.683L178.859 156.051Z" fill="#CEDCF3"/>
<path d="M165.385 174.641C167.441 174.96 169.024 172.777 169.024 172.777L174.359 168.951L173.22 166.352L162.829 170.619C162.829 170.619 163.301 174.322 165.385 174.641Z" fill="#FCD2B1"/>
<path d="M168.997 172.63C168.997 172.63 168.997 172.851 168.608 173.857C168.219 174.862 167.719 175.205 167.219 175.353C165.218 175.892 163.802 175.622 159.023 176.456C154.245 177.29 152.8 176.652 151.411 174.641C150.022 172.63 151.466 171.036 153.8 170.889C157.162 170.668 159.051 171.012 160.801 170.766C162.635 170.521 162.746 170.129 163.829 169.516C164.83 168.952 165.774 172.336 164.83 173.121C163.968 173.807 168.302 173.906 168.997 172.63Z" fill="#FFB750"/>
<path d="M167.997 174.567C166.024 175.107 164.579 174.837 159.801 175.671C155.022 176.505 153.578 175.867 152.189 173.856C151.55 172.924 151.522 172.09 151.883 171.453C150.827 172.115 150.466 173.267 151.411 174.641C152.8 176.652 154.245 177.289 159.023 176.456C163.802 175.622 165.246 175.892 167.219 175.352C167.608 175.254 167.997 175.009 168.33 174.445C168.219 174.494 168.108 174.543 167.997 174.567Z" fill="white"/>
<path d="M168.997 172.704C168.997 172.655 168.997 172.655 168.997 172.655C168.997 172.679 168.969 172.704 168.941 172.728C168.969 172.704 168.997 172.704 168.997 172.704Z" fill="#E9D6B8"/>
<path d="M158.69 174.199C158.551 174.248 158.412 173.978 158.357 173.61C158.273 172.85 158.079 172.114 157.801 171.354C157.662 170.986 157.662 170.667 157.829 170.618C157.995 170.569 158.273 170.839 158.384 171.207C158.662 171.942 158.829 172.703 158.912 173.438C158.968 173.806 158.829 174.15 158.69 174.199Z" fill="white"/>
<path d="M160.162 173.953C159.995 173.978 159.857 173.732 159.801 173.389C159.718 172.678 159.523 171.967 159.245 171.28C159.106 170.937 159.106 170.642 159.301 170.618C159.468 170.593 159.745 170.863 159.884 171.206C160.134 171.893 160.329 172.604 160.412 173.291C160.44 173.634 160.329 173.929 160.162 173.953Z" fill="white"/>
<path d="M161.718 173.905C161.551 173.93 161.385 173.66 161.329 173.292C161.19 172.556 160.996 171.845 160.69 171.109C160.551 170.742 160.551 170.447 160.718 170.447C160.912 170.447 161.19 170.717 161.329 171.085C161.635 171.796 161.829 172.532 161.94 173.243C161.996 173.586 161.885 173.881 161.718 173.905Z" fill="white"/>
<path d="M165.746 168.387C165.746 168.387 202.335 154.629 204.419 154.605C211.475 154.556 209.864 161.079 206.28 164.169C202.057 167.799 169.941 174.445 169.941 174.445L165.746 168.387Z" fill="#0B4870"/>
<path d="M180.248 170.791L170.247 162.109L174.525 158.259L185.416 168.755L180.248 170.791Z" fill="#FCD2B1"/>
<path d="M182.304 163.972C182.304 163.972 156.884 142.661 155.189 142.023C149.383 139.865 145.799 145.726 145.993 147.762C146.271 150.386 172.08 171.722 172.08 171.722L182.304 163.972Z" fill="#0B4870"/>
<path d="M197.362 171.453C197.945 171.943 198.056 173.439 198.056 173.439C198.056 173.439 189.583 176.382 186.61 176.431C185.832 176.456 184.443 176.161 183.11 175.818C182.888 175.769 182.36 175.229 182.137 175.18C181.721 175.082 181.637 175.426 181.304 175.327C180.415 175.058 179.748 174.837 179.72 174.788C177.915 171.305 178.526 169.589 178.526 169.589C178.526 169.589 182.415 170.619 181.749 169.81C180.332 168.093 184.416 166.352 185.305 167.259C188.972 170.913 195.639 170.006 197.362 171.453Z" fill="#FFB750"/>
<path d="M197.834 172.188C195.223 173.144 189.75 175.082 188.666 175.155C184.193 175.45 181.082 174.003 178.998 173.144C179.193 173.635 179.415 174.199 179.721 174.788C179.748 174.837 180.387 175.057 181.304 175.327C181.665 175.425 181.749 175.057 182.138 175.18C182.36 175.229 182.86 175.769 183.11 175.818C184.444 176.161 185.833 176.431 186.611 176.431C189.583 176.382 198.057 173.439 198.057 173.439C198.057 173.439 198.057 172.752 197.834 172.188Z" fill="white"/>
<path d="M191.861 169.932C191.944 170.079 191.611 170.226 191.139 170.324C190.166 170.496 189.222 170.766 188.277 171.109C187.805 171.281 187.388 171.33 187.333 171.183C187.277 171.036 187.583 170.766 188.055 170.594C188.972 170.251 189.944 170.006 190.889 169.834C191.333 169.711 191.778 169.785 191.861 169.932Z" fill="white"/>
<path d="M189.944 169.319C190.028 169.466 189.694 169.662 189.222 169.785C188.277 170.03 187.361 170.373 186.444 170.79C185.999 170.987 185.583 171.06 185.527 170.913C185.471 170.766 185.777 170.447 186.222 170.251C187.111 169.858 188.027 169.515 188.972 169.294C189.444 169.123 189.889 169.172 189.944 169.319Z" fill="white"/>
<path d="M188.11 168.779C188.166 168.927 187.86 169.147 187.416 169.294C186.499 169.613 185.61 170.006 184.749 170.472C184.332 170.717 183.943 170.79 183.888 170.619C183.832 170.472 184.11 170.128 184.554 169.883C185.416 169.417 186.305 169.025 187.194 168.73C187.638 168.608 188.055 168.632 188.11 168.779Z" fill="white"/>
</svg>
