<svg width="225" height="239" viewBox="0 0 225 239" fill="none" xmlns="http://www.w3.org/2000/svg">
<path d="M112.5 225C174.632 225 225 174.632 225 112.5C225 50.368 174.632 0 112.5 0C50.368 0 0 50.368 0 112.5C0 174.632 50.368 225 112.5 225Z" fill="#E8EFF9"/>
<path d="M189.906 69.0074L168.686 83.1144C163.463 86.5825 156.327 85.1297 152.876 79.8805C149.425 74.6314 150.871 67.4608 156.094 63.9926L177.314 49.8856C182.537 46.4175 189.673 47.8703 193.124 53.1195C196.575 58.3686 195.129 65.5392 189.906 69.0074Z" fill="#C5D6F1"/>
<path d="M156.503 161.955C161.198 208.268 131.769 219.198 104.989 219.985C64.6333 221.189 39.8528 148.247 50.4531 137.734C52.8242 135.372 56.6831 136.391 66.586 131.759C74.2573 128.147 79.139 124.164 81.1847 122.589C89.2279 116.476 121.215 96.2838 140.044 105.268C156.968 113.327 154.55 142.874 156.503 161.955Z" fill="#C5D6F1"/>
<path d="M141.986 157.385C138.247 179.41 121.029 206.294 98.3189 206.988C64.1149 208.006 43.1125 145.632 52.0674 136.702C54.0522 134.712 57.3295 135.592 65.7305 131.566C72.239 128.466 76.3471 125.088 78.1473 123.746C84.9789 118.518 112.074 101.259 128.045 108.94C142.401 115.788 144.755 141.237 141.986 157.385Z" fill="#B7CDEF"/>
<path d="M61.25 208C53.8159 208 41 203.483 41 189.101V113.506C41 106.085 47.0659 100 54.5 100C61.9341 100 68 106.085 68 113.506V189.101C68 196.522 61.25 208 61.25 208Z" fill="#C5D6F1"/>
<path d="M68.5 217C79.2696 217 88 205.807 88 192C88 178.193 79.2696 167 68.5 167C57.7304 167 49 178.193 49 192C49 205.807 57.7304 217 68.5 217Z" fill="#C5D6F1"/>
<rect x="53" y="209" width="95" height="30" fill="#99B9EE"/>
<rect x="53" y="234" width="95" height="2" fill="#ECECEC"/>
<path d="M56.302 189.101V113.506C56.302 108.804 58.7898 104.702 62.5449 102.259C60.3388 100.83 57.7102 100 54.8939 100C47.2429 100 41 106.085 41 113.506V189.101C41 203.483 54.1898 208 61.8408 208C61.8408 208 62.7796 206.433 64 204.036C59.6816 201.132 56.302 196.384 56.302 189.101Z" fill="#B7CDEF"/>
<rect x="53" y="212" width="95" height="2" fill="#ECECEC"/>
<path opacity="0.3" d="M43.0454 128H41V127.117H43.0454C48.5907 127.117 53.1361 122.472 53.1361 116.804V109.883H41V109H53.9997V116.851C54.0451 122.983 49.0907 128 43.0454 128Z" fill="#99B9EE"/>
<path d="M162.738 202.676L71.1231 202.63C68.3538 202.63 66.0923 200.362 66.0923 197.584L66.1846 21.0453C66.1846 18.2681 68.4461 16 71.2154 16L162.831 16.0463C165.6 16.0463 167.862 18.3144 167.862 21.0916L167.769 197.631C167.769 200.408 165.508 202.676 162.738 202.676Z" fill="#99B9EE"/>
<path d="M160.246 179.255L73.6154 179.208C73.2923 179.208 73.0154 178.931 73.0154 178.607L73.1077 29.3307C73.1077 29.0067 73.3846 28.729 73.7077 28.729L160.338 28.7753C160.662 28.7753 160.938 29.053 160.938 29.377L160.846 178.653C160.892 178.977 160.615 179.255 160.246 179.255Z" fill="white"/>
<path d="M130.431 23.9616H101.077C100.154 23.9616 99.4153 23.221 99.4153 22.2952C99.4153 21.3695 100.154 20.6289 101.077 20.6289H130.431C131.354 20.6289 132.092 21.3695 132.092 22.2952C132.138 23.221 131.354 24.0079 130.431 23.9616Z" fill="#CDEAFB"/>
<path d="M135.277 24.0075C134.354 24.0075 133.615 23.2669 133.615 22.3411C133.615 21.4154 134.354 20.6748 135.277 20.6748C136.2 20.6748 136.939 21.4154 136.939 22.3411C136.939 23.2206 136.2 24.0075 135.277 24.0075Z" fill="#CDEAFB"/>
<path d="M175.976 135.778L169.444 140.135C164.292 143.565 157.254 142.128 153.851 136.937C150.447 131.745 151.873 124.653 157.024 121.222L163.556 116.865C168.708 113.435 175.746 114.872 179.149 120.063C182.553 125.302 181.127 132.347 175.976 135.778Z" fill="#C5D6F1"/>
<path opacity="0.3" d="M179.109 120.023C179.015 119.886 178.72 119.475 178.626 119.338C181.209 123.544 180.146 129.737 175.919 132.48L165.962 138.88C161.736 141.623 155.923 139.185 152.917 135.253C153.011 135.39 153.667 136.731 153.761 136.822C157.236 141.942 163.896 143.543 169.156 140.16L175.825 135.863C181.132 132.48 182.584 125.189 179.109 120.023Z" fill="#99B9EE"/>
<path opacity="0.3" fill-rule="evenodd" clip-rule="evenodd" d="M164.259 136.955C164.448 137 164.59 137 164.779 137C165.581 137 166.337 136.729 166.903 136.323L170.067 133.93C173.372 131.448 173.985 126.618 171.389 123.187C170.114 121.472 168.225 120.343 166.148 120.072C164.165 119.801 162.229 120.298 160.671 121.472L157.319 123.999C155.856 125.128 155.572 127.159 156.658 128.604L161.899 135.601C162.465 136.323 163.315 136.819 164.259 136.955ZM164.401 136.142C163.693 136.007 163.079 135.646 162.654 135.104L157.461 128.107C156.658 127.024 156.894 125.489 157.98 124.677L161.332 122.149C162.654 121.156 164.401 120.704 166.101 120.93C167.942 121.156 169.595 122.149 170.728 123.683C172.994 126.753 172.475 131.041 169.547 133.253L166.384 135.646C165.818 136.052 165.109 136.233 164.401 136.142Z" fill="#99B9EE"/>
<path d="M178.142 156.661L171.781 159.8C166.793 162.246 160.707 160.169 158.281 155.138C155.856 150.108 157.915 143.969 162.903 141.523L169.264 138.385C174.253 135.938 180.339 138.015 182.764 143.046C185.236 148.077 183.176 154.215 178.142 156.661Z" fill="#C5D6F1"/>
<path opacity="0.3" d="M182.81 143.046C182.764 142.908 182.673 142.815 182.627 142.677C184.366 146.784 182.627 151.631 178.6 153.615L169.173 158.231C165.146 160.215 160.295 158.6 158.144 154.677C158.19 154.815 158.236 154.908 158.281 155.046C160.707 160.077 166.793 162.2 171.781 159.708L178.142 156.569C183.176 154.215 185.236 148.077 182.81 143.046Z" fill="#99B9EE"/>
<path opacity="0.3" fill-rule="evenodd" clip-rule="evenodd" d="M167.434 157.031C167.709 157.123 167.983 157.169 168.258 157.169C168.807 157.169 169.356 157.031 169.814 156.662L172.834 154.862C176.037 152.969 177.136 148.585 175.305 145.123C174.39 143.415 172.88 142.169 171.095 141.662C169.402 141.154 167.663 141.385 166.153 142.308L162.949 144.246C161.531 145.123 161.027 146.969 161.805 148.446L165.512 155.462C165.924 156.246 166.61 156.8 167.434 157.031ZM166.61 143.139C167.48 142.631 168.441 142.354 169.402 142.354C169.859 142.354 170.363 142.4 170.912 142.539C172.468 143 173.749 144.062 174.573 145.585C176.175 148.631 175.214 152.508 172.422 154.169L169.402 155.969C168.898 156.292 168.258 156.385 167.663 156.2C167.068 156.062 166.564 155.646 166.29 155.092L162.583 148.077C161.988 147.015 162.354 145.677 163.407 145.077L166.61 143.139Z" fill="#99B9EE"/>
<path d="M150 179H83V151.073C83 138.357 93.2687 128 105.978 128H127.022C139.685 128 150 138.311 150 151.073V179Z" fill="#FFBE55"/>
<path d="M173.29 111.758L165.849 116.114C159.989 119.579 151.989 118.127 148.129 112.929C144.223 107.731 145.85 100.66 151.71 97.2415L159.151 92.8864C165.011 89.4211 173.011 90.8728 176.871 96.0708C180.777 101.269 179.15 108.34 173.29 111.758Z" fill="#C5D6F1"/>
<path opacity="0.3" d="M176.886 96.3695C176.794 96.231 176.701 96.1386 176.563 96C179.428 100.203 178.042 105.746 173.327 108.472L162.328 114.892C157.613 117.617 151.281 116.601 148 112.629C148.092 112.767 148.185 112.906 148.277 112.998C152.16 118.125 160.063 119.557 165.886 116.139L173.281 111.844C179.151 108.472 180.769 101.497 176.886 96.3695Z" fill="#99B9EE"/>
<path opacity="0.3" fill-rule="evenodd" clip-rule="evenodd" d="M158.269 113.955C158.458 114 158.6 114 158.789 114C159.593 114 160.349 113.774 160.916 113.323L164.083 110.93C167.392 108.448 167.959 103.618 165.407 100.187C164.131 98.4716 162.24 97.343 160.16 97.0722C158.175 96.8014 156.237 97.2979 154.677 98.4716L151.321 100.999C149.855 102.128 149.572 104.159 150.659 105.604L155.906 112.601C156.473 113.323 157.324 113.819 158.269 113.955ZM158.411 113.142C157.702 113.007 157.088 112.646 156.662 112.104L151.415 105.107C150.612 104.024 150.848 102.489 151.935 101.677L155.291 99.1487C156.662 98.1556 158.364 97.7042 160.065 97.9299C161.956 98.1556 163.611 99.1487 164.745 100.683C167.014 103.753 166.494 108.041 163.563 110.253L160.396 112.646C159.829 113.052 159.12 113.233 158.411 113.142Z" fill="#99B9EE"/>
<path d="M116.5 199C121.194 199 125 195.194 125 190.5C125 185.806 121.194 182 116.5 182C111.806 182 108 185.806 108 190.5C108 195.194 111.806 199 116.5 199Z" fill="#CDEAFB"/>
<path d="M127.938 129.882L126.922 104.657L107.056 104.103L105.855 133.671C105.716 136.905 108.534 136.304 111.768 136.165L122.718 135.611C125.767 135.426 128.077 132.885 127.938 129.882Z" fill="#FACBB6"/>
<path d="M107.795 109.924L127.615 121.566L126.922 104.657L107.795 109.924Z" fill="#F6B7A0"/>
<path d="M150.622 86.6848C150.622 90.7966 147.296 94.123 143.184 94.123C139.072 94.123 135.746 90.7966 135.746 86.6848C135.746 82.573 139.072 79.2466 143.184 79.2466C147.296 79.2466 150.622 82.573 150.622 86.6848Z" fill="#FACBB6"/>
<path d="M91.8562 94.123C95.9642 94.123 99.2944 90.7928 99.2944 86.6848C99.2944 82.5768 95.9642 79.2466 91.8562 79.2466C87.7482 79.2466 84.418 82.5768 84.418 86.6848C84.418 90.7928 87.7482 94.123 91.8562 94.123Z" fill="#FACBB6"/>
<path d="M140.643 73.3795C140.643 82.8505 139.257 91.0279 137.917 96.8491C136.578 102.532 132.789 106.505 127.476 109.693L126.506 110.247C120.823 113.666 113.616 113.758 107.841 110.478C102.066 107.198 98.0469 102.855 96.7995 96.7567C94.5357 85.6687 94.3047 73.3795 94.3047 73.3795C94.3047 73.3795 92.1333 49.4479 117.127 49.9099C142.122 50.4181 140.643 73.3795 140.643 73.3795Z" fill="#FACBB6"/>
<path d="M95.6445 83.1276C95.6445 83.1276 100.911 66.126 97.0767 55.1304C97.1229 55.1304 82.3851 59.3346 95.6445 83.1276Z" fill="#01384F"/>
<path d="M139.719 83.1276C139.719 83.1276 133.066 66.126 136.901 55.1304C136.855 55.1304 150.622 58.503 139.719 83.1276Z" fill="#01384F"/>
<path d="M98.1856 62.7535C98.1856 62.7535 102.39 55.1305 109.967 59.3347C117.543 63.5389 125.028 67.5583 138.564 64.2319L136.763 55.0843C136.763 55.0843 117.959 35.0797 96.9844 55.0843L98.1856 62.7535Z" fill="#01384F"/>
<path d="M96.9844 55.0842C96.9844 55.0842 98.1856 41.2242 117.774 40.023C137.363 38.8218 143.138 49.263 143.138 49.263L139.581 49.9098C139.581 49.9098 146.418 52.8666 148.22 55.731L144.386 57.0708L149.468 61.5984C149.468 61.5984 133.482 67.7892 124.658 64.4628L117.312 53.3748L96.9844 55.0842Z" fill="#01384F"/>
<path d="M109.227 127.434L100.958 127.572C100.958 127.572 100.08 138.06 116.204 138.568C132.327 139.076 132.605 128.219 132.605 128.219L123.873 127.434H109.227V127.434Z" fill="#FACBB6"/>
<path fill-rule="evenodd" clip-rule="evenodd" d="M86 115H146V55H86V115ZM145.211 114.256H86.7895V55.7436H145.211V114.256Z" fill="#347AF0"/>
<rect x="87" y="74" width="59" height="26" fill="#347AF0"/>
<path d="M144 66H143.254V57.7461H135V57H144V66Z" fill="#347AF0"/>
<path d="M88.7887 66H88V57H97V57.7461H88.7887V66Z" fill="#347AF0"/>
<path d="M97 113H88V104H88.7887V112.211H97V113Z" fill="#347AF0"/>
<path d="M144 113H135V112.211H143.254V104H144V113Z" fill="#347AF0"/>
</svg>
