<svg width="125" height="129" viewBox="0 0 125 129" fill="none" xmlns="http://www.w3.org/2000/svg">
<path d="M62.8601 128.998C60.807 128.992 58.7629 128.734 56.7757 128.232L56.384 128.127L56.0206 127.949C42.8846 121.537 31.8024 113.068 23.0819 102.776C15.8631 94.2073 10.2351 84.4779 6.45076 74.0257C1.92532 61.5119 -0.251863 48.3078 0.0231505 35.0438C0.0286997 34.7653 0.0333961 34.5504 0.0333961 34.4022C0.0333961 27.9545 3.70961 22.2971 9.39896 19.9892C13.7533 18.2229 53.2887 2.41357 56.1453 1.2713C61.5249 -1.35294 67.264 0.837403 68.1824 1.22044C70.2425 2.04042 106.791 16.5937 114.689 20.255C122.828 24.0286 125 30.8076 125 34.2182C125 49.6592 122.253 64.09 116.836 77.1099C112.461 87.6485 106.26 97.3777 98.5029 105.874C83.5373 122.27 68.5677 128.082 68.4232 128.134C66.6342 128.733 64.7519 129.025 62.8601 128.998ZM59.3398 120.509C60.6376 120.792 63.6256 121.217 65.5731 120.525C68.0472 119.647 80.5764 113.322 92.2847 100.494C108.461 82.7713 116.669 60.4919 116.681 34.2752C116.653 33.744 116.265 29.9558 111.112 27.567C103.367 23.9764 65.3787 8.85376 64.9959 8.70134L64.8909 8.65802C64.0948 8.33324 61.5612 7.64913 59.8147 8.54012L59.465 8.69883C59.0416 8.86815 17.0743 25.6491 12.5984 27.4647C9.46746 28.7348 8.3519 31.8812 8.3519 34.4023C8.3519 34.5865 8.347 34.8545 8.34009 35.2009C7.98237 53.1394 12.2462 97.2805 59.3398 120.509Z" fill="#3F3D56"/>
<path d="M57.8848 4.95354C57.8848 4.95354 15.5361 21.8868 10.9987 23.7273C6.46134 25.5679 4.19266 29.9853 4.19266 34.4026C4.19266 38.82 0.78964 96.4607 57.8848 124.33C57.8848 124.33 63.0668 125.726 66.9983 124.33C70.9298 122.934 120.841 99.3747 120.841 34.2186C120.841 34.2186 120.841 27.5925 112.9 23.9114C104.96 20.2303 66.5695 4.95354 66.5695 4.95354C66.5695 4.95354 61.855 2.92892 57.8848 4.95354Z" fill="#347AF0"/>
<path opacity="0.1" d="M62.422 18.2051V108.538C62.422 108.538 19.6952 88.5148 20.0733 35.8745L62.422 18.2051Z" fill="black"/>
<path d="M61.8803 89.9999C64.5595 89.9999 66.7315 87.9544 66.7315 85.4311C66.7315 82.9078 64.5595 80.8623 61.8803 80.8623C59.201 80.8623 57.0291 82.9078 57.0291 85.4311C57.0291 87.9544 59.201 89.9999 61.8803 89.9999Z" fill="white"/>
<path d="M61.8988 39.0004C58.2417 39.0345 54.7431 40.4114 52.1476 42.838C49.552 45.2646 48.0644 48.5494 48.0014 51.9932C48.0004 52.0592 47.9999 52.5227 48 53.1289C48.0001 54.0178 48.375 54.8702 49.0424 55.4988C49.7097 56.1273 50.6148 56.4805 51.5587 56.4806C52.5032 56.4804 53.4089 56.1269 54.0766 55.4978C54.7444 54.8686 55.1194 54.0155 55.1192 53.1259V53.1238C55.1188 52.7114 55.1186 52.426 55.1186 52.4084C55.1183 51.305 55.4231 50.2205 56.0029 49.2616C56.5827 48.3027 57.4175 47.5025 58.4253 46.9396C59.4331 46.3767 60.5792 46.0707 61.7507 46.0514C62.9222 46.0322 64.0788 46.3005 65.1068 46.83C66.1348 47.3595 66.9987 48.1318 67.6136 49.0711C68.2285 50.0104 68.5731 51.0843 68.6137 52.1871C68.6542 53.2899 68.3893 54.3836 67.8449 55.3607C67.3005 56.3378 66.4953 57.1646 65.5087 57.7598L65.5099 57.7612C65.5099 57.7612 60.4448 60.8322 58.9006 65.045L58.9019 65.0453C58.6304 65.9084 58.4927 66.8038 58.4934 67.704C58.4934 68.074 58.5165 71.3115 58.5612 73.9391C58.5768 74.8458 58.9702 75.7103 59.6566 76.3462C60.343 76.9821 61.2673 77.3384 62.2301 77.3382C62.712 77.3382 63.1892 77.2487 63.6344 77.075C64.0796 76.9013 64.4842 76.6468 64.8249 76.3258C65.1657 76.0049 65.436 75.6239 65.6204 75.2046C65.8048 74.7853 65.8997 74.3359 65.8996 73.8821L65.8996 73.8609C65.8841 71.4544 65.8757 68.6522 65.8757 68.4489C65.8757 65.8621 68.5254 63.2847 70.702 61.6039C73.2214 59.6822 74.9921 57.0273 75.7364 54.0555C75.8967 53.443 75.9851 52.8157 76 52.185C76 50.4535 75.6379 48.739 74.9343 47.1393C74.2307 45.5396 73.1995 44.0861 71.8995 42.8618C70.5994 41.6375 69.0561 40.6663 67.3576 40.0036C65.659 39.341 63.8385 39 62 39C61.9662 39 61.9325 39.0001 61.8988 39.0004Z" fill="white"/>
</svg>
