<svg width="25" height="26" viewBox="0 0 25 26" fill="none" xmlns="http://www.w3.org/2000/svg">
<path fill-rule="evenodd" clip-rule="evenodd" d="M3.85419 3.36719C3.43752 2.95052 2.81252 2.95052 2.39585 3.36719C1.97919 3.78385 1.97919 4.40885 2.39585 4.82552L7.91669 10.3464H4.16669C3.54169 10.3464 3.12502 10.763 3.12502 11.388C3.12502 12.013 3.54169 12.4297 4.16669 12.4297H10.4167C10.5209 12.4297 10.7292 12.4297 10.8334 12.3255C11.0417 12.2214 11.25 12.013 11.3542 11.8047C11.4584 11.7005 11.4584 11.4922 11.4584 11.388V5.13802C11.4584 4.51302 11.0417 4.09635 10.4167 4.09635C9.79169 4.09635 9.37502 4.51302 9.37502 5.13802V8.88802L3.85419 3.36719ZM13.5417 15.5547C13.5417 15.4505 13.5417 15.2422 13.6459 15.138C13.75 14.9297 13.9584 14.7214 14.1667 14.6172C14.2709 14.513 14.4792 14.513 14.5834 14.513H20.8334C21.4584 14.513 21.875 14.9297 21.875 15.5547C21.875 16.1797 21.4584 16.5964 20.8334 16.5964H17.0834L22.6042 22.1172C23.0209 22.5339 23.0209 23.1589 22.6042 23.5755C22.3959 23.7839 22.1875 23.888 21.875 23.888C21.5625 23.888 21.3542 23.7839 21.1459 23.5755L15.625 18.0547V21.8047C15.625 22.4297 15.2084 22.8464 14.5834 22.8464C13.9584 22.8464 13.5417 22.4297 13.5417 21.8047V15.5547Z" fill="white"/>
<mask id="mask0" mask-type="alpha" maskUnits="userSpaceOnUse" x="2" y="3" width="21" height="21">
<path fill-rule="evenodd" clip-rule="evenodd" d="M3.85419 3.36719C3.43752 2.95052 2.81252 2.95052 2.39585 3.36719C1.97919 3.78385 1.97919 4.40885 2.39585 4.82552L7.91669 10.3464H4.16669C3.54169 10.3464 3.12502 10.763 3.12502 11.388C3.12502 12.013 3.54169 12.4297 4.16669 12.4297H10.4167C10.5209 12.4297 10.7292 12.4297 10.8334 12.3255C11.0417 12.2214 11.25 12.013 11.3542 11.8047C11.4584 11.7005 11.4584 11.4922 11.4584 11.388V5.13802C11.4584 4.51302 11.0417 4.09635 10.4167 4.09635C9.79169 4.09635 9.37502 4.51302 9.37502 5.13802V8.88802L3.85419 3.36719ZM13.5417 15.5547C13.5417 15.4505 13.5417 15.2422 13.6459 15.138C13.75 14.9297 13.9584 14.7214 14.1667 14.6172C14.2709 14.513 14.4792 14.513 14.5834 14.513H20.8334C21.4584 14.513 21.875 14.9297 21.875 15.5547C21.875 16.1797 21.4584 16.5964 20.8334 16.5964H17.0834L22.6042 22.1172C23.0209 22.5339 23.0209 23.1589 22.6042 23.5755C22.3959 23.7839 22.1875 23.888 21.875 23.888C21.5625 23.888 21.3542 23.7839 21.1459 23.5755L15.625 18.0547V21.8047C15.625 22.4297 15.2084 22.8464 14.5834 22.8464C13.9584 22.8464 13.5417 22.4297 13.5417 21.8047V15.5547Z" fill="white"/>
</mask>
<g mask="url(#mask0)">
<rect width="25" height="25" transform="matrix(-1 0 0 1 25 0.971436)" fill="#B5BBC9"/>
</g>
</svg>
