<svg width="197" height="99" viewBox="0 0 197 99" fill="none" xmlns="http://www.w3.org/2000/svg">
<path opacity="0.2" d="M94.8566 96.81C94.8566 96.81 95.5178 96.131 94.482 95.2803C94.3429 95.1567 94.1703 95.0621 93.9783 95.0042C93.7864 94.9462 93.5806 94.9266 93.3777 94.9469C93.6155 94.8823 93.8707 94.8752 94.1132 94.9264C94.3557 94.9776 94.5755 95.0849 94.7465 95.2358C95.7822 96.0866 95.1211 96.7655 95.1211 96.7655C94.6328 96.9457 94.1221 97.0813 93.5981 97.1697C94.029 97.0789 94.45 96.9585 94.8566 96.81Z" fill="white"/>
<path d="M190.189 0H7.17555C3.45666 0 0.441895 2.48798 0.441895 5.55705V93.015C0.441895 96.084 3.45666 98.572 7.17555 98.572H190.189C193.908 98.572 196.923 96.084 196.923 93.015V5.55705C196.923 2.48798 193.908 0 190.189 0Z" fill="url(#paint0_linear)"/>
<path d="M187.211 0.00390625H9.28542C5.56652 0.00390625 2.55176 2.49188 2.55176 5.56096V89.4381C2.55176 92.5072 5.56652 94.9951 9.28542 94.9951H187.211C190.93 94.9951 193.944 92.5072 193.944 89.4381V5.56096C193.944 2.49188 190.93 0.00390625 187.211 0.00390625Z" fill="white"/>
<path d="M23.076 14.916H17.498V27.9862H23.076V14.916Z" fill="#E0E0E0"/>
<path d="M30.2137 14.916H24.6357V27.9862H30.2137V14.916Z" fill="#E0E0E0"/>
<path d="M37.3513 14.916H31.7734V27.9862H37.3513V14.916Z" fill="#E0E0E0"/>
<path d="M49.844 14.916H44.2661V27.9862H49.844V14.916Z" fill="#E0E0E0"/>
<path d="M56.9817 14.916H51.4038V27.9862H56.9817V14.916Z" fill="#E0E0E0"/>
<path d="M64.1194 14.916H58.5415V27.9862H64.1194V14.916Z" fill="#E0E0E0"/>
<path d="M76.6121 14.916H71.0342V27.9862H76.6121V14.916Z" fill="#E0E0E0"/>
<path d="M83.7498 14.916H78.1719V27.9862H83.7498V14.916Z" fill="#E0E0E0"/>
<path d="M90.8875 14.916H85.3096V27.9862H90.8875V14.916Z" fill="#E0E0E0"/>
<path d="M103.38 14.916H97.8022V27.9862H103.38V14.916Z" fill="#E0E0E0"/>
<path d="M110.518 14.916H104.94V27.9862H110.518V14.916Z" fill="#E0E0E0"/>
<path d="M117.656 14.916H112.078V27.9862H117.656V14.916Z" fill="#E0E0E0"/>
<path d="M66.1273 80.8203H17.498V86.7108H66.1273V80.8203Z" fill="#BDBDBD"/>
<path d="M101.818 70.8799H17.498V76.7703H101.818V70.8799Z" fill="#E0E0E0"/>
<path opacity="0.2" d="M0.106062 87.8102L0.128206 87.7496C0.128206 87.7496 -0.144874 87.7173 0.106062 87.8102Z" fill="url(#paint1_linear)"/>
<path opacity="0.2" d="M196.361 90.6022L196.386 90.6511C196.583 90.5453 196.361 90.6022 196.361 90.6022Z" fill="url(#paint2_linear)"/>
<path fill-rule="evenodd" clip-rule="evenodd" d="M176.12 73.6056C177.59 73.1877 178.524 71.9564 178.524 70.433C178.524 68.3068 176.737 66.9038 173.883 66.7529V64.8535H171.017V66.7389H169.702V64.8535H166.836V66.7389H164.701V69.7243H166.744V78.3841H164.701V81.3679H166.836V83.5121H169.702V81.3679H171.017V83.5121H173.883V81.364C177.006 81.2815 178.981 79.7355 178.981 77.2997C178.98 75.421 177.888 73.9817 176.12 73.6056ZM170.359 69.7243H173.161C173.429 69.7243 173.672 69.7606 173.882 69.8318C174.451 70.0233 174.789 70.4623 174.789 71.1007C174.789 71.7703 174.451 72.2398 173.882 72.4454C173.672 72.5208 173.429 72.5615 173.161 72.5615H170.359V69.7243ZM173.161 78.4053C173.422 78.4053 173.664 78.3803 173.882 78.3326C174.725 78.1469 175.226 77.6141 175.226 76.819C175.226 76.0892 174.725 75.5708 173.882 75.389C173.664 75.3414 173.423 75.3163 173.161 75.3163H170.359V78.3842L173.161 78.4053Z" fill="#347AF0"/>
<path d="M169.442 55C176.069 55 181.442 49.8513 181.442 43.5C181.442 37.1487 176.069 32 169.442 32C162.814 32 157.442 37.1487 157.442 43.5C157.442 49.8513 162.814 55 169.442 55Z" fill="#347AF0"/>
<path d="M168.253 47.8869C167.983 47.8874 167.72 47.8037 167.504 47.6485L167.491 47.6388L164.67 45.5714C164.54 45.4754 164.43 45.3557 164.348 45.2192C164.266 45.0826 164.212 44.9319 164.19 44.7755C164.169 44.6191 164.18 44.4602 164.222 44.3079C164.265 44.1555 164.338 44.0127 164.438 43.8875C164.538 43.7623 164.663 43.6573 164.806 43.5783C164.948 43.4994 165.106 43.4482 165.269 43.4275C165.432 43.4069 165.598 43.4172 165.757 43.458C165.916 43.4987 166.065 43.5691 166.195 43.6651L168.022 45.0075L172.339 39.6107C172.439 39.4856 172.564 39.3806 172.706 39.3017C172.848 39.2228 173.006 39.1716 173.169 39.151C173.332 39.1303 173.498 39.1407 173.657 39.1814C173.815 39.2221 173.964 39.2925 174.095 39.3884L174.095 39.3887L174.069 39.4243L174.096 39.3887C174.36 39.5827 174.532 39.8689 174.575 40.1845C174.619 40.5001 174.53 40.8194 174.328 41.0722L169.251 47.4171C169.133 47.5633 168.982 47.6816 168.809 47.7628C168.636 47.8441 168.446 47.886 168.254 47.8855L168.253 47.8869Z" fill="white"/>
<defs>
<linearGradient id="paint0_linear" x1="83548" y1="48083.4" x2="83548" y2="0" gradientUnits="userSpaceOnUse">
<stop stop-color="#808080" stop-opacity="0.25"/>
<stop offset="0.54" stop-color="#808080" stop-opacity="0.12"/>
<stop offset="1" stop-color="#808080" stop-opacity="0.1"/>
</linearGradient>
<linearGradient id="paint1_linear" x1="24.3668" y1="124.448" x2="24.3668" y2="124.425" gradientUnits="userSpaceOnUse">
<stop stop-color="#808080" stop-opacity="0.25"/>
<stop offset="0.54" stop-color="#808080" stop-opacity="0.12"/>
<stop offset="1" stop-color="#808080" stop-opacity="0.1"/>
</linearGradient>
<linearGradient id="paint2_linear" x1="298.659" y1="169.2" x2="298.657" y2="169.182" gradientUnits="userSpaceOnUse">
<stop stop-color="#808080" stop-opacity="0.25"/>
<stop offset="0.54" stop-color="#808080" stop-opacity="0.12"/>
<stop offset="1" stop-color="#808080" stop-opacity="0.1"/>
</linearGradient>
</defs>
</svg>
