<svg width="64" height="62" viewBox="0 0 64 62" fill="none" xmlns="http://www.w3.org/2000/svg">
<path fill-rule="evenodd" clip-rule="evenodd" d="M32 60C48.5685 60 62 46.5685 62 30C62 13.4315 48.5685 0 32 0C15.4315 0 2 13.4315 2 30C2 46.5685 15.4315 60 32 60Z" fill="#DF5060" stroke="white" stroke-width="4"/>
<path fill-rule="evenodd" clip-rule="evenodd" d="M41.7228 20.2773C47.1145 25.669 47.1145 34.331 41.7228 39.7227C36.3311 45.1144 27.669 45.1144 22.2773 39.7227C16.8857 34.331 16.8857 25.669 22.2773 20.2773C27.669 14.8856 36.3311 14.8856 41.7228 20.2773ZM35.5356 25.227C36.2427 25.227 36.7731 25.7574 36.7731 26.4645C36.7731 27.1716 36.2427 27.7019 35.5356 27.7019L31.4698 27.7019L36.4195 32.6517C36.9498 33.182 36.9498 33.8891 36.4195 34.4194C35.8892 34.9497 35.1821 34.9497 34.6517 34.4194L29.702 29.4697V33.5355C29.702 34.2426 29.1717 34.773 28.4645 34.773C27.7574 34.773 27.2271 34.2426 27.2271 33.5355V26.4645C27.2271 26.2877 27.2271 26.1109 27.3155 26.0225C27.3155 25.8457 27.4923 25.669 27.5807 25.5806C27.6691 25.4922 27.8458 25.3154 28.0226 25.3154C28.111 25.227 28.2878 25.227 28.4645 25.227L35.5356 25.227ZM24.0452 22.0451C28.4646 17.6256 35.5356 17.6256 39.9551 22.0451C44.3745 26.4645 44.3745 33.5355 39.9551 37.955C35.5356 42.3744 28.4646 42.3744 24.0452 37.955C19.6257 33.5355 19.6257 26.4645 24.0452 22.0451Z" fill="white"/>
<mask id="mask0" mask-type="alpha" maskUnits="userSpaceOnUse" x="18" y="16" width="28" height="28">
<path fill-rule="evenodd" clip-rule="evenodd" d="M41.7228 20.2773C47.1145 25.669 47.1145 34.331 41.7228 39.7227C36.3311 45.1144 27.669 45.1144 22.2773 39.7227C16.8857 34.331 16.8857 25.669 22.2773 20.2773C27.669 14.8856 36.3311 14.8856 41.7228 20.2773ZM35.5356 25.227C36.2427 25.227 36.7731 25.7574 36.7731 26.4645C36.7731 27.1716 36.2427 27.7019 35.5356 27.7019L31.4698 27.7019L36.4195 32.6517C36.9498 33.182 36.9498 33.8891 36.4195 34.4194C35.8892 34.9497 35.1821 34.9497 34.6517 34.4194L29.702 29.4697V33.5355C29.702 34.2426 29.1717 34.773 28.4645 34.773C27.7574 34.773 27.2271 34.2426 27.2271 33.5355V26.4645C27.2271 26.2877 27.2271 26.1109 27.3155 26.0225C27.3155 25.8457 27.4923 25.669 27.5807 25.5806C27.6691 25.4922 27.8458 25.3154 28.0226 25.3154C28.111 25.227 28.2878 25.227 28.4645 25.227L35.5356 25.227ZM24.0452 22.0451C28.4646 17.6256 35.5356 17.6256 39.9551 22.0451C44.3745 26.4645 44.3745 33.5355 39.9551 37.955C35.5356 42.3744 28.4646 42.3744 24.0452 37.955C19.6257 33.5355 19.6257 26.4645 24.0452 22.0451Z" fill="white"/>
</mask>
<g mask="url(#mask0)">
<!-- <rect x="1" y="1" width="30" height="30" fill="white"/> -->
</g>
</svg>
