<svg width="300" height="162" viewBox="0 0 300 162" fill="none" xmlns="http://www.w3.org/2000/svg">
<path opacity="0.5" d="M31.6115 149.7C31.6115 83.3616 85.3896 29.5835 151.728 29.5835C218.067 29.5835 271.845 83.3616 271.845 149.7" fill="#E0E9F8"/>
<g opacity="0.7">
<path d="M34.2883 150.297C34.2883 150.297 62.1295 83.9022 72.108 90.0427C82.0865 96.1832 105.657 150.297 105.657 150.297H34.2883Z" fill="#C5D6F1"/>
</g>
<g opacity="0.7">
<path d="M274.155 150.297C274.155 150.297 248.704 86.7358 239.582 92.6145C230.46 98.4929 208.912 150.297 208.912 150.297H274.155Z" fill="#C0D3F2"/>
</g>
<path d="M157.101 151.448H139.447C138.811 151.448 138.296 150.932 138.296 150.296C138.296 149.661 138.811 149.145 139.447 149.145H157.101C157.737 149.145 158.252 149.661 158.252 150.296C158.252 150.932 157.737 151.448 157.101 151.448Z" fill="#5E349D"/>
<path d="M273.137 28.2905H193.457C190.712 28.2905 188.467 26.0454 188.467 23.3013C188.467 20.5571 190.712 18.312 193.457 18.312H273.137C275.881 18.312 278.126 20.5571 278.126 23.3013C278.126 26.0454 275.881 28.2905 273.137 28.2905Z" fill="#E0E9F8"/>
<path d="M96.5471 14.9673H48.334C45.5898 14.9673 43.3447 12.7222 43.3447 9.97802C43.3447 7.23386 45.5898 4.98877 48.334 4.98877H96.5467C99.2909 4.98877 101.536 7.23386 101.536 9.97802C101.536 12.7222 99.2909 14.9673 96.5471 14.9673Z" fill="#E0E9F8"/>
<path d="M251.797 9.97851H203.584C200.84 9.97851 198.595 7.73341 198.595 4.98925C198.595 2.24509 200.84 0 203.584 0H251.797C254.541 0 256.786 2.24509 256.786 4.98925C256.786 7.73306 254.541 9.97851 251.797 9.97851Z" fill="#E0E9F8"/>
<path d="M53.202 33.2798H4.98925C2.24509 33.2798 0 31.0347 0 28.2905C0 25.5464 2.24509 23.3013 4.98925 23.3013H53.202C55.9461 23.3013 58.1912 25.5464 58.1912 28.2905C58.1912 31.0347 55.9461 33.2798 53.202 33.2798Z" fill="#E0E9F8"/>
<path d="M260.195 69.5835H211.982C209.238 69.5835 206.993 67.3384 206.993 64.5942C206.993 61.8501 209.238 59.605 211.982 59.605H260.195C262.939 59.605 265.184 61.8501 265.184 64.5942C265.185 67.3384 262.939 69.5835 260.195 69.5835Z" fill="#E0E9F8"/>
<path d="M91.3023 74.5727H29.9548C27.5271 74.5727 25.541 72.5866 25.541 70.159V69.0084C25.541 66.5807 27.5271 64.5942 29.9548 64.5942H91.3023C93.73 64.5942 95.7165 66.5807 95.7165 69.0084V70.159C95.7165 72.5863 93.73 74.5727 91.3023 74.5727Z" fill="#E0E9F8"/>
<path d="M299.441 154.956C299.441 158.727 296.384 161.784 292.613 161.784H18.7251C14.9541 161.784 11.897 158.727 11.897 154.956C11.897 151.185 14.9541 148.127 18.7251 148.127H292.613C296.384 148.127 299.441 151.185 299.441 154.956Z" fill="#E0E9F8"/>
<path opacity="0.5" d="M47.9562 120.037C47.9562 120.037 42.5158 139.278 55.8592 139.934C69.2025 140.59 67.1264 127.211 64.808 121.966C62.4897 116.72 80.0782 98.2438 60.941 88.2709C41.804 78.2987 35.1378 115.433 47.9562 120.037Z" fill="#BCD1F3"/>
<path opacity="0.5" d="M25.0121 127.552C25.0121 127.552 21.1055 138.702 28.9503 139.573C36.7952 140.444 36.0568 132.479 34.8799 129.302C33.703 126.124 44.7462 115.867 33.8225 109.291C22.8988 102.715 17.6201 124.372 25.0121 127.552Z" fill="#BCD1F3"/>
<path d="M29.583 117.318L29.7116 149.145" stroke="#99B9EE"/>
<path d="M33.0838 124.88L29.6307 129.143L25.9714 125.335" stroke="#99B9EE"/>
<path d="M54.8271 99.9023L55.3255 148.128" stroke="#99B9EE"/>
<path d="M60.8698 106.101L54.9476 111.562L49.5834 106.55" stroke="#99B9EE"/>
<path d="M60.8372 116.239L54.915 121.701L49.5508 116.688" stroke="#99B9EE"/>
<path opacity="0.5" d="M267.912 120.037C267.912 120.037 262.472 139.278 275.815 139.934C289.158 140.59 287.082 127.211 284.764 121.966C282.445 116.72 300.034 98.2438 280.897 88.2709C261.76 78.2987 255.094 115.433 267.912 120.037Z" fill="#BCD1F3"/>
<path opacity="0.5" d="M244.968 127.552C244.968 127.552 241.061 138.702 248.906 139.573C256.751 140.444 256.012 132.479 254.836 129.302C253.659 126.124 264.702 115.867 253.778 109.291C242.855 102.715 237.576 124.372 244.968 127.552Z" fill="#BCD1F3"/>
<path d="M249.538 117.318L249.667 149.145" stroke="#99B9EE"/>
<path d="M253.039 124.88L249.586 129.143L245.927 125.335" stroke="#99B9EE"/>
<path d="M274.782 99.9023L275.281 148.128" stroke="#99B9EE"/>
<path d="M280.825 106.101L274.903 111.562L269.539 106.55" stroke="#99B9EE"/>
<path d="M280.793 116.239L274.87 121.701L269.507 116.688" stroke="#99B9EE"/>
<path d="M167.745 91.2012L162.69 55.6864L149.054 53.8149L141.962 90.9445L167.745 91.2012Z" fill="#FAB9AF"/>
<path d="M157.205 146.231L157.22 150.234C157.223 151.048 157.112 151.859 156.891 152.643L156.543 153.876C156.257 154.888 157.018 155.893 158.07 155.889C160.796 155.879 165.456 155.887 166.658 155.888C166.854 155.889 167.047 155.756 167.064 155.56C167.165 154.391 163.789 153.609 161.247 152.625C159.31 151.875 159.413 148.394 159.652 146.361C159.742 145.593 159.102 144.94 158.331 145.004C157.693 145.057 157.203 145.591 157.205 146.231Z" fill="#0B4870"/>
<path d="M138.466 145.108L137.087 149.688C137.026 149.89 136.935 150.082 136.817 150.258L135.839 151.71C135.218 152.632 135.665 153.891 136.728 154.215C136.728 154.215 138.699 154.909 140.732 155.576C142.813 156.26 145.429 155.689 145.429 155.14C145.429 153.92 144.292 154.888 142.387 153.614C141.749 153.188 141.09 152.741 140.503 152.28C138.863 150.993 140.295 147.735 141.298 145.9C141.659 145.24 141.276 144.421 140.54 144.264L140.065 144.163C139.368 144.014 138.672 144.425 138.466 145.108Z" fill="#0B4870"/>
<path d="M152.555 91.5447L167.665 90.2764C167.665 90.2764 169.186 101.274 165.368 121.182C163.577 130.517 159.845 148.357 159.845 148.357C158.92 148.762 157.979 148.864 157.021 148.624C157.021 148.624 156.738 140.755 156.565 132.281C156.399 124.153 156.353 115.469 155.836 112.628C154.777 106.824 152.555 91.5447 152.555 91.5447Z" fill="#0E538C"/>
<path opacity="0.07" d="M152.555 91.5447L167.665 90.2764C167.665 90.2764 169.186 101.274 165.368 121.182C163.577 130.517 159.845 148.357 159.845 148.357C158.92 148.762 157.979 148.864 157.021 148.624C157.021 148.624 156.738 140.755 156.565 132.281C156.399 124.153 156.353 115.469 155.836 112.628C154.777 106.824 152.555 91.5447 152.555 91.5447Z" fill="black"/>
<path d="M155.674 91.7363C157.234 100.109 160.719 112.628 154.006 124.39C147.293 136.151 140.243 148.378 140.243 148.378C139.334 148.415 138.51 148.086 137.745 147.505C137.745 147.505 138.922 142.173 140.623 135.947C142.57 128.825 145.035 120.447 144.333 116.079C143.016 107.893 141.504 96.9905 141.963 91.6956C142.421 86.4018 154.853 87.334 155.674 91.7363Z" fill="#0E538C"/>
<path opacity="0.07" d="M155.674 91.7363C157.234 100.109 160.719 112.628 154.006 124.39C147.293 136.151 140.243 148.378 140.243 148.378C139.334 148.415 138.51 148.086 137.745 147.505C137.745 147.505 138.922 142.173 140.623 135.947C142.57 128.825 145.035 120.447 144.333 116.079C143.016 107.893 141.504 96.9905 141.963 91.6956C142.421 86.4018 154.853 87.334 155.674 91.7363Z" fill="black"/>
<path d="M168.267 90.2969L162.691 55.6868L149.055 53.8154L141.727 90.3615C141.589 91.0484 142.034 91.7151 142.722 91.8459C145.261 92.327 151.384 93.3323 158.238 93.3323C163.354 93.3323 166.229 92.3373 167.537 91.7078C168.067 91.4515 168.36 90.8774 168.267 90.2969Z" fill="white"/>
<path d="M153.315 55.9703C153.315 58.4634 152.861 60.933 152.01 63.2762C150.344 67.8607 147.845 76.529 149.33 84.1666C151.468 95.1643 154.217 99.6102 150.653 102.173C147.089 104.736 140.254 100.459 140.057 99.0336C139.859 97.608 141.387 80.095 143.118 72.5079C144.85 64.9208 149.698 54.0132 149.698 54.0132L151.752 54.2327C152.641 54.3277 153.315 55.0772 153.315 55.9703Z" fill="#FFBE55"/>
<path d="M158.991 55.1787C158.991 55.1787 161.356 60.2898 160.531 67.633C159.706 74.9761 157.795 97.3371 164.477 100.713C166.593 101.783 171.426 97.0476 171.426 95.2913C171.426 93.5345 169.813 87.6542 168.285 82.3079C166.757 76.9616 163.074 55.7387 163.074 55.7387L158.991 55.1787Z" fill="#FFBE55"/>
<path d="M157.087 39.3384C154.044 39.3384 152.908 41.5047 152.851 45.5121C152.829 47.0127 153.504 48.5 154.047 49.4494C154.451 50.1549 154.562 50.9902 154.332 51.7696L153.663 54.0315C153.209 56.1297 154.206 57.2805 155.676 57.6984C156.405 57.9051 157.278 57.7449 157.914 57.3339C158.671 56.845 158.733 55.7936 158.592 54.9035L158.42 54.2588C158.187 53.3902 158.691 52.4535 159.57 52.2615C161.913 51.749 162.248 49.3064 162.876 45.5126C163.53 41.5581 160.131 39.3384 157.087 39.3384Z" fill="#FAB9AF"/>
<path d="M156.975 37.1107C154.865 37.1107 151.379 38.3026 151.819 41.3483L152.208 43.5024C152.363 44.3627 153.081 45.0069 153.952 45.0814C154.033 45.3792 154.303 45.586 154.611 45.586C154.989 45.586 155.294 45.2803 155.294 44.903C155.294 43.9316 155.976 43.1027 156.924 42.8895C158.087 42.6284 159.329 42.5662 160.628 42.9155C163.012 43.5558 165.842 39.6087 165.846 39.569C165.846 39.569 164.639 40.493 162.251 39.616C159.864 38.7391 160.859 36.9926 156.975 37.1107Z" fill="#0E538C"/>
<path d="M154.528 45.5861C154.528 46.5155 154.182 47.2684 153.288 47.2684C152.393 47.2684 151.819 45.9908 151.819 45.0614C151.819 44.1321 152.393 43.9038 153.288 43.9038C154.182 43.9038 154.528 44.6568 154.528 45.5861Z" fill="#FAB9AF"/>
<path d="M149.918 44.1668C149.918 44.1668 149.595 44.9291 148.825 46.0015C148.441 46.5399 147.943 47.1527 147.331 47.8092C146.728 48.475 146.047 49.2201 145.292 50.0172C144.544 50.8196 143.718 51.6706 142.888 52.6034C142.049 53.5268 141.224 54.5507 140.454 55.6461C139.702 56.7509 138.973 57.9153 138.426 59.1053C138.159 59.6986 137.927 60.2982 137.794 60.8552C137.655 61.4083 137.616 61.9291 137.687 62.2446C137.722 62.4004 137.774 62.5023 137.821 62.5606C137.875 62.614 137.929 62.6355 137.994 62.6796C138.128 62.758 138.419 62.9182 138.896 63.0118L139.164 63.0784C139.204 63.0872 139.262 63.1054 139.289 63.1068L139.366 63.1103L139.674 63.1338L140.034 63.1494L140.379 63.1264C140.827 63.0642 141.218 62.931 141.554 62.7418C142.223 62.3597 142.712 61.8816 143.311 61.3995C143.897 60.9033 144.544 60.3345 145.135 59.6898C146.316 58.3984 147.329 56.9414 148.086 55.8445C148.478 55.2679 148.786 54.8153 148.997 54.5066C149.22 54.1828 149.356 54.0025 149.356 54.0025L150.042 54.0246C150.042 54.0246 150.159 54.2156 150.346 54.5884C150.518 54.9603 150.762 55.5183 150.951 56.257C151.328 57.7218 151.568 59.9739 150.655 62.6439C150.192 63.9617 149.438 65.4054 148.145 66.6522C147.496 67.2675 146.713 67.8231 145.815 68.2405C144.92 68.6623 143.909 68.9293 142.883 69.0366C140.82 69.2428 138.742 68.7804 137.089 68.0044C136.653 67.8089 136.145 67.5639 135.671 67.2548C135.188 66.9246 134.701 66.5479 134.275 66.0247C133.848 65.5157 133.503 64.8984 133.289 64.2571C133.083 63.6149 133.011 62.9755 133.019 62.3886C133.047 61.2114 133.358 60.259 133.706 59.4164C134.06 58.5723 134.487 57.8428 134.929 57.156C135.815 55.7887 136.773 54.6041 137.741 53.5131C138.698 52.4162 139.647 51.4051 140.538 50.4444C141.437 49.493 142.301 48.6126 143.136 47.8425C143.968 47.0685 144.768 46.4022 145.493 45.8329C146.21 45.2539 146.886 44.8081 147.477 44.4823C148.656 43.8268 149.479 43.6396 149.479 43.6396L149.918 44.1668Z" fill="#FFBE55"/>
<path d="M173.598 93.3597C173.598 93.3597 173.141 92.7562 172.765 91.6612C172.565 91.115 172.432 90.4404 172.269 89.6683C172.119 88.8948 171.965 88.0213 171.834 87.064C171.695 86.1082 171.561 85.0706 171.362 83.9825C171.162 82.895 170.891 81.7579 170.615 80.588C170.33 79.4196 170.005 78.2208 169.651 77.0284C169.484 76.4263 169.278 75.8448 169.1 75.2515C168.902 74.672 168.72 74.1208 168.486 73.4962C168.269 72.9059 168.035 72.3136 167.802 71.7326C167.551 71.1579 167.3 70.5896 167.029 70.0424C166.496 68.9436 165.933 67.9109 165.466 66.91C164.989 65.9111 164.587 64.9475 164.203 64.0255C163.806 63.1128 163.427 62.2466 163.044 61.4447C162.66 60.6452 162.295 59.8927 161.94 59.2225C161.585 58.5533 161.267 57.9404 160.985 57.4368C160.701 56.9131 160.478 56.5021 160.326 56.2214C160.169 55.9333 160.09 55.7662 160.09 55.7662L160.429 55.2856C160.429 55.2856 160.612 55.3092 160.946 55.3787C161.117 55.4076 161.318 55.4605 161.552 55.5291C161.789 55.5953 162.065 55.6702 162.358 55.7834C162.952 55.996 163.657 56.3061 164.419 56.7514C165.179 57.1972 166.009 57.768 166.818 58.5014C167.628 59.2313 168.444 60.1019 169.173 61.1091C169.91 62.1095 170.577 63.2382 171.064 64.4674C171.572 65.6902 171.886 67.0104 172.163 68.3278C172.419 69.628 172.68 70.9487 172.941 72.27C173.062 72.8907 173.185 73.5981 173.3 74.2693C173.394 74.9365 173.485 75.6052 173.549 76.2568C173.694 77.5644 173.789 78.8386 173.885 80.0678C173.993 81.2945 174.058 82.48 174.162 83.5965C174.268 84.713 174.404 85.7614 174.504 86.7328C174.614 87.7029 174.669 88.5969 174.697 89.391C174.715 90.1866 174.732 90.8794 174.652 91.4599C174.517 92.6175 174.183 93.3029 174.183 93.3029L173.598 93.3597Z" fill="#FFBE55"/>
<path d="M153.649 43.8128C152.831 44.2287 152.057 44.7358 151.716 44.8671C151.573 44.9219 151.149 44.9528 151.026 44.9704C150.667 45.0219 150.102 45.0449 149.824 45.2791L148.639 46.2437C148.075 46.7194 147.417 46.8071 146.941 46.2427C146.426 45.6313 146.714 44.9136 147.38 44.4727L148.198 43.7839C148.732 43.4307 149.055 42.8712 149.402 42.3333C150.108 41.2389 151.438 40.5339 152.557 40.068C153.26 39.7755 154.194 40.1964 155.408 40.8244C156.004 41.133 156.837 41.7895 156.009 41.9654C155.316 42.1129 153.417 41.283 152.27 42.9765C152.213 43.0598 152.084 43.2837 152.16 43.3802C152.389 43.6683 153.056 43.1941 153.474 43.0726C154.06 42.9016 154.485 43.0554 154.594 43.2769C154.711 43.511 154.233 43.5154 153.649 43.8128Z" fill="#FAB9AF"/>
<path d="M172.538 97.366C172.556 96.4484 172.474 95.5269 172.519 95.1644C172.537 95.013 172.71 94.624 172.752 94.5079C172.876 94.1665 173.122 93.6575 173.046 93.3018L172.753 91.8027C172.6 91.0806 172.832 90.4584 173.554 90.3051C174.336 90.1385 174.834 90.7303 174.909 91.5264L175.131 92.5723C175.192 93.2097 175.533 93.7584 175.844 94.3179C176.477 95.4559 176.472 96.9609 176.356 98.168C176.283 98.9254 175.471 99.5519 174.346 100.326C173.793 100.707 172.822 101.132 173.056 100.32C173.253 99.6387 174.879 98.3546 173.925 96.5444C173.878 96.4553 173.741 96.2358 173.62 96.2579C173.258 96.3235 173.362 97.1358 173.273 97.5615C173.147 98.1592 172.811 98.4619 172.565 98.4541C172.304 98.4448 172.526 98.021 172.538 97.366Z" fill="#FAB9AF"/>
<path d="M154.158 49.6646C154.158 49.6646 156.431 52.7891 159.26 52.3659C159.26 52.3659 158.672 52.6466 158.53 53.1032C158.529 53.1032 155.843 52.9048 154.158 49.6646Z" fill="#E8948B"/>
<path fill-rule="evenodd" clip-rule="evenodd" d="M169.651 22.6732C170.066 20.9861 169.371 19.8632 167.701 19.4531L165.69 18.959C164.003 18.5444 162.885 19.2215 162.47 20.909L162.003 22.812C161.959 22.9918 162.022 23.1215 162.219 23.1699L164.087 23.6286C164.266 23.6728 164.4 23.5915 164.444 23.412L164.788 22.0116C164.903 21.5447 165.198 21.3506 165.683 21.4697L166.544 21.6814C166.993 21.7918 167.201 22.109 167.086 22.5758L166.478 25.0536L163.441 26.8778C163.284 26.9728 163.2 27.0849 163.156 27.2647L162.768 28.8443C162.71 29.0777 162.805 29.234 163.038 29.2915L164.726 29.7061C164.96 29.7635 165.116 29.6689 165.173 29.4352L165.367 28.6456C165.416 28.4479 165.5 28.3357 165.657 28.2408L168.475 26.6104C168.649 26.52 168.734 26.4075 168.783 26.2102L169.651 22.6732ZM162.636 30.9253C162.403 30.8682 162.247 30.9628 162.19 31.1963L161.784 32.848C161.726 33.0814 161.821 33.2377 162.054 33.2952L163.742 33.7098C163.976 33.7673 164.132 33.6723 164.189 33.4389L164.595 31.7871C164.653 31.5537 164.558 31.3974 164.324 31.3399L162.636 30.9253Z" fill="#FFBE55"/>
</svg>
